<svg xmlns="http://www.w3.org/2000/svg" viewBox="0 0 55 64">
  <defs>
    <style>
      .fill {
        fill: #e6e6e6;
      }
    </style>
  </defs>
  <title>ckn</title>
  <g id="CKN-Logo">
    <path class="fill" d="M20.942,42.3a9.837,9.837,0,0,1,0-19.674,9.633,9.633,0,0,1,1.38.1l1.851-3.236a13.146,13.146,0,0,0-3.231-.405,13.379,13.379,0,0,0,0,26.756,13.162,13.162,0,0,0,6.63-1.794l-1.758-3.065A9.674,9.674,0,0,1,20.942,42.3ZM42.351,19.456V37.808l-10.5-18.352-5.434,0L20.126,30.453V24.612a7.712,7.712,0,0,0-3.509,1.281v13.13A7.724,7.724,0,0,0,20.126,40.3V37.536l2.984-5.215,7.432,12.988h4.052l-9.458-16.53L28.58,22.76V30.9l3.509,6.134V26.955l10.5,18.352H45.86V19.456ZM27.428,0,0,15.98V47.94L27.428,63.92,54.855,47.94V15.98Zm0,2.453L52.75,17.207V46.713L27.428,61.467,2.105,46.713V17.207L27.428,2.453Z"/>
  </g>
</svg>
