<?xml version="1.0" encoding="UTF-8"?>
<svg width="192px" height="48px" viewBox="0 0 192 48" version="1.1" xmlns="http://www.w3.org/2000/svg" xmlns:xlink="http://www.w3.org/1999/xlink">
    <title>Contact icons</title>
    <g fill-rule="evenodd">
        <g id="skype" transform="translate(109.002563, 13.002563)">
            <path d="M21.0988434,12.7317024 C21.0919156,12.7701521 21.0870661,12.8089482 21.0797918,12.8473978 L21.0423813,12.6270914 C21.0628184,12.6613844 21.0797918,12.697063 21.0988434,12.7317024 C21.2117678,12.1171998 21.2710011,11.4881487 21.2710011,10.8594441 C21.2710011,9.46520928 20.9980428,8.11254167 20.4587077,6.83919823 C19.9384243,5.60915402 19.1940241,4.50450435 18.2449053,3.55607825 C17.297172,2.60765216 16.1918295,1.86325199 14.9624781,1.34296857 C13.6894811,0.804326292 12.3368135,0.531368015 10.9425786,0.531368015 C10.2854696,0.531368015 9.62732152,0.593026103 8.98683945,0.715995885 C8.98545393,0.716342279 8.98372195,0.716342279 8.98198996,0.716688673 C9.01801494,0.735740329 9.05438629,0.752713623 9.08971841,0.772458067 L8.87252953,0.738511479 C8.90890088,0.731583603 8.94561861,0.723962941 8.98198996,0.716688673 C8.10318903,0.249403501 7.11492766,0 6.11454251,0 C4.48129597,0 2.94573246,0.635978928 1.7908557,1.79120209 C0.636325322,2.94607886 0,4.48164236 0,6.1148889 C0,7.15441655 0.267415977,8.17627812 0.769340523,9.07932659 C0.775922004,9.04191609 0.780425122,9.00415922 0.787699392,8.96674865 L0.825109917,9.18324477 C0.805711867,9.14929816 0.788738573,9.11396604 0.769340523,9.07932659 C0.66750076,9.66438572 0.613809728,10.2622613 0.613809728,10.8594441 C0.613809728,12.2540254 0.886768004,13.6063465 1.42610308,14.8800364 C1.94569371,16.110427 2.69044027,17.2143839 3.63851997,18.16281 C4.58763885,19.1112361 5.69159573,19.8566754 6.92233274,20.3755733 C8.19532978,20.9152548 9.54834381,21.1885594 10.9425786,21.1885594 C11.5494605,21.1885594 12.1577279,21.1331364 12.7514468,21.0278327 C12.7168074,21.0084347 12.6814752,20.9907686 12.6461431,20.9703313 L12.8667959,21.0091274 C12.8286926,21.0164017 12.7902429,21.0209048 12.7514468,21.0278327 C13.6662727,21.545345 14.70199,21.8203816 15.7595301,21.8203816 C17.3924303,21.8203816 18.927301,21.1854418 20.0821777,20.0298723 C21.2374009,18.8756883 21.8730335,17.3397784 21.8730335,15.7065319 C21.8730335,14.6635403 21.6042319,13.6382148 21.0988434,12.7317024 L21.0988434,12.7317024 Z" fill="#161616" fill-rule="nonzero"/>
            <path d="M10.9837995,17.1849404 C7.31445046,17.1849404 5.67289047,15.3809217 5.67289047,14.028947 C5.67289047,13.3354666 6.18486044,12.8494762 6.89046451,12.8494762 C8.46066738,12.8494762 8.05400113,15.1041532 10.9837995,15.1041532 C12.4836844,15.1041532 13.3119118,14.2897814 13.3119118,13.4563581 C13.3119118,12.9551264 13.0645867,12.3995107 12.0770181,12.1559959 L8.81329624,11.3412778 C6.18486044,10.6820905 5.70787624,9.26118334 5.70787624,7.92548904 C5.70787624,5.15226067 8.31899235,4.11100104 10.7711137,4.11100104 C13.0299473,4.11100104 15.6926761,5.35940413 15.6926761,7.02313331 C15.6926761,7.73601166 15.0754024,8.15064498 14.3701448,8.15064498 C13.0299473,8.15064498 13.2765797,6.29570644 10.5771332,6.29570644 C9.23762856,6.29570644 8.49565316,6.90224189 8.49565316,7.77030464 C8.49565316,8.63663544 9.55353968,8.91340399 10.4721759,9.12262588 L12.8879259,9.65884338 C15.5340278,10.2484055 16.2049925,11.7933216 16.2049925,13.2485218 C16.2049925,15.5021596 14.4751021,17.1849404 10.9837995,17.1849404 Z" fill="#E6E6E6"/>
        </g>
        <g id="email" transform="translate(12.0, 12.0)" fill="#161616">
            <path d="M7.56355881,17.3712195 L14.3074612,22.67 L21.3074612,1.66999996 L0.307461189,11.67 L4.8480018,15.2375676 L19.3074612,3.67000008 L7.56355881,17.3712195 Z"/>
        </g>
        <g id="phone" transform="translate(60.0, 12.0)" fill="#161616">
            <path d="M6.82587362,2 C5.42950996,2.03440162 4.22002554,2.46901239 3.34562947,3.34340846 C0.580252774,6.10878515 2.21366289,12.2257568 6.99395307,17.0060469 C11.7742432,21.7863371 17.8912148,23.4197472 20.6565915,20.6543705 C21.5309876,19.7799745 21.9655984,18.57049 22,17.1741264 L16.175031,15.2439527 L14.2229356,17.1960481 C12.7896735,16.3807266 11.35909,15.2959103 10.0315899,13.9684101 C8.70408972,12.64091 7.6192734,11.2103265 6.80395189,9.77706436 L8.75604727,7.82496899 L6.82587362,2 Z"/>
        </g>
        <g id="location" transform="translate(161.0, 13.0)">
            <path d="M7,23 C11.6666667,15.0410931 14,9.74977234 14,7.12603771 C14,3.19043576 10.8659932,0 7,0 C3.13400675,0 0,3.19043576 0,7.12603771 C0,9.74977234 2.33333333,15.0410931 7,23 Z" id="Oval" fill="#161616"/>
            <ellipse fill="#E6E6E6" cx="7.05072464" cy="6.95" rx="3.55072464" ry="3.5"></ellipse>
        </g>
    </g>
</svg>