<svg xmlns="http://www.w3.org/2000/svg" viewBox="0 0 540 138.7"><title>Chris</title><path d="M150.2 71.6a2.9 2.9 0 0 0-1 1.1c-.2.7 2.6-.3 3-.7a4 4 0 0 0 1.7-.7.5.5 0 0 1 .1-.3l.1-.3a1.8 1.8 0 0 1 1.5-1c.3-.5 4-2.6 4.8-2.6q-.3-.4.4-.4c.5 1 1.7-.7 2.4 0l-.2.9c-.5.3-4.1 3.8-3.4 4 1-.1 2.7-1.9 3.7-1.9l.8.6c-.3 1.5-5 5-6.5 5.3-.9 1.4 1.2 1.4.8 2.8-.4 1-3.3 1.7-3.3 2.7-1.5 2.5-4.3 2.8-5.8 5.3.6.8 2-.6 2.5-.7.4-.1-.1 2.4 0 2.4q1.4.2.4 1c-2.2.8-2.6 3.2-4.4 4.6-3 2.3-7 3.7-10.3 5.5a32.7 32.7 0 0 0-5.7 3.6c-1.4 1.3-1.5 4-4.4 4-4 3.2-12.5 6.5-17.5 6.5-8.5 4.1-22 .7-29.4-3.8a43.9 43.9 0 0 1-19-30.6c-5.2-25.4 13.9-43.4 32.4-57a5.7 5.7 0 0 1 .5-1.8 1.8 1.8 0 0 1 .5-.6c.8-3.8 3.4-5 6-7.5l.5-.3.7-.5a1.9 1.9 0 0 1 .5 0V11h.3c7.1-3.9 23-15.3 31.3-9.3 5.2 0 7-1.2 12.3.5 2.9 1 2.7.4 4.5 3.1 1.1 1.8 2.8 4.3 2.8 6.6-1 1.9 1 5.4.1 7.2-.7 1.4-1.2 1-2.2 2a38 38 0 0 1-16.1 8.5v.1a11.1 11.1 0 0 1-2.2 1.3 44.3 44.3 0 0 0-12.2 6h-.4a1 1 0 0 1-.9.6c-.5.3-2 .7-2 1.5a.3.3 0 0 0 0 .2l-.5.7a2.1 2.1 0 0 0-.7 1.2c-.1.4-1.6 2.3-2.1 2.3a13.7 13.7 0 0 1-1.5 1.4c-.5.5-1.2.7-1.7 1.2l-.3.3a.7.7 0 0 1-.3.3c-.4 0-2.8.8-3 1.3l-1.2.3a14.4 14.4 0 0 1-1.8.6q-.7-.3-.2-.6a1.1 1.1 0 0 0 .4-.6c-.7-1.2-2.4 1.5-2.9 2a.1.1 0 0 1-.1 0c0 1.4-3.5 5-3.5 2.3-5.5 4.8-8.6 16.1-8.5 23.2a4.2 4.2 0 0 1-1.2.1c-.7-3.1 0-6.4-.3-9.7-3.3 6.6 0 18 6.4 21.5a5.3 5.3 0 0 0 .8.4 9.7 9.7 0 0 0 4.4.5c1.5-.7 4.9-.3 6.5-.5a61.3 61.3 0 0 0 6.5-1.4c2.7-.7 12.5-2.3 14.3-4.7 6-1.9 11.3-5.3 17.1-7.4a34.2 34.2 0 0 0 5.7-2.4zm-60.9-7.7a7.5 7.5 0 0 0-.5 1.4.5.5 0 0 0 .3-.1 8.6 8.6 0 0 0 1-2.5 13.4 13.4 0 0 0-.8 1.2zm50.8 29.7q.2 1 1.2.5-.3-1-1.2-.5zm1.8-13.3a.7.7 0 0 0 .3.6c.3-.2.8-1.7-.3-.6zm.8 12.6c1 .4.4-2-.2-.6a.9.9 0 0 0 .2.6zm.2-12.8l.8-.4q-1-.4-.8.4zm7.8 8c-1-1.7-1.6 2.4-3.1.8q-.6.7.2.6l-2.1.5-2 .8c0 3 3.5.2 4.8-.3a5.6 5.6 0 0 1 2.4-1.4l.3-.4a1.1 1.1 0 0 0-.5-.7zm-5.1 5.5q1.2-.7-.3-.4c0 .3 0 .4.3.4zm0-19.3q-.3 1.2.9.5v-.9zm1.8 4c.4-1.4-.8-.5-1 0a1.1 1.1 0 0 0 1 0zm-.2 14.9a9 9 0 0 1 1.3-1.5c-.7 0-3.3 1.5-1.3 1.5zm.4-5.3q.4-1.2-1 .1.3.7 1 0zm6-2.5q.1 1.4-1 0 .3-.8 1 0zm1.3-11.1s3-.9 2.4-1.3c-1-.7-1.8.2-2.6.7q0 .6.2.6zm4 6.8c.5 1.2-2.6 2.4-3.4 2.6-1.3.8 2.9-2.3 3.4-2.6zm-1.3-3.6a.5.5 0 0 0-.5-.4 2.4 2.4 0 0 0-1 .4q.5 1.4 1.5 0zm1.4 3.6q.3-.7.7-.3c-.1.4-.4.5-.7.3zm-1.5 15.5q-.4-.6.4-1a1.6 1.6 0 0 1-.4 1zm1.6 3.2a.5.5 0 0 1 .6-.6q-.2 1-.6.6zm2.3-4.3c0 1-1.2 2.7-1.7 3.6-1.1-.7.9-3.8 1.5-4.3.5-1.5.3.4.2.7zm100.1-56.1a1.7 1.7 0 0 1 2.3.1c-3.6 1.9-9 .5-12.8 2l-.7.1a2.3 2.3 0 0 1-.2.6q1-.2.8.7a4.5 4.5 0 0 1-1.3.2l-.4 1.1 6.4-.5c-1.1.5-2.3.2-3.2 1.1-.6 1.4-.5 1.5-2 2.2a3.3 3.3 0 0 0-1.4.7 6.4 6.4 0 0 0-1.3.2 1.5 1.5 0 0 0 0 .8l-.2.4c-.4 1.5-1.4 3.4-1.4 5-1 2.3-2.2 4.2-2.6 6.7-2.2 3.6-3.1 8.6-4.6 12.5-1.2 3.2-4.2 7.5-4.3 10.8l-1 1.5a7 7 0 0 0-1.5 2.5c-1 .8-.8 3.1-1.2 3.4a2.7 2.7 0 0 0-1 1 7.9 7.9 0 0 0 0 3.6 3.7 3.7 0 0 1-1.5 1 1.2 1.2 0 0 1-.1 1 1.3 1.3 0 0 1-.4-1h-.3a11.7 11.7 0 0 1-1 2.5 7.4 7.4 0 0 1 1.1-1 1 1 0 0 1 .2 1c2 2-1.5 2.5-2 3v.7c.1.4-.5 2.3-1.3 1.7-.7-.5.4-2.7.8-3.1-.6.2-2.8 2.1-2.7 2.5 0-.2 1-2.9 0-2.7l-.7 1.8a1.6 1.6 0 0 1-1.4 1 1.8 1.8 0 0 1-.3.4v1a18 18 0 0 0-1.8 3q.2 1.2-1 .8a1.5 1.5 0 0 1-.8-.6 1.8 1.8 0 0 0 .8-.7c0-1.2.4-2.3.4-3.3.4-1 .3-2.8 1.1-3.6q.4-.1 0-.8v-.1c-.7.8-5 11-5.7 10.7 0-4.2 4-11 5.4-15-.8 0-2.4 5.5-2.6 5.8a1 1 0 0 0-.7-.7c-.3-.6 1.4-3.5 1.7-4.1a.4.4 0 0 1-.4-.2 7.4 7.4 0 0 1 .7-2.4h.1a17.7 17.7 0 0 0 .3-2.6c0 .5-4.1 9.2-4.3 9.2 0-1.2.5-2.5.5-3.8-1.2-1.2-1-1.3-1-3 1.4-3.6 1.8-8.3 2.2-12a1.5 1.5 0 0 1 .3-.6 4.4 4.4 0 0 0 .4-3.8.8.8 0 0 1 .2-.6c0-2.4 1.8-5.7 2.4-8a4.5 4.5 0 0 0 .4-1 1.5 1.5 0 0 1 .5-1.4v-1a1.1 1.1 0 0 1-.1-.7c-1.6 0-2 2.7-2.6 4.1v.1a1.8 1.8 0 0 1-.4.5c-.9 2.3-2.8 5-2.8 7.4-.9 2.3-1 7.2-2.7 9 0-1.4.6-2.4.6-3.6-1-2 2-11.2 2.6-13.3.8-2.9 1.4-6.5 2.4-9.3a2 2 0 0 0-1.4.3.8.8 0 0 1-.8.1 3.2 3.2 0 0 0-.3.5.3.3 0 0 1-.2-.1.1.1 0 0 1-.1-.2c-1.9-.4-3.4.7-5 .7l-.7.4a.5.5 0 0 1-.6.3 4 4 0 0 1-1.6.2.3.3 0 0 1-.4 0h-.6c-.2-.1-1.2.5-.8.3a.7.7 0 0 0-.7-.7 1 1 0 0 0-.7.4c-1 0-2-.4-2.7.6-1 .6-4.8-.3-6.5.4h-.2a62.2 62.2 0 0 1-3.6 8.2c-1.4 0-8.9 17-9.4 18-1.4 2.9-2.8 5.8-4.4 8.7-.8 1.5-4 6.6-4.6 8 .4-1.9 2.7-4 2.2-5.7-.4-1.4-4 6.8-3.9 6.8a3.7 3.7 0 0 1-1.2 1.3c-1 1-.6 2.8-1.7 4q.6 0 0 .6c-1.1-.8-1.4 1.7-2.4 1.4l-.4-1c.3-.5 1.7-6 1-5.7-1.1 1-1.3 2.6-2.2 3.6a.3.3 0 0 1-.2.2c-2 .8 1-6.2.7-7.5a2.7 2.7 0 0 1 .6-.5l.2-1.4a.7.7 0 0 0-.5-.3 1.9 1.9 0 0 0-.2.5 44.2 44.2 0 0 0-2.1 5.3c.1-.3-1.1-1.2-.7-2.3a15.2 15.2 0 0 1 2.5-7.7c-1.5-1.6 1-6.1 1-8.6l-.2.1a3 3 0 0 1-.5 1.3c.4-1-.8 2.5-1.2 1.3-.6-.1-1.3-.5 0-.8a7 7 0 0 1 .4-1.1 2.7 2.7 0 0 0-.8-1.6l-1 .3c1.4-.3.2-4-.1-4.4-.6-3.1 3.7-10 4.6-12.8.9-2.7 2.5-6 2.3-8.8-2-3.2 1-9.6 2-13 1.6-5 2.6-10 4.2-14.9a2.7 2.7 0 0 0 .4-.6v-.3l.2-.1c.2-.1 0-.3-.1-.4h.1-.2c.6.2.7-.2.4-.2a.2.2 0 0 0-.2-.1v-.1l.1-.1c2.5-5.4 3-11.2 6-16.4 1.2-2.4 3.5-7.7 6-9 .9-1.8 2-4 3.9-4.7.7-.3 2.5.5 3-.1.4 0 3.2 1.2 3.9.6l1.7.6a4.3 4.3 0 0 0 2 .7l7.5 4.6a3.6 3.6 0 0 1 .3.8 3.5 3.5 0 0 1 .8 1.3 11.4 11.4 0 0 1-.6 4c-.2 3 .6 4.8-.5 8.1-1.6 5-4 9.8-5.3 15 3.7-.7 7.5-2.2 11.3-2.2 2.6-1.3 6.8-.8 9.6-1.4a.4.4 0 0 1 .2-.3.5.5 0 0 1 .2-.4 1.9 1.9 0 0 1 .8-.8.5.5 0 0 1 0-.3c.2 0-.6-.5-.6-.4q0-.9.4-.2a.3.3 0 0 0 .5 0 1.9 1.9 0 0 0 0-1c.5-2 1-5.9 2.6-7.5a16.2 16.2 0 0 1 1.4-5.2 2 2 0 0 1 .2-1l.1-.5a1.7 1.7 0 0 0 .4-1 13.6 13.6 0 0 0 .9-2c2.5-2.8 2.8-7 5.8-9.6a27.9 27.9 0 0 1 6.1-4C249-1.4 253.4 4 258.3 6c1.1 1 .6 1.7.6 3 .8.9 1.8 2.7.8 3.7a.7.7 0 0 1-.1.5c-.6 3.4-.9 6.4-2.2 9.7l-.1.1v.1a17.9 17.9 0 0 0-1.5 5.4c-.5 1.1-.4.8-.4 1.8a2.3 2.3 0 0 0-.4 1 2.9 2.9 0 0 1-.8 1.4q0 .4-.2.7a1 1 0 0 1-.4 1.3h.4q1 .7-.7.5a3 3 0 0 1-.3.7.1.1 0 0 0-.2.1 2.8 2.8 0 0 0 1 0 1.8 1.8 0 0 1 1.6.7c0 1.2-3.2 1.4-3.8 1.4l-.6 1v.5c3.4.3 7.2-.9 10.5-.2zm-99 48.7c.6.5.6-.3.8-.6a11 11 0 0 1 .2-2.1h.1a24.9 24.9 0 0 0 1.3-4.7c-1 0-4.3 7.4-2.4 7.4zm-.4-5.7l-.1 1.3a5.6 5.6 0 0 0 1-2h-.9zm.5 15c.1.4.4-.5.4-.7-.3.2-.4.5-.4.6zM163 80s-.2 2 .6.3c0-.3-.3-.3-.6-.3zm.4 21.5h.4l.5-.9v-.1q-.8-.8-.7.2l-.2.8zm3.3 3.8a4.7 4.7 0 0 0 1.1-2v-.2c-.3-.8-3.4 2.2-1.1 2.2zm4.8-11l.7.5c1.5-.7.3-.7.3-1.3a3.8 3.8 0 0 0-1 .8zm3-4.2a.2.2 0 0 0-.2-.3q-.9 1.5.2.3zm-.5 8.6l.2-.1v-.3a.6.6 0 0 0-.2.4zm1-9.9a.7.7 0 0 0-.7-.2c0 .7.6 1.6.7.2zm-.4 8l.6.8.6-1-.6-.6zm41.3 6.1a3.8 3.8 0 0 1-.5 1.4c-1 0 .3-1.8.3-1.9zm1.5 8.5q-.9-1 .4-1c.1.5 0 .8-.4 1zm1.3-16.6a1.3 1.3 0 0 1 .4.4q.8-1-.2-1.1l-.2.7zm4 13.2l1.1-1q.2 1.3-1 1zm28.6-11c.1 0 .2 0 0 0zm.8 4.9a.6.6 0 0 1 .5-.5q0 .8-.5.5zm1.8-4.3a14 14 0 0 1-1.3 3.7c-1-.5.8-3.3 1.3-3.7zm95.7-76c.6 17.5-18 28.8-32.4 34.2l.4.5c.5 1.4 2.8 2.8 2.8 4.3 1.7 3.5 4 6.8 5.6 10.4 1.4 3.1 2.4 7 5 9.6l.3.4c.5 1-.2 2 .8 3 0 .8 1.4 1.9.4 2.7 0 1.2-.8 2.2 0 3.9 0 1.5 1.5 2.9 1.6 4.4 0 0 1 2 .8 2.2-.2 0-1.5-1.8-1.7-2a.5.5 0 0 0-.1.4c-.4.9.6 1.4.6 2.3a1.4 1.4 0 0 0 .4.8c.7 0 3.6 6.4 3.8 7 .1.3-4.1-2.5-4.7-3a1.4 1.4 0 0 0-.7-.8.9.9 0 0 0 0 .3 1 1 0 0 0-.2.5c1 .5 1.8 2 2.6 2.7.1.2 1.7 3 1.2 2.4-1 0-1.4.4-2.2-.4 0-.4-1.1-1-1.4-1.3a4 4 0 0 1 0-1.1l-.3-.3c-.7.2-.6.5-1.3-.2a6.8 6.8 0 0 1-1.5-1.1.9.9 0 0 1-.6-.5l-.3-.3a.4.4 0 0 1-.3-.2v.4a1.6 1.6 0 0 1 .5 1.1c.2-.9-8.2-6.2-9.3-7.3-2-.6-6.2-5.2-6.2-7.3a24 24 0 0 1-3.7-5.3c-.5 0-2.3-1.9-2.8-2.4 0-2-5-4.3-6-6.2-2.9 0-6.2-9.4-6.7-11.4a12.9 12.9 0 0 1-3 .7 1.2 1.2 0 0 0-1.3.5c-1.8.7-4.5-.1-6.4.4a85.2 85.2 0 0 1-4.7 10.3c0 3.5-5 10.6-6.6 13.8l-5.5 10.6c-1 1.7-4.1 5.8-4.1 7.2.2-1.2 2-3.4 1.8-4.7 0-.2-1.8 1.2-1.8 2l-1 1.5.2.7a3 3 0 0 1-1.8 2.6 2.4 2.4 0 0 0-.2 1.8c-.5.5-.8 1-1.2 1.6q.5 0 0 .4c-1-.6-1.2 1.6-2.1 1.3-.4-.2 1.1-6 .6-5.6a4.8 4.8 0 0 0-1.6 2.5.7.7 0 0 0-.3.4l-.2.3c-1.7.5.9-5.2.7-6.4l1-1c.2-1.6-1.8-.5-2-1-.6-1 .4-2.2.5-3.1.2-1.5.5-4.1 1.3-4.9a1.1 1.1 0 0 0-.1-.7v-1a1.4 1.4 0 0 0 0-.8 2.4 2.4 0 0 1 .7-.4v-.3c-.3 0-.4-.1-.4-.2-.8.4-.5 1.4-1 1.8-.3.2-1.2-1.9-1.3-2l-.9.3c-.5 0 1.2-8.3 1.9-9.2l-.3-2.1c-1-1 .7-5.3 1.3-6.2a5.8 5.8 0 0 1 .7-1.8c0-.7.4-1.4.4-2a8.7 8.7 0 0 0 .5-4.7c2.2-4.5-1-12.1 5.4-14.7a14.3 14.3 0 0 1 1.2-5.1.7.7 0 0 0 .2-.5.7.7 0 0 1 .3-.3 4.6 4.6 0 0 1 .7-2 .9.9 0 0 1 .4-.4c.5-1 0-2 .8-2.8v-.6c.6-1.1 1.4-1.4 1.4-3 .1-.2.7-1.2.4-1.5v-.3c1.5-3.2 1.6-7 3.2-10.1-1.2-2.5 1.3-.7-.3-2.3 0-1.4-4.2-.4-3.8-2.2a9.2 9.2 0 0 1 5.3-2.2 13 13 0 0 0-1.7-2.8 6.3 6.3 0 0 0-2.5 1.8 12.6 12.6 0 0 1 1.2.2c0 1.3-2.4 2-3.3 1.8-.5-.5.4-2-.3-2.8-.9-.3-.3-3.1.3-3.4l1.3.2a11.5 11.5 0 0 0-1.9-2.2l2.3-3.1c1.3-1.3 3.2-1.3 4.4-2.5 10.2-4 22.2-4.3 33.1-5a86.3 86.3 0 0 1 21.2 1c6.7 1.2 19.1 5.2 20.5 13.3 1.3 1.6 1.7 4.8 2 6.7zM255 95c.4 1.1-1.3.4-1 0zm.8-3.4a4 4 0 0 1 0-1.5l-.3.2c-.3 0-.5 0-.5-.4l-.8 1.6a.6.6 0 0 0 .7.5q1 .5.9-.4zm.3 12a1.3 1.3 0 0 0 .4-1q-1.1-.7-1 .9l.2.2zm.8-11v-.1h-.1a.1.1 0 0 0 0 .1zm1.6 14.2a2.1 2.1 0 0 0 1-1.9c-.7-1.3-2.4 2.5-1 1.9zm4.2-9.4q.6 1 1-.2c0-.8-1 0-1 .2zm2.6 2.3q.6 1.1 1-.2-.6-1.2-1 .2zm8.7-81c.3.5 1-.6 0-.3zM294.7 44a.3.3 0 0 1-.1-.3.3.3 0 0 1-.1-.2c-.9-1.2-2 .7-2.9.7a3.3 3.3 0 0 0-.4 1.4c1.1-.2 2.7-.6 3.5-1.6zm26.6-18c.4-.5-.3-1.2-.7-1.4a3.8 3.8 0 0 1-.4-.2 6.1 6.1 0 0 0-.7.1s-.6.3-.6.1a.7.7 0 0 1-.4.2v-.2a2.5 2.5 0 0 1-1-.1 26.3 26.3 0 0 1-4.7-.3l.9.3c.3.4-2.8.2-1.3-.1.1-.5-12.7-.2-14.2.6a145.7 145.7 0 0 1-5.3 15.5v.3l-.3.5a20 20 0 0 0 2.2-1.1h.1c7.7-3.8 18.9-6.6 25-12.7l.4-.4s0-.2-.2-.3a1.2 1.2 0 0 0 1.2-.8zm10.4 75.3c-.5.2 1 .8.5-.1a.8.8 0 0 0-.5.1zm57.7-92.2c-.6-1.8-3.3-5-5.2-5-3-2.5-7.5-3-11.1-3.7-.3.3-1 0-1.5.1-2.6.3-3 .9-4.6 3a46.6 46.6 0 0 0-6 11.3c-1.6 1.5-2.2 6.4-2.7 8.3-1 3.2-1.7 7.3-3.6 10a4 4 0 0 0-.6 1.2c-1.6 4.7-2.9 9.8-4.2 14.6-.6 2.2-3.3 7-2.4 8.7 0 3.4-4.5 8.5-3 12a.4.4 0 0 0 .6 0 1.1 1.1 0 0 0 .7.9c-.7 3.8-1.2 7.5-2.2 11.3-.8 2.9-2.5 7.2-2.5 10.1 0 .5 1.4-2.3 1.5-2.4a6 6 0 0 0 .4-.5c0 1-.4 4.2-1 4.9-.4 1.5-.8 3 0 3.9l-.2.6c-1.7 1.7-1.2 3.7-2.2 5.6 0 .6 0 4.7.6 4.2a65.4 65.4 0 0 0 4-12.1q.1.3.6.2c-.3.7-.2 1.4-.7 2a1.2 1.2 0 0 0 0-.5 2.4 2.4 0 0 0 0 .7c-.5.8-2 6-1.2 6.6 0 .6-.4 1.5 0 2a1.3 1.3 0 0 0-.2.6q.9 0 .8-1v-.2l.2-.6c1-1.7 1.7-3.6 2.5-5.4.3.3 1.2 1.5.7 2-1 0-.5 3.7-1.1 4.3l-.5 1.8c0 1-.3 2-.3 3.2a2.7 2.7 0 0 1-.7.6c.4.7 2.2 1.2 1.6-.2a19.2 19.2 0 0 1 1.7-2.7 3.8 3.8 0 0 0 0-.9c.4-1.4 1.5-.7 1.2-2.5a4.8 4.8 0 0 1 .8-.7 2.6 2.6 0 0 1 1.1.2.8.8 0 0 0-.7-.5c1-1 .5-.3 1.8-.3.1.1 1.3 1.3.2 1.3-.2.2-.8 2.2-.5 2.5 1 .8 1.3-1.6 1.4-2.2 1-1 3.2-1.5 1.7-3.7a2.6 2.6 0 0 1-1.5.9l-.9.4c-.3-.5.3-3.2 0-3.2s-1 3.5-1.8 2.3c-.3-.8.8-3 1.1-3.7q-.3-1.2-.2-1.3c2 0 .5 1.2 1.6 1.8.6.4 0-3.3 0-3.3a16.5 16.5 0 0 1 1.1-4l.5.1a.3.3 0 0 0 .2.1c-.3 2.2 1.2-.1 1.7.7v1c-1.2 1-.5 4.3-2 5.2h-.2l-.3.3a1 1 0 0 0 .8 1.3 3.8 3.8 0 0 0 .2 1 .6.6 0 0 0 .1-.9 5.4 5.4 0 0 0 1.4-1c0-.8-.5-4.4 1-4.4-.4.3 1.5-3.7 1.5-3.8.6-1.7.5-3.6 1.9-4.7a39 39 0 0 0 1.9-7.3c0-.5 1-3 1.3-2.4a1 1 0 0 0 0-1.2 3.6 3.6 0 0 0 .9-1.5c2.9-2.3 4.3-8.4 5.6-11.8.8-2 1.3-7 2.8-8.4 1.5-3.3 2.4-7 4-10.3 0-2.7 5.4-7.7 4.5-10a8 8 0 0 1 .3-1 2.3 2.3 0 0 0 .7-1.2c-.2-.7.4-1.2.5-1.9 2-2.7 3.3-8.3 4.4-11.5 1-3.1 2-6.7 1.7-10zm42.4-3.5c0 .2 18.4-3.5 19.5-4.2a1.3 1.3 0 0 0 1.6-.4c.7 0 1.1-.3 1.8-.2 0-.5 11-.5 12 0h.6c1.4.7 3 .5 4.5 1.3.8 2.3-1.4 1 0 2.5 0 .6 1.2.6 1.6.8 1.3 1.6 3.2.3 1.4 2.5-.7 1-5 .6-5.4 1.6.3-.7 2.9 3 2.2 2.8.4.1 2.8-1.3 2.8-1.7l-1.4-.5a.9.9 0 0 1 .1-.6h.3a4.3 4.3 0 0 1 3.4-.8 1.9 1.9 0 0 1-.2 1.5c0 .9.2 1.3.3 1.4.8.3.1 2.4.1 2.4-1 1.6-.3.8-2.1.8a25.9 25.9 0 0 0 1.8 2.5c-.3 2.2-4.7 5.5-7 5.5a39.2 39.2 0 0 1-12.9 3.4c-2.1 1-6.5 1.2-9 1.7a109.6 109.6 0 0 0-12.6 3.5c-4.2 1.4-12.2 4-15.5 7.3a.8.8 0 0 0-.4 0 5.5 5.5 0 0 0-1.3 1h-.2c6.3-2 15.7-1 22.2-.5 10.8 1 22.4 2.1 30.2 10.5 9 9.6 6.2 24.8-2.6 33.4a85.8 85.8 0 0 1-28.2 16.3c-8 3.5-16.5 6-24.9 8.3-5.9 1.7-13.3 5-19.3 5a6.6 6.6 0 0 1-1.7 0c-2.8-1-7 .5-10 1-2.5.3-5.4 1.2-8 1-.4 0-3-1.2-3.3-1 .1-.1 3-.4 2.3-1.2a3.7 3.7 0 0 1-3.5-.5c-.2-1 9.4-3.8 10.4-3.6-2.5-.5-6.3.1-8.8.3-1.8.2-5.1 0-6.8.8-.8-.1-3.9 1.3-4 .3 2.4-2.6 12.2-2.2 15.6-3.6q1.4.2 1.2-.9c-.2 0-4.1 1.1-3.4-.1a37 37 0 0 0 4.6-1.7c-.8.4-9.6 1-9.6 1.2a4 4 0 0 1 1.8-.5l1.5-1c1.6-3.9 8.2-5 12.1-6.5l.5-.4c1-.4 3.5-.2 4-1.7 2.5-.9 11.5-2.8 11.5-5-1-1.2-2 .9-3.2.6-1.8.5-4.3 1.4-6 1.4-1-.7-2.4 0-3.1.7-2.4 1-6 2.5-8.6 2.5a3.5 3.5 0 0 1 1.3-.8 4.3 4.3 0 0 0 1.8-.5c1.7-3.8 14.8-5.6 18.4-7.3 6.8-2.7 13.7-4.6 20.4-7.3 4.8-2 13.6-4.3 17.3-8a14.3 14.3 0 0 0 5.7-3l.3-.7V67c-.4-.4-.5-1-1.2-1l.2-.2c-.2 0-.2-.1 0-.3h-.2c-.2 0-1 0-.5-.2a.8.8 0 0 0 .1-.8 4.2 4.2 0 0 0-.6.3c0-.8-16-.7-16.7-.3q-.8-.8-1.4.1c-2.6 0-6.3.5-8.8-.6-1.5 0-4.5.7-5.5-.3-11.8-3-26.6-7.8-24-23.5 1.5-10.1 9.3-15.2 15.8-21.8a1.9 1.9 0 0 0 .5 0l13.2-6.7c2.7-1.4 6.6-4.5 9.7-4.5a28.2 28.2 0 0 1 5-1.3zm-24.4 55.7a5.4 5.4 0 0 0 .8.7c-.4-1.4 1-1.2 0-2.3v-.2c-3.7-1-8.9-4.6-12.2-4.6-.4 1 .6 1 1 1.5 3.4 1.3 7.2 3.3 10.4 4.9zM469 9.2q-1.1-.2 0 0z" fill="#e6e6e6"/></svg>