<svg xmlns="http://www.w3.org/2000/svg" viewBox="0 0 540 57.2"><title>Front-end Developer &amp; Motion / Graphic Designer</title><path d="M102 8l-2.2 3.7H88.5v6.8h-4V4.8q.4-3.2 4-3.8H102v3.8H90.6q-2.1 0-2.1 2.3v3.2L89.9 8zm17.6-7q3.6.6 4 3.8v5a4 4 0 0 1-2.1 3.3l2.1 5.4h-4.5l-2-5H111l2.1-3.7h4.6q2 0 2-2.1V7q0-2.3-2.1-2.3h-9v13.7h-4V1zm10.5 0h11.1q3.5.6 4 3.8v10a4.2 4.2 0 0 1-4 3.7h-11.1a4.2 4.2 0 0 1-4-3.7v-10q.5-3.2 4-3.8zm0 6v5.6q0 2.1 2 2.1h7.1q2 0 2-2V7q0-2.3-2-2.3h-7q-2.1 0-2.1 2.3zm32.6 2.4l-1.4 2.5-9.6-6v12.6h-4V1h4l11 7V1h4v17.5h-4zm6.5-8.4H187v3.8h-7v13.7h-4V4.8h-6.8zm29.3 7l-2.2 3.7h-9.6l2.2-3.8zm19.9 0l-2.2 3.7h-11.5v1q0 2 2 2h11.8l-2.2 3.8h-11.6a4.2 4.2 0 0 1-4-3.7v-10q.5-3.2 4-3.8h13.8v3.8h-11.7q-2 0-2 2.3v3.2L206 8zM236 9.4l-1.4 2.5-9.7-6v12.6h-4V1h4l11 7V1h4.1v17.5h-4zm6.6-8.4h15q3.6.6 4.1 3.8v10a4.2 4.2 0 0 1-4 3.7H249l2.2-3.8h4.5q2 0 2-2V7q0-2.3-2-2.3h-9v13.7h-4.1zm32.6 0h15.1q3.5.6 4 3.8v10a4.2 4.2 0 0 1-4 3.7h-8.7l2.2-3.8h4.5q2 0 2-2V7q0-2.3-2-2.3h-9v13.7h-4.1zm39.3 7l-2.2 3.7h-11.5v1q0 2 2 2h11.7l-2.2 3.8h-11.5a4.2 4.2 0 0 1-4-3.7v-10q.4-3.2 4-3.8h13.7v3.8h-11.7q-2 0-2 2.3v3.2L302 8zm6.8-7l5.5 13.8L332.3 1h4.7l-7 17.5h-6.4l-7-17.5zm35 7l-2.2 3.7h-11.6v1q0 2 2 2h11.8l-2.2 3.8h-11.6a4.2 4.2 0 0 1-4-3.7v-10q.5-3.2 4-3.8h13.8v3.8h-11.7q-2 0-2 2.3v3.2l1.3-2.4zm6.5-7v11.6q0 2.1 2 2.1h10.5l-2.2 3.8h-10.3a4.2 4.2 0 0 1-4-3.7V1zm18.6 0h11.1q3.6.6 4 3.8v10a4.2 4.2 0 0 1-4 3.7h-11a4.2 4.2 0 0 1-4.1-3.7v-10q.5-3.2 4-3.8zm0 6v5.6q0 2.1 2 2.1h7.1q2 0 2-2V7q0-2.3-2-2.3h-7q-2 0-2 2.3zM399 1h15.1q3.6.6 4 3.8v5a4.2 4.2 0 0 1-4 3.8h-8.6l2.1-3.8h4.5q2 0 2-2.1V7q0-2.3-2-2.3h-9v13.7H399zm39.3 7l-2.2 3.7h-11.5v1q0 2 2 2h11.7l-2.2 3.8h-11.5a4.2 4.2 0 0 1-4-3.7v-10q.4-3.2 4-3.8h13.7v3.8h-11.7q-2 0-2 2.3v3.2L426 8zm17.6-7q3.5.6 4 3.8v5a4 4 0 0 1-2.2 3.3l2.2 5.4h-4.5l-2.1-5h-6l2-3.7h4.6q2 0 2-2.1V7q0-2.3-2-2.3h-9v13.7h-4.1V1zM69.7 31.6l-5.5 13.8H58l-5.6-13.8v13.8h-4V28h7.2L61 41.6 66.6 28h7.2v17.5h-4zm10.6-3.7h11q3.6.6 4 3.8v10a4.2 4.2 0 0 1-4 3.7h-11a4.2 4.2 0 0 1-4-3.7v-10q.4-3.2 4-3.8zm0 6v5.6q0 2.1 2 2.1h7.1q2 0 2-2.1v-5.6q0-2.2-2-2.2h-7q-2.1 0-2.1 2.2zm17.5-6h17.6v3.8h-6.8v13.7h-4V31.7h-6.8zm20.1 0h4v17.5h-4zm10.5 0h11.1q3.6.6 4 3.8v10a4.2 4.2 0 0 1-4 3.7h-11a4.2 4.2 0 0 1-4-3.7v-10q.4-3.2 4-3.8zm0 6v5.6q0 2.1 2 2.1h7.2q2 0 2-2.1v-5.6q0-2.2-2.1-2.2h-7q-2 0-2 2.2zm32.6 2.3l-1.3 2.6-9.7-6v12.6h-4V28h4l11 6.9v-7h4.1v17.6h-4zm29.8-8.3L177 45.4h-5.3L185.6 28zm13.1 6.8h8.6a4.4 4.4 0 0 1 4 3.8v3.2a4.2 4.2 0 0 1-4 3.7h-11a4.2 4.2 0 0 1-4.1-3.7v-10q.5-3.2 4-3.8h15.1l-2.2 3.8h-10.8q-2 0-2 2.2v5.6q0 2.1 1.9 2.1h7.1q2 0 2-1.5a1.4 1.4 0 0 0-.5-1.2 3 3 0 0 0-1.6-.4h-4.3zm30.1-6.8q3.6.6 4 3.8v5a4 4 0 0 1-2 3.2l2 5.5h-4.5l-2-5h-6l2-3.8h4.6q2 0 2-2v-.7q0-2.2-2.1-2.2h-9v13.7h-4V28zm17.3 17.5h-11l7-17.5h6.3l7 17.5h-4.8l-5.4-13.7-4 9.9h7zm11.4-17.5h15a4.4 4.4 0 0 1 4.1 3.8v5a4.2 4.2 0 0 1-4 3.8H269l2.2-3.9h4.5q2 0 2-2v-.7q0-2.2-2-2.2h-9v13.7h-4.1zm36.6 8.3l-1.4 2.4h-9.7v6.8h-4V28h4v9.3l1.4-2.4h9.7v-7h4v17.6h-4zm6.6-8.3h4v17.5h-4zm10.5 11.6q0 2.1 2 2.1h11.8l-2.2 3.8h-11.6a4.2 4.2 0 0 1-4-3.7v-10q.5-3.2 4-3.8h13.8v3.8h-11.7q-2 0-2 2.2zm27.2-11.6h15.2a4.4 4.4 0 0 1 4 3.8v10a4.2 4.2 0 0 1-4 3.7H350l2.2-3.8h4.5q2 0 2-2.1v-5.6q0-2.2-2.1-2.2h-9v13.7h-4zm39.4 6.9l-2.3 3.8h-11.5v.9q0 2.1 2 2.1H383l-2.2 3.8h-11.6a4.2 4.2 0 0 1-4-3.7v-10q.5-3.2 4-3.8H383v3.8h-11.7q-2 0-2 2.2v3.3l1.3-2.4zm4.6 6.8h10.8a3 3 0 0 0 1.6-.3 1.4 1.4 0 0 0 .5-1.3 1.2 1.2 0 0 0-.5-1 2.7 2.7 0 0 0-1.5-.4h-9a4.2 4.2 0 0 1-4.1-3.8v-3.1q.5-3.2 4-3.8h15.1v3.8h-13a3 3 0 0 0-1.6.3 1.4 1.4 0 0 0-.5 1.3q0 1.5 2 1.5h9.1q3.6.5 4 3.7v3.1q-.4 3.2-4 3.8h-15.1zM407 27.9h4v17.5h-4zm13 6.8h8.6a4.4 4.4 0 0 1 4 3.8v3.2a4.2 4.2 0 0 1-4 3.7h-11a4.2 4.2 0 0 1-4-3.7v-10q.4-3.2 4-3.8h15l-2.2 3.8h-10.8q-2 0-2 2.2v5.6q0 2.1 2 2.1h7q2 0 2-1.5a1.4 1.4 0 0 0-.5-1.2 3 3 0 0 0-1.5-.4h-4.4zm30.1 1.5l-1.4 2.5-9.6-5.9v12.6h-4V28h4l11 6.9v-7h4v17.6h-4zm24.3-1.4l-2.2 3.8h-11.5v.9q0 2.1 2 2.1h11.7l-2.2 3.8h-11.5a4.2 4.2 0 0 1-4-3.7v-10q.4-3.2 4-3.8h13.7v3.8h-11.7q-2 0-2 2.2v3.3l1.4-2.4zm17.6-6.9q3.5.6 4 3.8v5a4 4 0 0 1-2.2 3.2l2.2 5.5h-4.5l-2.1-5h-6l2-3.8h4.6q2 0 2-2v-.7q0-2.2-2-2.2h-9v13.7h-4.1V28z" fill="#ffd200"/></svg>