<svg xmlns="http://www.w3.org/2000/svg" viewBox="0 0 540 77.2"><title>Hey! My name is</title><path d="M183.9 15.7h.2a.4.4 0 0 1 .2 0 .2.2 0 0 1 .2 0 2 2 0 0 0 .2.2.5.5 0 0 1 .3.5 2.8 2.8 0 0 1-.5 1l-2.5 3.9q-4.6 7-8.2 13L167.4 45a.3.3 0 0 0 0 .1.1.1 0 0 1-.2.2l-.3-.1-.6.1h-.7l-1.2.2q-1 0-1-.7a1.9 1.9 0 0 1 .1-.7q.7-1.5 6.4-11l-7.5.1H158l-3 5a70.8 70.8 0 0 1-4.4 7 1.8 1.8 0 0 1-.4.1.4.4 0 0 1-.3-.2l-.2-.2a.7.7 0 0 0-.2.1 1 1 0 0 1-.5.1h-.5l-.1-.1h-.2q-1 0-1-.7a3.4 3.4 0 0 1 .4-1.3 15.2 15.2 0 0 1 1-1.7q.5-1 2.9-4.5t2.3-3.6h-.9a9.1 9.1 0 0 1-1.5 0q-1.1-.3-1.6-2a4.4 4.4 0 0 1-.2-1.1c0-.4.2-.6.5-.6l.5.2h2l2.2.1h1.2q2.7-4.2 6.4-9.5a9.3 9.3 0 0 1-6 2.2 4.8 4.8 0 0 1-2.7-.7 2.2 2.2 0 0 1-1.1-2 2.2 2.2 0 0 1 .8-1.7 2.7 2.7 0 0 1 1.7-.7q.8 0 .8.2s-.1.2-.3.2-.2.2-.2.2q0 .4.8.6a4.8 4.8 0 0 0 1.6.3 6.2 6.2 0 0 0 2.2-.6 21 21 0 0 0 2.7-1.3l3.1-2a2.8 2.8 0 0 1 1.3-.3 2 2 0 0 1 .8.2 1.4 1.4 0 0 1 .4.2 2.7 2.7 0 0 1 .3.4 1.6 1.6 0 0 0 .2.3.3.3 0 0 1 .2.3 1.2 1.2 0 0 1-.2.4l-1.6 2.5-3.6 5.6-3.3 5 12-.1 8.1-12.9a2.6 2.6 0 0 1 .8-.8 1.8 1.8 0 0 1 .9-.2zm23.5 22.9a.7.7 0 0 0-.5.2l-8.8 7.8q2-4 7.1-12.7l2-3.3a1.2 1.2 0 0 0 0-.5.7.7 0 0 0-.1-.4 3.2 3.2 0 0 1-.3-.3 1.3 1.3 0 0 0-.6-.3 4.4 4.4 0 0 0-.9 0 .7.7 0 0 0-.5.1l-.3.2a2 2 0 0 0-.2.3l-.3.4-.3.4c0 .2-.2.3-.3.4l-.3.4a36.2 36.2 0 0 1-4 5 46.1 46.1 0 0 1-4.2 4 6.4 6.4 0 0 1-2.5 1.6.1.1 0 0 1-.2 0 .2.2 0 0 1 0-.1 27.3 27.3 0 0 1 2.7-5.6 28.5 28.5 0 0 0 2.7-5.5 1.4 1.4 0 0 0-.5-1.1 1.7 1.7 0 0 0-1-.5c-.3 0-.5.2-.8.6l-1.2 2.2a30.2 30.2 0 0 1-1.5 2.6l-1.7 3-.7 1.1a.4.4 0 0 0-.1 0 1 1 0 0 0-.5.2l-1.5 1.2a27.9 27.9 0 0 1-2.7 2 6.6 6.6 0 0 1-3.6 1q-2.7 0-2.7-1.6 0-.9 4.3-3.3a7.1 7.1 0 0 1 1-.4 3.8 3.8 0 0 0 1.2-.7q.5-.4.5-.7a1.6 1.6 0 0 0-.3-.8 1.8 1.8 0 0 0-.6-.6 2 2 0 0 0-.5 0 5.4 5.4 0 0 0-1.4.3 5.3 5.3 0 0 1-1.5.3l-.5-.1q0-.5 1.3-1.5a20.7 20.7 0 0 1 2.2-1.5 9.6 9.6 0 0 1 1.7-.8 2.8 2.8 0 0 0 0 .7 1 1 0 0 0 0 .5.7.7 0 0 0 .7.3 3.6 3.6 0 0 0 2.5-1 3.2 3.2 0 0 0 1-2.5 1 1 0 0 0-.6-.9 3.2 3.2 0 0 0-1.4-.3 14 14 0 0 0-6.5 2 9.1 9.1 0 0 0-2.7 2.2 4 4 0 0 0-1.2 2.5 5 5 0 0 0 .3 1.8 1.8 1.8 0 0 0 1 .9q-4 1.4-4 4.3a3.4 3.4 0 0 0 2.3 3.2 8.1 8.1 0 0 0 3.4.6 12.6 12.6 0 0 0 7.3-2.8v.3a2 2 0 0 0 .7 1.9 2.8 2.8 0 0 0 1.6.5h.2a6.4 6.4 0 0 0 3.2-1.5 33 33 0 0 0 3.7-3.5l-3.1 5.8-1.5 1.5a25 25 0 0 0-2.2 2.4 9.1 9.1 0 0 0-2.3 5.2 1.7 1.7 0 0 0 1.9 2l.7-.1a3 3 0 0 0 1.5-1 10 10 0 0 0 1.5-1.8l1.1-1.9a9 9 0 0 1 .6-1 94.4 94.4 0 0 1 11.6-10.6 1 1 0 0 0 .2-.8q0-2-.6-2zm.9 6.5a3.2 3.2 0 0 1 1-2.4 3.3 3.3 0 0 1 2.3-1 1 1 0 0 1 1.2.9 1 1 0 0 1 0 .3 3.5 3.5 0 0 1-1 2.3 3.2 3.2 0 0 1-2.4 1.2q-1.1 0-1.2-1.3zm20.2-31l1.6.1c.3 0 .5.1.5.3a1 1 0 0 1-.1.3q-6.4 9.4-14.2 22a1.7 1.7 0 0 1-.9 1 .4.4 0 0 1-.2 0 2 2 0 0 1-.7.2 1 1 0 0 0-.6.1 1.1 1.1 0 0 1-.6.1.7.7 0 0 1-.8-.6.7.7 0 0 1 0-.2q0-1.3 3.5-7t7-10.5a38.1 38.1 0 0 1 4.3-5.7 2.2 2.2 0 0 1 1.2-.2zm32 23.4l.2.7a2 2 0 0 1-.5 1.2 23.9 23.9 0 0 1-4.4 4q-3 2.4-4.4 2.4a3 3 0 0 1-2.2-.9 2.7 2.7 0 0 1-.8-1.9q0-1.2 2.6-5.6 4-6.5 10.3-15.2l-7 7.4q-12.6 13.1-14.7 14.9a1.6 1.6 0 0 1-1 .3 2.4 2.4 0 0 1-1.5-.6 1.5 1.5 0 0 1-.7-1.2 62.2 62.2 0 0 1 4-8.5q3.9-7.6 6.5-12.1-3.9 4.2-7.9 9.5a114 114 0 0 0-11 17c-.2.5-.5.7-.8.7a5.8 5.8 0 0 1-1.3-.2q-1.8-.5-1.8-1.7 0-.8 3-5.3t7-10q4-5.4 8.3-10.4 6-7 7.6-7a1 1 0 0 1 .5.2 1 1 0 0 0 .3.1.2.2 0 0 0 .2 0 1.3 1.3 0 0 1 1-.4 4 4 0 0 1 1.6.3c.5.3.7.5.7.7a34.3 34.3 0 0 1-2 4q-7 12.2-9.3 16.8 2.3-2.8 6.5-7.3t8.8-9q6-5.9 7.2-5.9a4.6 4.6 0 0 1 1.2.2 8.8 8.8 0 0 0 2.5.4 1.1 1.1 0 0 1 .5.3.6.6 0 0 1 .3.4.5.5 0 0 1-.2.4q-6.6 8.9-11.2 15.7a79 79 0 0 0-5.7 9.2q2.2-.5 6.5-5.2a3.7 3.7 0 0 1 .2-.3 1.4 1.4 0 0 0 .2-.2q.3-.4.5.5l.1.8v.4a2.8 2.8 0 0 1 .1.4zm7.3 14.4a9.2 9.2 0 0 0-.6 1l-1.1 2a10 10 0 0 1-1.5 1.7 3 3 0 0 1-1.5 1h-.7a1.7 1.7 0 0 1-2-1.4 1.7 1.7 0 0 1 0-.5 9.1 9.1 0 0 1 2.4-5.2A25 25 0 0 1 265 48l1.5-1.5 3-5.8a33.3 33.3 0 0 1-3.6 3.5 6.4 6.4 0 0 1-3.2 1.5h-.2a2.8 2.8 0 0 1-1.6-.5 2 2 0 0 1-.7-1.8 7.5 7.5 0 0 1 1-3.8l1.3-2.2 1.7-3q.7-1 1.5-2.6t1.2-2.1c.3-.5.5-.7.8-.7a1.7 1.7 0 0 1 1 .5 1.4 1.4 0 0 1 .5 1 28.3 28.3 0 0 1-2.7 5.6 27.3 27.3 0 0 0-2.7 5.6.1.1 0 0 0 .2.2 6.4 6.4 0 0 0 2.5-1.6 46.1 46.1 0 0 0 4.2-4 36.2 36.2 0 0 0 4-5l.3-.5.3-.4.3-.4.3-.4a2 2 0 0 1 .2-.3c.1 0 .2 0 .3-.2a.7.7 0 0 1 .5-.2 4.4 4.4 0 0 1 .9.2 1.4 1.4 0 0 1 .6.2 3 3 0 0 0 .3.3.7.7 0 0 1 .2.4 1.2 1.2 0 0 1-.2.5l-2 3.3q-5 8.7-7 12.7 3.1-2.6 8.8-7.8a.7.7 0 0 1 .5-.2q.6 0 .6 2a1 1 0 0 1-.2.7A94.5 94.5 0 0 0 267.8 52zM378.3 26a3.1 3.1 0 0 0 2.3-1.2 3.5 3.5 0 0 0 1-2.4 1.1 1.1 0 0 0-.3-.8 1.2 1.2 0 0 0-.8-.3 3.1 3.1 0 0 0-2.3 1 3.4 3.4 0 0 0-1 2.4q0 1.3 1.1 1.3zm15 2.4q-.5-1-2.8-1a15.6 15.6 0 0 0-5.7 1.5 21.7 21.7 0 0 0-3.3 1.6 9.3 9.3 0 0 0-2.5 2.3 4.4 4.4 0 0 0-1 2.7 2.3 2.3 0 0 0 1 2 4.7 4.7 0 0 0 .9.5 10.7 10.7 0 0 0 1.2.4q.7.3 2.3.6a21.6 21.6 0 0 1 2.4.7q.7.2.7.6 0 .7-2 1.5a12 12 0 0 1-4.3.7 1.1 1.1 0 0 1-.7-.4 1.2 1.2 0 0 1-.4-.8v-.4c0-.2-.3-.4-.8-.4q0-2-.5-2a10.2 10.2 0 0 0-2.2 2.1 9.2 9.2 0 0 1-1.8 1.5 3.7 3.7 0 0 1-2 .6c-.6 0-.9-.2-.9-.7a3.3 3.3 0 0 1 .4-1.4l.4-.6.4-.7.4-.6a90 90 0 0 0 4.9-8.9 1.7 1.7 0 0 0-.5-1 1.5 1.5 0 0 0-1.2-.6 3.7 3.7 0 0 0-1.9.9 14.8 14.8 0 0 0-2 1.8l-1 1.1c0 .2.2.4.5.7l.4.6a13.7 13.7 0 0 1-1.1 2l-2.3 4a8 8 0 0 0-1.1 3.3 3 3 0 0 0 1.2 2.2 4 4 0 0 0 2.8 1.1 8 8 0 0 0 3.8-1.3 8.8 8.8 0 0 0 1.4-1 2.3 2.3 0 0 0 1 1.5 5.6 5.6 0 0 0 3.3.7 13.5 13.5 0 0 0 5.8-1.6 8.2 8.2 0 0 0 2.6-2 3.7 3.7 0 0 0 1-2.4 2.7 2.7 0 0 0-.5-1.4 4.3 4.3 0 0 0-1.8-1.4 30.4 30.4 0 0 0-5.6-1.5q-1-.2-1-.5c0-.2.3-.5.7-1a14.5 14.5 0 0 1 1.8-1.3 13 13 0 0 1 2.5-1.2 9.2 9.2 0 0 1 2.9-.7 1.5 1.5 0 0 1-.3.6.8.8 0 0 0-.2.5l.1.3a.6.6 0 0 1 .3.2.8.8 0 0 0 .3.2 2 2 0 0 0 .7.1 3.9 3.9 0 0 0 1.6-.5 4 4 0 0 0 1.4-1.1 2.8 2.8 0 0 0 .5-1.7v-.2a1.8 1.8 0 0 0-.2-.8zm-33.7 10.2a1 1 0 0 0-.5.2l-1.5 1.2a28 28 0 0 1-2.7 2 6.6 6.6 0 0 1-3.5 1q-2.8 0-2.8-1.6 0-.9 4.4-3.3a7.1 7.1 0 0 1 .9-.4 3.8 3.8 0 0 0 1.2-.7c.4-.3.5-.5.5-.7a1.6 1.6 0 0 0-.3-.8 1.8 1.8 0 0 0-.6-.6 2 2 0 0 0-.5 0 5.4 5.4 0 0 0-1.4.3 5.3 5.3 0 0 1-1.5.3l-.5-.1q0-.5 1.4-1.5a20.4 20.4 0 0 1 2.2-1.5 9.5 9.5 0 0 1 1.6-.8 2.8 2.8 0 0 0 0 .7 1 1 0 0 0 0 .5.7.7 0 0 0 .7.3 3.6 3.6 0 0 0 2.5-1 3.2 3.2 0 0 0 1-2.5 1 1 0 0 0-.6-.9 3.2 3.2 0 0 0-1.4-.3 14 14 0 0 0-6.5 2 9.1 9.1 0 0 0-2.7 2.2 4 4 0 0 0-1.1 2.5 5 5 0 0 0 .2 1.8 1.8 1.8 0 0 0 1 .9 9.1 9.1 0 0 0-2 1 22.3 22.3 0 0 0-2.6 2 13.5 13.5 0 0 1-1.6 1.2 3.4 3.4 0 0 1-1.4.6 1.6 1.6 0 0 1-.9 0q-.3-.3-.3-1.2a10 10 0 0 1 1.6-3.3l3.4-5.2a9.8 9.8 0 0 0 1.6-3.3 1.6 1.6 0 0 0-.5-1.2 1.9 1.9 0 0 0-1.3-.5 8.4 8.4 0 0 0-4.5 1.4 16.3 16.3 0 0 0-2 1.5l-1.8 1.8-1.7 1.9-1.7 1.7.6-.7.6-.8.6-.7a6.4 6.4 0 0 0 .6-.9l.4-.8a3.8 3.8 0 0 0 .3-1 5.6 5.6 0 0 0 .1-1 1.8 1.8 0 0 0-.5-1.3 2 2 0 0 0-1.6-.6 7.6 7.6 0 0 0-3.3 1.4 28.6 28.6 0 0 0-5.1 4.4l1-1.3 1.6-2a7.3 7.3 0 0 0 .8-1.2 1.6 1.6 0 0 0 .2-.6q0-.8-.5-.8a5.7 5.7 0 0 0-1.8.3 2.5 2.5 0 0 0-1.3.8 78.5 78.5 0 0 0-6.3 11l-.5.5a10.6 10.6 0 0 1-1.5 1.2 2.7 2.7 0 0 1-1.4.6q-.6 0-.6-1.1a2 2 0 0 1 0-.6 18.3 18.3 0 0 1 1.4-4q1-2.4 2-3.9a12.6 12.6 0 0 1 1-1.8 1.1 1.1 0 0 0 .3-.8q0-1.1-1.5-1.1a2.1 2.1 0 0 0-1 .2 3 3 0 0 0-.9 1 1.7 1.7 0 0 0-.9-1 3.9 3.9 0 0 0-1.8-.4 10.6 10.6 0 0 0-6.3 2.7 21.8 21.8 0 0 0-3 2.9 13.5 13.5 0 0 0-2.2 3.4 9.7 9.7 0 0 0-.7 2.5 12.3 12.3 0 0 1-1.8 1.4 3.3 3.3 0 0 1-1.6.7q-1.3 0-1.3-1a3.4 3.4 0 0 1 .3-1.1l.3-.7.5-.8.4-.8.5-.7c.1-.4.3-.6.4-.7l.3-.6c.1-.3.3-.4.4-.5l.8-1.1 1.1-1.8a16.2 16.2 0 0 0 .9-1.5 3.5 3.5 0 0 0 .4-1.5 1.5 1.5 0 0 0-.5-1.2 2.2 2.2 0 0 0-1.6-.5 5.5 5.5 0 0 0-2.1.5 19.7 19.7 0 0 0-6 5l.8-1.3a9 9 0 0 0 1.8-3.6q0-.6-.5-.6a3.8 3.8 0 0 0-3.1 1.1 17.2 17.2 0 0 0-1.3 2l-2.2 3.8-2.9 4.8-1.2 2.1-.4.7a5 5 0 0 0-.3.6 1.7 1.7 0 0 0-.2.6.4.4 0 0 0 .2.4 5 5 0 0 0 1 .4 3.5 3.5 0 0 0 1 .3q.5 0 1.2-.9 2.4-3.2 4.2-5.2t4.4-4.5q2.7-2.6 3.4-2.7a8.3 8.3 0 0 1-1.1 2l-1.8 2.8a21.2 21.2 0 0 0-1.4 3 8 8 0 0 0-.7 3 2.9 2.9 0 0 0 1 2.2 3.4 3.4 0 0 0 2.2 1 5.9 5.9 0 0 0 2-.3 11.1 11.1 0 0 0 2.8-1.8 3.3 3.3 0 0 0 .8 1.1 3.2 3.2 0 0 0 2.2.9 7 7 0 0 0 3.7-1.6 17.7 17.7 0 0 0 3.9-3.7 5.3 5.3 0 0 0-.4 2.1 3.6 3.6 0 0 0 .7 2.3 2.9 2.9 0 0 0 2.5 1 5 5 0 0 0 2.7-1 1.4 1.4 0 0 0 .5.3h1.3c.2 0 .4-.1.8-.5a9.8 9.8 0 0 0 .7-1 45.8 45.8 0 0 1 8-9.9q2-1.8 2.6-1.8c.4 0 .6.2.6.5a40.5 40.5 0 0 1-3.3 6.1l-3.3 5.8c0 .3.3.5.7.6a4.1 4.1 0 0 0 1.4.3 1.1 1.1 0 0 0 1-.4l3.4-4.4a77.1 77.1 0 0 1 6.5-6.8q2.2-2 2.9-2h.2a8.8 8.8 0 0 1-1 1.4l-2 2.7a23.6 23.6 0 0 0-1.9 3.4 7.7 7.7 0 0 0-.9 3.2 3.4 3.4 0 0 0 .8 2.3 4.3 4.3 0 0 0 3 1.2 2 2 0 0 0 .3 0 6.3 6.3 0 0 0 4-1.7l.6-.6a3.8 3.8 0 0 0 2 1.8 8.1 8.1 0 0 0 3.3.5q4 0 8.4-3.5a2.6 2.6 0 0 0 .8-1 5.5 5.5 0 0 0 .1-1.6q0-1.1-.5-1.1zm-47.1-1.9a31.8 31.8 0 0 1-3.5 3.4 10 10 0 0 1-3.2 2.3c-.3 0-.4-.3-.4-.8a7 7 0 0 1 1.1-2.6 17.2 17.2 0 0 1 2.5-3.4q3.7-4 7.3-4-2.8 4-3.8 5.1z" fill="#d90077"/><path d="M182 57q-19.2 2-38.4 5m58.4-7q26.1-2 52.3-2.5m20.6 0a780 780 0 0 1 112.8 9.6" fill="none" stroke="#ffd200" stroke-linecap="round" stroke-miterlimit="10" stroke-width="2"/></svg>