<svg xmlns="http://www.w3.org/2000/svg" viewBox="0 0 135.567 128">
    <defs>
        <style>
            .fill--grey {
                fill: #686868;
            }
        </style>
    </defs>
    <title>Unicorn Origami</title>
    <g class="fill--grey">
        <polygon points="107.747 28.646 112.233 16.888 125.894 29.859 124.687 42.347 107.747 28.646"/>
        <polygon points="128.734 5.508 114.882 18.024 112.832 16.078 128.734 5.508"/>
        <polygon points="102.655 66.423 84.486 53.267 88.613 34.05 102.137 18.316 111.25 16.659 106.654 28.754 102.655 66.423"/>
        <polygon points="78.244 82.979 84.26 54.337 102.023 67.2 91.931 71.111 102.137 120.994 71.72 81.464 78.244 82.979"/>
        <polygon points="68.557 67.425 83.135 54.827 77.616 81.103 68.557 67.425"/>
        <polygon points="76.106 45.721 83.212 53.439 69.002 65.719 76.106 45.721"/>
        <polygon points="71.306 80.342 73.675 76.963 76.749 81.605 71.306 80.342"/>
        <polygon points="62.412 55.14 74.904 46.117 69.108 62.433 62.412 55.14"/>
        <polygon points="35.464 62.37 65.639 51.576 60.914 54.987 68.729 63.499 67.343 67.401 72.756 75.575 70.677 75.575 63.595 68.56 35.464 62.37"/>
        <polygon points="69.931 48.475 68.553 49.471 37.797 60.474 64.106 43.93 69.931 48.475"/>
        <polygon points="48.856 46.921 54.747 48.635 36.642 60.018 48.856 46.921"/>
        <polygon points="71.603 76.575 69.268 77.765 38.377 64.035 63.097 69.474 70.264 76.575 71.603 76.575"/>
        <polygon points="3.334 74.237 33.851 47.838 45.132 47.466 45.132 49.448 32.814 62.657 55.097 72.562 43.427 84.561 27.912 78.506 30.574 67.237 3.334 74.237"/>
        <polygon points="27.681 79.489 42.681 85.343 20.911 108.393 27.681 79.489"/>
    </g>
</svg>