<svg id="ckn-geo" data-name="ckn-geo" xmlns="http://www.w3.org/2000/svg" viewBox="0 0 540 10">
  <defs>
    <style>
      .fill-white {
        fill: #e6e6e6;
      }
    </style>
  </defs>
  <title>based in NYC</title>
  <g class="fill-white">
    <g>
      <path class="fill-white" d="M212.943.683h7.412c1.8,0,2.3.935,2.3,1.93v.743c0,.624-.347,1.26-1.4,1.368v.048c.924.048,1.738.4,1.738,1.715V7.519c0,1.21-1.08,1.846-2.517,1.846h-7.534Zm8.539,1.87c0-.791-.875-.911-1.234-.911h-6.129v2.77h6.069c.636,0,1.294-.2,1.294-1.067Zm.336,4.066c0-1.079-.6-1.247-1.666-1.247h-6.033V8.406h6.213c1.092,0,1.486-.4,1.486-1.164Z"/>
      <path class="fill-white" d="M229.3.683h1.463l5.158,8.682h-1.332L233.508,7.53h-6.957l-1.08,1.835h-1.33Zm.732.959-2.914,4.929h5.828Z"/>
      <path class="fill-white" d="M237.059,6.631h1.1v.611c0,.852.455,1.26,1.918,1.26h3.647c1.7,0,2.207-.359,2.207-1.608,0-1.09-.432-1.367-1.9-1.367h-2.232c-3.586,0-4.76-.216-4.76-2.518,0-1.979,1.174-2.423,3.6-2.423h2.529c2.916,0,3.646.744,3.646,2.291v.3h-1.1c-.024-1.379-.168-1.631-3.25-1.631h-1.246c-2.268,0-3.071.12-3.071,1.547,0,1.031.323,1.379,2.159,1.379h3.478c2.289,0,3.25.66,3.25,2.135v.564c0,2.135-1.752,2.29-3.49,2.29h-3.262c-1.717,0-3.226-.3-3.226-2.194Z"/>
      <path class="fill-white" d="M249,.683h8.527v.959h-7.351v2.77h7.062v.96h-7.062V8.406h7.4v.959H249Z"/>
      <path class="fill-white" d="M259.348.683h7.015c2.914,0,3.707.911,3.707,4.34,0,3.191-.793,4.342-3.742,4.342h-6.98ZM268.9,4.6c0-2.506-.78-2.962-2.219-2.962h-6.153V8.406h5.961c1.426,0,2.411-.312,2.411-2.915Z"/>
      <path class="fill-white" d="M277.971.683h1.175V9.365h-1.175Z"/>
      <path class="fill-white" d="M281.27.683h1.751l7.952,7.627V.683h1.175V9.365H290.4l-7.951-7.628V9.365H281.27Z"/>
      <path class="fill-white" d="M300.1.683h1.752L309.8,8.31V.683h1.176V9.365h-1.752l-7.952-7.628V9.365H300.1Z"/>
      <path class="fill-white" d="M317.531,5.7,312.555.683h1.582l3.982,4.029L322.1.683h1.582L318.707,5.7v3.67h-1.176Z"/>
      <path class="fill-white" d="M324.627,3.837c0-2.2.742-3.251,3.094-3.251h4.5c2.135,0,2.722,1,2.722,2.159v.743h-1.033V3.093c0-1.475-.91-1.547-1.99-1.547H327.84c-1.127,0-2.039.336-2.039,1.847V6.655c0,1.511.912,1.847,2.039,1.847h4.113c1.584,0,2.039-.336,2.039-1.511v-.54h1.1v.588c0,1.571-.5,2.422-2.938,2.422h-4.437c-2.352,0-3.094-1.055-3.094-3.25Z"/>
    </g>
  </g>
</svg>
