<svg id="ckn-skills" data-name="ckn-skills" xmlns="http://www.w3.org/2000/svg" viewBox="0 0 540 42">
    <defs>
        <style>
          .fill-yellow {
            fill: #ffd200;
          }
        </style>
    </defs>
    <title>Front-end Developer &amp; Motion / Graphic Designer</title>
    <g>
      <g>
        <path class="fill-yellow" d="M120.435,6.74l-1.93,3.413H108.382v6.068H104.8V3.972q.418-2.824,3.58-3.412H120.49V3.972H110.228q-1.846,0-1.846,2.014V8.894l1.23-2.154Z"/>
        <path class="fill-yellow" d="M136.151.56q3.161.588,3.579,3.412V8.447a3.546,3.546,0,0,1-1.928,2.88l1.9,4.894h-4.027L133.83,11.8h-5.4l1.929-3.413h4.028q1.761,0,1.761-1.873V5.986q0-2.014-1.845-2.014h-8.027V16.221h-3.607V.56Z"/>
        <path class="fill-yellow" d="M145.478.56h9.9q3.159.588,3.579,3.412v8.893a3.736,3.736,0,0,1-3.579,3.356h-9.9a3.737,3.737,0,0,1-3.581-3.356V3.972Q142.317,1.148,145.478.56Zm0,5.426v4.949q0,1.875,1.761,1.874h6.376q1.762,0,1.762-1.874V5.986q0-2.014-1.846-2.014h-6.208Q145.478,3.972,145.478,5.986Z"/>
        <path class="fill-yellow" d="M174.586,8.027l-1.259,2.237-8.585-5.285V16.221h-3.58V.56h3.58l9.844,6.18V.56h3.607V16.221h-3.607Z"/>
        <path class="fill-yellow" d="M180.375.56h15.717V3.972h-6.069V16.221h-3.58V3.972h-6.068Z"/>
        <path class="fill-yellow" d="M206.5,6.74l-1.958,3.413H195.96l1.985-3.413Z"/>
        <path class="fill-yellow" d="M224.252,6.74l-1.958,3.413H212.031v.782q0,1.875,1.762,1.874h10.515l-1.957,3.412h-10.32a3.736,3.736,0,0,1-3.58-3.356V3.972q.418-2.824,3.58-3.412h12.248V3.972h-10.4q-1.847,0-1.846,2.014V8.894l1.231-2.154Z"/>
        <path class="fill-yellow" d="M239.9,8.027l-1.258,2.237-8.585-5.285V16.221h-3.58V.56h3.58L239.9,6.74V.56h3.608V16.221H239.9Z"/>
        <path class="fill-yellow" d="M245.779.56h13.48q3.159.588,3.579,3.412v8.893a3.736,3.736,0,0,1-3.579,3.356H251.54l1.93-3.412H257.5q1.762,0,1.762-1.874V5.986q0-2.014-1.846-2.014h-8.026V16.221h-3.608Z"/>
        <path class="fill-yellow" d="M274.863.56h13.48q3.159.588,3.579,3.412v8.893a3.736,3.736,0,0,1-3.579,3.356h-7.719l1.93-3.412h4.027q1.762,0,1.762-1.874V5.986q0-2.014-1.846-2.014h-8.026V16.221h-3.608Z"/>
        <path class="fill-yellow" d="M309.89,6.74l-1.958,3.413H297.669v.782q0,1.875,1.762,1.874h10.514l-1.957,3.412H297.669a3.736,3.736,0,0,1-3.58-3.356V3.972q.418-2.824,3.58-3.412h12.248V3.972h-10.4q-1.846,0-1.846,2.014V8.894L298.9,6.74Z"/>
        <path class="fill-yellow" d="M316.022.56l4.867,12.277L325.782.56h4.167l-6.208,15.661h-5.678L311.827.56Z"/>
        <path class="fill-yellow" d="M347.153,6.74,345.2,10.153H334.933v.782q0,1.875,1.761,1.874h10.515l-1.957,3.412H334.933a3.735,3.735,0,0,1-3.58-3.356V3.972q.418-2.824,3.58-3.412h12.248V3.972h-10.4q-1.845,0-1.845,2.014V8.894l1.23-2.154Z"/>
        <path class="fill-yellow" d="M352.956.56V10.935q0,1.875,1.762,1.874h9.4l-1.929,3.412h-9.229a3.736,3.736,0,0,1-3.58-3.356V.56Z"/>
        <path class="fill-yellow" d="M369.587.56h9.9q3.161.588,3.579,3.412v8.893a3.735,3.735,0,0,1-3.579,3.356h-9.9a3.735,3.735,0,0,1-3.58-3.356V3.972Q366.426,1.148,369.587.56Zm0,5.426v4.949q0,1.875,1.762,1.874h6.376q1.761,0,1.761-1.874V5.986q0-2.014-1.845-2.014h-6.208Q369.587,3.972,369.587,5.986Z"/>
        <path class="fill-yellow" d="M385.271.56h13.48q3.159.588,3.579,3.412V8.447a3.736,3.736,0,0,1-3.579,3.356h-7.719l1.93-3.413h4.027q1.762,0,1.762-1.873V5.986q0-2.014-1.846-2.014h-8.026V16.221h-3.608Z"/>
        <path class="fill-yellow" d="M420.3,6.74l-1.958,3.413H408.078v.782q0,1.875,1.762,1.874h10.514L418.4,16.221H408.078a3.736,3.736,0,0,1-3.58-3.356V3.972q.418-2.824,3.58-3.412h12.248V3.972h-10.4q-1.846,0-1.846,2.014V8.894l1.231-2.154Z"/>
        <path class="fill-yellow" d="M436,.56q3.159.588,3.579,3.412V8.447a3.545,3.545,0,0,1-1.929,2.88l1.9,4.894h-4.028L433.68,11.8h-5.4l1.93-3.413h4.027Q436,8.39,436,6.517V5.986q0-2.014-1.846-2.014h-8.026V16.221h-3.608V.56Z"/>
        <path class="fill-yellow" d="M91.658,27.886l-4.95,12.305H81.171l-4.95-12.305V40.191H72.613V24.531h6.405l4.921,12.276,4.922-12.276h6.405v15.66H91.658Z"/>
        <path class="fill-yellow" d="M101.052,24.531h9.9q3.161.587,3.579,3.411v8.893a3.734,3.734,0,0,1-3.579,3.356h-9.9a3.734,3.734,0,0,1-3.58-3.356V27.942Q97.891,25.118,101.052,24.531Zm0,5.425v4.95q0,1.874,1.761,1.874h6.376q1.763,0,1.762-1.874v-4.95q0-2.013-1.846-2.014H102.9Q101.052,27.942,101.052,29.956Z"/>
        <path class="fill-yellow" d="M116.7,24.531h15.717v3.411h-6.068V40.191h-3.58V27.942H116.7Z"/>
        <path class="fill-yellow" d="M134.6,24.531H138.2v15.66H134.6Z"/>
        <path class="fill-yellow" d="M144.007,24.531h9.9q3.161.587,3.579,3.411v8.893a3.734,3.734,0,0,1-3.579,3.356h-9.9a3.734,3.734,0,0,1-3.58-3.356V27.942Q140.846,25.118,144.007,24.531Zm0,5.425v4.95q0,1.874,1.762,1.874h6.376q1.761,0,1.761-1.874v-4.95q0-2.013-1.845-2.014h-6.208Q144.007,27.942,144.007,29.956Z"/>
        <path class="fill-yellow" d="M173.115,32l-1.259,2.238-8.585-5.286V40.191h-3.58V24.531h3.58l9.844,6.18v-6.18h3.608v15.66h-3.608Z"/>
        <path class="fill-yellow" d="M199.626,24.531l-12.333,15.66h-4.7l12.361-15.66Z"/>
        <path class="fill-yellow" d="M211.259,30.627h7.719a3.917,3.917,0,0,1,3.579,3.412v2.8a3.736,3.736,0,0,1-3.579,3.356h-9.9a3.735,3.735,0,0,1-3.58-3.356V27.942q.418-2.825,3.58-3.411h13.451L220.6,27.942h-9.676q-1.846,0-1.846,2.014v4.95q0,1.874,1.762,1.874h6.376q1.762,0,1.762-1.315a1.261,1.261,0,0,0-.448-1.133,2.6,2.6,0,0,0-1.4-.293h-3.915Z"/>
        <path class="fill-yellow" d="M238.2,24.531q3.16.587,3.579,3.411v4.475a3.546,3.546,0,0,1-1.928,2.88l1.9,4.894h-4.027l-1.846-4.418h-5.4l1.93-3.412h4.027q1.763,0,1.762-1.874v-.531q0-2.013-1.846-2.014h-8.026V40.191h-3.607V24.531Z"/>
        <path class="fill-yellow" d="M253.59,40.191h-9.9l6.237-15.66H255.6l6.208,15.66h-4.2l-4.865-12.249-3.5,8.838h6.265Z"/>
        <path class="fill-yellow" d="M263.7,24.531h13.48a3.916,3.916,0,0,1,3.579,3.411v4.475a3.737,3.737,0,0,1-3.579,3.356h-7.719l1.93-3.412h4.027q1.762,0,1.762-1.874v-.531q0-2.013-1.846-2.014h-8.026V40.191H263.7Z"/>
        <path class="fill-yellow" d="M296.354,31.941,295.1,34.123H286.51v6.068h-3.58V24.531h3.58v8.333l1.23-2.153h8.614v-6.18h3.607v15.66h-3.607Z"/>
        <path class="fill-yellow" d="M302.226,24.531h3.607v15.66h-3.607Z"/>
        <path class="fill-yellow" d="M311.637,34.906q0,1.874,1.761,1.874h10.487l-1.929,3.411H311.637a3.734,3.734,0,0,1-3.58-3.356V27.942q.418-2.825,3.58-3.411h12.248v3.411h-10.4q-1.845,0-1.845,2.014Z"/>
        <path class="fill-yellow" d="M335.91,24.531h13.48a3.916,3.916,0,0,1,3.579,3.411v8.893a3.736,3.736,0,0,1-3.579,3.356h-7.719l1.93-3.411h4.027q1.762,0,1.762-1.874v-4.95q0-2.013-1.846-2.014h-8.026V40.191H335.91Z"/>
        <path class="fill-yellow" d="M370.937,30.711l-1.958,3.412H358.716v.783q0,1.874,1.762,1.874h10.514l-1.957,3.411H358.716a3.734,3.734,0,0,1-3.58-3.356V27.942q.418-2.825,3.58-3.411h12.248v3.411h-10.4q-1.846,0-1.846,2.014v2.908l1.23-2.153Z"/>
        <path class="fill-yellow" d="M375.131,36.78h9.648a2.614,2.614,0,0,0,1.4-.294,1.261,1.261,0,0,0,.447-1.133,1.081,1.081,0,0,0-.434-.965,2.4,2.4,0,0,0-1.328-.294h-8.137a3.733,3.733,0,0,1-3.58-3.355v-2.8q.418-2.825,3.58-3.411H390.2v3.411H378.571a2.6,2.6,0,0,0-1.4.294,1.256,1.256,0,0,0-.447,1.132q0,1.316,1.761,1.315h8.138q3.159.447,3.579,3.3v2.8q-.418,2.824-3.579,3.411H373.146Z"/>
        <path class="fill-yellow" d="M392.38,24.531h3.607v15.66H392.38Z"/>
        <path class="fill-yellow" d="M403.972,30.627h7.718a3.917,3.917,0,0,1,3.58,3.412v2.8a3.736,3.736,0,0,1-3.58,3.356h-9.9a3.735,3.735,0,0,1-3.58-3.356V27.942q.418-2.825,3.58-3.411h13.451l-1.93,3.411h-9.675q-1.846,0-1.846,2.014v4.95q0,1.874,1.762,1.874h6.376q1.763,0,1.761-1.315a1.261,1.261,0,0,0-.447-1.133,2.6,2.6,0,0,0-1.4-.293H405.93Z"/>
        <path class="fill-yellow" d="M430.86,32,429.6,34.235l-8.585-5.286V40.191h-3.58V24.531h3.58l9.843,6.18v-6.18h3.608v15.66H430.86Z"/>
        <path class="fill-yellow" d="M452.488,30.711l-1.958,3.412H440.268v.783q0,1.874,1.761,1.874h10.515l-1.957,3.411H440.268a3.734,3.734,0,0,1-3.58-3.356V27.942q.418-2.825,3.58-3.411h12.248v3.411h-10.4q-1.845,0-1.845,2.014v2.908l1.23-2.153Z"/>
        <path class="fill-yellow" d="M468.191,24.531q3.161.587,3.58,3.411v4.475a3.549,3.549,0,0,1-1.929,2.88l1.9,4.894h-4.027l-1.846-4.418h-5.4l1.929-3.412h4.028q1.761,0,1.761-1.874v-.531q0-2.013-1.845-2.014h-8.027V40.191h-3.607V24.531Z"/>
    </g>
  </g>
</svg>
