<svg id="ckn-skills" xmlns="http://www.w3.org/2000/svg" viewBox="0 0 540 44.418">
  <defs>
    <style>
      .fill-yellow {
        fill: #ffd200;
      }
    </style>
  </defs>
  <title>Front-end Developer &amp; Motion / Graphic Designer</title>
  <g>
    <path class="fill-yellow" d="M102.012,6.915l-2.165,3.827H88.5v6.805H84.479V3.811Q84.947.643,88.493-.016h13.58V3.811H90.565q-2.07,0-2.07,2.258V9.33l1.38-2.415Z"/>
    <path class="fill-yellow" d="M119.636-.016q3.544.66,4.013,3.827V8.829a3.976,3.976,0,0,1-2.162,3.229l2.131,5.489H119.1l-2.069-4.958h-6.056l2.163-3.827h4.517q1.976,0,1.975-2.1V6.069q0-2.259-2.069-2.258h-9V17.547h-4.045V-.016Z"/>
    <path class="fill-yellow" d="M130.1-.016h11.1q3.541.66,4.013,3.827v9.972a4.191,4.191,0,0,1-4.013,3.764H130.1a4.192,4.192,0,0,1-4.016-3.764V3.811Q126.55.643,130.1-.016Zm0,6.085v5.55q0,2.1,1.975,2.1h7.15q1.976,0,1.976-2.1V6.069q0-2.259-2.071-2.258h-6.961Q130.1,3.811,130.1,6.069Z"/>
    <path class="fill-yellow" d="M162.737,8.358l-1.412,2.508L151.7,4.94V17.547h-4.014V-.016H151.7l11.04,6.931V-.016h4.044V17.547h-4.044Z"/>
    <path class="fill-yellow" d="M169.228-.016h17.625V3.811h-6.805V17.547h-4.015V3.811h-6.8Z"/>
    <path class="fill-yellow" d="M198.525,6.915l-2.2,3.827h-9.624l2.226-3.827Z"/>
    <path class="fill-yellow" d="M218.432,6.915l-2.2,3.827H204.727v.877q0,2.1,1.976,2.1H218.5L216.3,17.547H204.727a4.189,4.189,0,0,1-4.014-3.764V3.811q.468-3.168,4.014-3.827h13.735V3.811H206.8q-2.072,0-2.07,2.258V9.33l1.38-2.415Z"/>
    <path class="fill-yellow" d="M235.98,8.358l-1.411,2.508L224.942,4.94V17.547h-4.015V-.016h4.015L235.98,6.915V-.016h4.046V17.547H235.98Z"/>
    <path class="fill-yellow" d="M242.572-.016h15.117q3.543.66,4.013,3.827v9.972a4.191,4.191,0,0,1-4.013,3.764h-8.656L251.2,13.72h4.519q1.977,0,1.976-2.1V6.069q0-2.259-2.07-2.258h-9V17.547h-4.046Z"/>
    <path class="fill-yellow" d="M275.187-.016H290.3q3.542.66,4.013,3.827v9.972a4.191,4.191,0,0,1-4.013,3.764h-8.656l2.164-3.827h4.516q1.976,0,1.976-2.1V6.069q0-2.259-2.07-2.258h-9V17.547h-4.046Z"/>
    <path class="fill-yellow" d="M314.467,6.915l-2.2,3.827H300.762v.877q0,2.1,1.976,2.1h11.79l-2.194,3.827H300.762a4.191,4.191,0,0,1-4.015-3.764V3.811q.469-3.168,4.015-3.827H314.5V3.811H302.834q-2.07,0-2.07,2.258V9.33l1.378-2.415Z"/>
    <path class="fill-yellow" d="M321.343-.016,326.8,13.752,332.288-.016h4.673L330,17.547h-6.367L316.639-.016Z"/>
    <path class="fill-yellow" d="M356.253,6.915l-2.19,3.827H342.55v.877q0,2.1,1.975,2.1h11.791l-2.194,3.827H342.55a4.19,4.19,0,0,1-4.015-3.764V3.811Q339,.643,342.55-.016h13.735V3.811H344.622q-2.069,0-2.069,2.258V9.33l1.379-2.415Z"/>
    <path class="fill-yellow" d="M362.761-.016V11.619q0,2.1,1.976,2.1h10.541l-2.163,3.827h-10.35a4.189,4.189,0,0,1-4.014-3.764V-.016Z"/>
    <path class="fill-yellow" d="M381.411-.016h11.1q3.545.66,4.013,3.827v9.972a4.189,4.189,0,0,1-4.013,3.764h-11.1a4.19,4.19,0,0,1-4.015-3.764V3.811Q377.866.643,381.411-.016Zm0,6.085v5.55q0,2.1,1.976,2.1h7.15q1.974,0,1.975-2.1V6.069q0-2.259-2.069-2.258h-6.962Q381.411,3.811,381.411,6.069Z"/>
    <path class="fill-yellow" d="M399-.016h15.116q3.543.66,4.014,3.827V8.829a4.189,4.189,0,0,1-4.014,3.763h-8.656l2.165-3.827h4.515q1.977,0,1.976-2.1v-.6q0-2.259-2.07-2.258h-9V17.547H399Z"/>
    <path class="fill-yellow" d="M438.28,6.915l-2.195,3.827h-11.51v.877q0,2.1,1.976,2.1h11.79l-2.191,3.827H424.575a4.19,4.19,0,0,1-4.015-3.764V3.811q.469-3.168,4.015-3.827H438.31V3.811H426.647q-2.07,0-2.07,2.258V9.33l1.38-2.415Z"/>
    <path class="fill-yellow" d="M455.886-.016q3.543.66,4.014,3.827V8.829a3.974,3.974,0,0,1-2.163,3.229l2.13,5.489H455.35l-2.065-4.958h-6.056l2.164-3.827h4.516q1.977,0,1.977-2.1v-.6q0-2.259-2.07-2.258h-9V17.547H440.77V-.016Z"/>
    <path class="fill-yellow" d="M69.741,30.628l-5.551,13.8H57.981l-5.551-13.8v13.8H48.384V26.865h7.183l5.518,13.767,5.52-13.767h7.182V44.427H69.741Z"/>
    <path class="fill-yellow" d="M80.276,26.865h11.1q3.546.659,4.014,3.826v9.972a4.188,4.188,0,0,1-4.014,3.764h-11.1a4.188,4.188,0,0,1-4.015-3.764V30.691Q76.731,27.523,80.276,26.865Zm0,6.084V38.5q0,2.1,1.974,2.1H89.4q1.977,0,1.976-2.1V32.949q0-2.258-2.07-2.258H82.348Q80.275,30.691,80.276,32.949Z"/>
    <path class="fill-yellow" d="M97.823,26.865h17.625v3.826h-6.8V44.427h-4.015V30.691H97.823Z"/>
    <path class="fill-yellow" d="M117.9,26.865h4.037V44.427H117.9Z"/>
    <path class="fill-yellow" d="M128.445,26.865h11.1q3.544.659,4.014,3.826v9.972a4.189,4.189,0,0,1-4.014,3.764h-11.1a4.188,4.188,0,0,1-4.014-3.764V30.691Q124.9,27.523,128.445,26.865Zm0,6.084V38.5q0,2.1,1.976,2.1h7.15q1.976,0,1.975-2.1V32.949q0-2.258-2.069-2.258h-6.962Q128.445,30.691,128.445,32.949Z"/>
    <path class="fill-yellow" d="M161.087,35.241l-1.412,2.51-9.627-5.928v12.6h-4.015V26.865h4.015L161.087,33.8V26.865h4.046V44.427h-4.046Z"/>
    <path class="fill-yellow" d="M190.816,26.865l-13.83,17.562h-5.27l13.861-17.562Z"/>
    <path class="fill-yellow" d="M203.862,33.7h8.656a4.392,4.392,0,0,1,4.013,3.826v3.14a4.189,4.189,0,0,1-4.013,3.763h-11.1a4.188,4.188,0,0,1-4.015-3.763V30.691q.469-3.168,4.015-3.826H216.5l-2.163,3.826H203.486q-2.07,0-2.07,2.258V38.5q0,2.1,1.976,2.1h7.15q1.976,0,1.976-1.475a1.413,1.413,0,0,0-.5-1.271,2.91,2.91,0,0,0-1.57-.328h-4.39Z"/>
    <path class="fill-yellow" d="M234.073,26.865q3.544.659,4.014,3.826v5.018a3.978,3.978,0,0,1-2.162,3.229l2.13,5.489H233.54l-2.071-4.955h-6.055l2.164-3.826h4.516q1.977,0,1.976-2.1v-.6q0-2.258-2.07-2.258h-9V44.427h-4.045V26.865Z"/>
    <path class="fill-yellow" d="M251.332,44.427h-11.1l6.994-17.562h6.362l6.961,17.562h-4.71l-5.455-13.736L246.457,40.6h7.026Z"/>
    <path class="fill-yellow" d="M262.669,26.865h15.117a4.392,4.392,0,0,1,4.013,3.826v5.018a4.19,4.19,0,0,1-4.013,3.763h-8.657l2.165-3.826h4.516q1.976,0,1.976-2.1v-.6q0-2.258-2.071-2.258h-9V44.427h-4.046Z"/>
    <path class="fill-yellow" d="M299.287,35.175l-1.406,2.447h-9.633v6.805h-4.014V26.865h4.014V36.21l1.38-2.414h9.659V26.865h4.045V44.427h-4.045Z"/>
    <path class="fill-yellow" d="M305.872,26.865h4.045V44.427h-4.045Z"/>
    <path class="fill-yellow" d="M316.426,38.5q0,2.1,1.974,2.1h11.761L328,44.427H316.426a4.188,4.188,0,0,1-4.015-3.764V30.691q.469-3.168,4.015-3.826h13.735v3.826H318.5q-2.068,0-2.069,2.258Z"/>
    <path class="fill-yellow" d="M343.645,26.865h15.117a4.392,4.392,0,0,1,4.013,3.826v9.972a4.191,4.191,0,0,1-4.013,3.764h-8.656L352.27,40.6h4.516q1.976,0,1.976-2.1V32.949q0-2.258-2.07-2.258h-9V44.427h-4.046Z"/>
    <path class="fill-yellow" d="M382.925,33.8l-2.2,3.826H369.22V38.5q0,2.1,1.976,2.1h11.79l-2.194,3.825H369.22a4.189,4.189,0,0,1-4.015-3.764V30.691q.469-3.168,4.015-3.826h13.735v3.826H371.292q-2.07,0-2.07,2.258V36.21L370.6,33.8Z"/>
    <path class="fill-yellow" d="M387.628,40.6h10.819a2.93,2.93,0,0,0,1.57-.33,1.415,1.415,0,0,0,.5-1.271,1.212,1.212,0,0,0-.486-1.082,2.7,2.7,0,0,0-1.49-.33h-9.124a4.185,4.185,0,0,1-4.015-3.762v-3.14q.469-3.168,4.015-3.825h15.108v3.825H391.485a2.91,2.91,0,0,0-1.569.33,1.409,1.409,0,0,0-.5,1.269q0,1.476,1.975,1.475h9.126q3.543.5,4.014,3.7V40.6q-.469,3.167-4.014,3.825H385.4Z"/>
    <path class="fill-yellow" d="M406.971,26.865h4.045V44.427h-4.045Z"/>
    <path class="fill-yellow" d="M419.97,33.7h8.655a4.392,4.392,0,0,1,4.015,3.826v3.14a4.191,4.191,0,0,1-4.015,3.763h-11.1a4.187,4.187,0,0,1-4.014-3.763V30.691q.468-3.168,4.014-3.826h15.084l-2.164,3.826h-10.85q-2.07,0-2.07,2.258V38.5q0,2.1,1.976,2.1h7.15q1.977,0,1.975-1.475a1.415,1.415,0,0,0-.5-1.271,2.912,2.912,0,0,0-1.57-.328h-4.387Z"/>
    <path class="fill-yellow" d="M450.122,35.241l-1.413,2.507-9.627-5.928V44.427h-4.014V26.865h4.014L450.12,33.8V26.865h4.046V44.427h-4.044Z"/>
    <path class="fill-yellow" d="M474.376,33.8l-2.2,3.826H460.673V38.5q0,2.1,1.974,2.1h11.792l-2.195,3.825H460.673a4.188,4.188,0,0,1-4.015-3.764V30.691q.468-3.168,4.015-3.826h13.734v3.826H462.745q-2.069,0-2.069,2.258V36.21l1.379-2.414Z"/>
    <path class="fill-yellow" d="M491.985,26.865q3.546.659,4.015,3.826v5.018a3.981,3.981,0,0,1-2.163,3.229l2.13,5.489h-4.515l-2.071-4.955h-6.055l2.163-3.826h4.517q1.976,0,1.975-2.1v-.6q0-2.258-2.069-2.258h-9V44.427h-4.045V26.865Z"/>
  </g>
</svg>