<svg xmlns="http://www.w3.org/2000/svg" viewBox="0 0 540 13.047">
  <defs>
    <style>
      .fill-white {
        fill: #e6e6e6;
      }
    </style>
  </defs>
  <title>based in NYC</title>
  <g id="ckn-geo" data-name="ckn-geo">
    <g>
      <path class="fill-white" d="M213.425,1.18H219.7a6.163,6.163,0,0,1,1.928.256,3.2,3.2,0,0,1,1.256.752,2.375,2.375,0,0,1,.687,1.744v.032a2.367,2.367,0,0,1-.543,1.624,3.387,3.387,0,0,1-1.457.936,4.116,4.116,0,0,1,1.741.944,2.36,2.36,0,0,1,.644,1.776v.032a2.84,2.84,0,0,1-.273,1.24,2.706,2.706,0,0,1-.817.985,4.032,4.032,0,0,1-1.354.647,6.777,6.777,0,0,1-1.866.232h-6.218Zm5.28,4.4q1.183,0,1.184-.769V4.78q0-.768-1.2-.768h-1.616V5.581Zm.24,3.967a1.577,1.577,0,0,0,.92-.224.7.7,0,0,0,.312-.592V8.7a.7.7,0,0,0-.3-.592,1.538,1.538,0,0,0-.912-.224h-1.889V9.548Z"/>
      <path class="fill-white" d="M228.1,1.1h3.712l4.72,11.28h-4.064l-.592-1.5h-3.92l-.576,1.5h-4Zm2.848,7.12L229.919,5.5,228.9,8.22Z"/>
      <path class="fill-white" d="M241.625,12.588a10.46,10.46,0,0,1-3.192-.472,7.026,7.026,0,0,1-2.552-1.416l2-2.384a5.907,5.907,0,0,0,1.92,1.008,6.884,6.884,0,0,0,2,.3,1.587,1.587,0,0,0,.736-.127.393.393,0,0,0,.223-.353V9.116c0-.159-.11-.293-.327-.4a5.8,5.8,0,0,0-1.224-.336q-.945-.192-1.8-.448a6.285,6.285,0,0,1-1.5-.656,3.2,3.2,0,0,1-1.031-1,2.722,2.722,0,0,1-.385-1.5V4.749A3.549,3.549,0,0,1,236.8,3.26a3.4,3.4,0,0,1,.912-1.2,4.3,4.3,0,0,1,1.488-.8A6.609,6.609,0,0,1,241.24.972a9.577,9.577,0,0,1,2.857.384,6.864,6.864,0,0,1,2.2,1.152l-1.824,2.528a5.65,5.65,0,0,0-1.688-.84,5.888,5.888,0,0,0-1.673-.264,1.172,1.172,0,0,0-.616.128.385.385,0,0,0-.2.336v.032a.373.373,0,0,0,.063.208.615.615,0,0,0,.232.184,2.422,2.422,0,0,0,.457.168c.191.054.437.107.736.16a16.5,16.5,0,0,1,1.951.464,5.794,5.794,0,0,1,1.512.7,3.1,3.1,0,0,1,.977,1.016,2.837,2.837,0,0,1,.343,1.44V8.8a3.5,3.5,0,0,1-.351,1.584,3.4,3.4,0,0,1-.992,1.192,4.668,4.668,0,0,1-1.561.752A7.34,7.34,0,0,1,241.625,12.588Z"/>
      <path class="fill-white" d="M247.29,1.18h9.552V4.252H250.97V5.388h5.471v2.7H250.97V9.308h5.952V12.38H247.29Z"/>
      <path class="fill-white" d="M257.962,1.18h4.288a9.838,9.838,0,0,1,2.92.392,5.8,5.8,0,0,1,2.088,1.112,4.554,4.554,0,0,1,1.248,1.736,5.929,5.929,0,0,1,.416,2.264v.032A6,6,0,0,1,268.5,9a4.748,4.748,0,0,1-1.28,1.792,6.019,6.019,0,0,1-2.128,1.168,9.548,9.548,0,0,1-2.969.416h-4.159Zm4.368,7.936a3.433,3.433,0,0,0,2.056-.552,2.036,2.036,0,0,0,.76-1.768V6.764A2.034,2.034,0,0,0,264.386,5a3.426,3.426,0,0,0-2.056-.553h-.625V9.116Z"/>
      <path class="fill-white" d="M273.081,1.18h3.744v11.2h-3.744Z"/>
      <path class="fill-white" d="M278.086,1.18h3.5l3.984,4.945V1.18h3.712v11.2h-3.328L281.8,7.212V12.38h-3.712Z"/>
      <path class="fill-white" d="M293.67,1.18h3.5l3.984,4.945V1.18h3.712v11.2h-3.328l-4.16-5.168V12.38H293.67Z"/>
      <path class="fill-white" d="M309.166,8.413,304.942,1.18h4.192l1.921,3.68,1.935-3.68h4.144L312.91,8.364V12.38h-3.744Z"/>
      <path class="fill-white" d="M321.84,12.621a5.983,5.983,0,0,1-2.217-.416A5.631,5.631,0,0,1,316.5,9.18a5.792,5.792,0,0,1-.473-2.368V6.78a5.884,5.884,0,0,1,.456-2.32A5.642,5.642,0,0,1,317.751,2.6a5.843,5.843,0,0,1,1.9-1.224,6.161,6.161,0,0,1,2.336-.44,6.351,6.351,0,0,1,1.7.216,5.627,5.627,0,0,1,1.408.6,5.088,5.088,0,0,1,1.12.92,6.208,6.208,0,0,1,.84,1.176L323.968,5.66a3.067,3.067,0,0,0-.792-.984,1.934,1.934,0,0,0-1.24-.376,1.907,1.907,0,0,0-.865.192,1.986,1.986,0,0,0-.656.528,2.536,2.536,0,0,0-.424.784,2.933,2.933,0,0,0-.151.945V6.78a3.154,3.154,0,0,0,.151,1,2.308,2.308,0,0,0,.433.784,1.973,1.973,0,0,0,.664.512,1.93,1.93,0,0,0,.848.184,1.964,1.964,0,0,0,1.28-.392,3.564,3.564,0,0,0,.832-1.016L327.136,9.6a7.263,7.263,0,0,1-.832,1.176,5.091,5.091,0,0,1-1.128.96,5.792,5.792,0,0,1-1.473.648A6.626,6.626,0,0,1,321.84,12.621Z"/>
    </g>
  </g>
</svg>
