<svg xmlns="http://www.w3.org/2000/svg" viewBox="0 0 540 77.153">
    <defs>
        <style>
            .fill--pink {
                fill: #d90077;
            }

            .stroke--yellow {
                fill: none;
                stroke: #ffd200;
                stroke-linecap: round;
                stroke-miterlimit: 10;
                stroke-width: 2px;
            }
        </style>
    </defs>
    <title>Hey! My name is</title>
    <g>
        <g class="fill--pink">
            <path d="M183.863,15.658h.268a.355.355,0,0,1,.155.02.25.25,0,0,0,.084.031.191.191,0,0,1,.092.051,1.923,1.923,0,0,0,.287.185.532.532,0,0,1,.249.433,2.766,2.766,0,0,1-.486,1.026q-.481.77-2.482,3.846-4.615,7.065-8.259,13.1-6.3,10.485-6.364,10.547a.277.277,0,0,0-.082.128.147.147,0,0,1-.162.129h0l-.288-.061-.555.143-.331-.061-.351.061h-.122l-1.154.164q-1.026,0-1.026-.7a1.9,1.9,0,0,1,.186-.72q.641-1.5,6.427-10.938-3.812.1-7.519.1L158,33.123q-1.091,1.751-2.986,4.965a70.826,70.826,0,0,1-4.365,7.075,1.774,1.774,0,0,1-.434.072.4.4,0,0,1-.308-.2c-.1-.128-.162-.2-.2-.2a.661.661,0,0,0-.215.082,1.07,1.07,0,0,1-.474.082l-.475-.02-.184-.128c-.014,0-.032.02-.052.061s-.073.062-.155.062q-.885,0-.886-.741a3.429,3.429,0,0,1,.352-1.3,15.173,15.173,0,0,1,.916-1.751q.564-.948,2.925-4.487t2.359-3.553c-.262-.013-.564-.026-.907-.041a9.1,9.1,0,0,1-1.484-.082q-1.173-.206-1.607-1.937a4.427,4.427,0,0,1-.206-1.112c0-.371.158-.557.474-.556l.536.143,1.977.1q1.566.082,2.246.082l1.175-.041q2.676-4.2,6.41-9.5a9.3,9.3,0,0,1-6.032,2.243,4.766,4.766,0,0,1-2.7-.751,2.225,2.225,0,0,1-1.132-1.905,2.176,2.176,0,0,1,.864-1.823,2.741,2.741,0,0,1,1.647-.67q.783,0,.784.248c0,.055-.072.116-.217.184s-.215.139-.215.207q0,.328.72.587a4.758,4.758,0,0,0,1.618.256,6.217,6.217,0,0,0,2.213-.524,20.991,20.991,0,0,0,2.723-1.356q1.977-1.155,3.131-1.917a2.783,2.783,0,0,1,1.24-.327,1.915,1.915,0,0,1,.834.128,1.353,1.353,0,0,1,.385.268,2.681,2.681,0,0,1,.268.35,1.586,1.586,0,0,0,.277.329.329.329,0,0,1,.136.257,1.2,1.2,0,0,1-.155.454q-.155.311-1.576,2.5t-3.655,5.6q-2.237,3.41-3.266,5.015,5.5,0,11.884-.2,7.768-12.255,8.205-12.854a2.588,2.588,0,0,1,.784-.782,1.819,1.819,0,0,1,.864-.186Z"/>
            <path d="M207.384,38.582a.736.736,0,0,0-.454.186q-5.682,5.172-8.815,7.807,1.935-4,7.086-12.693,1.751-2.947,1.915-3.264a1.212,1.212,0,0,0,.166-.513.655.655,0,0,0-.207-.421,3.174,3.174,0,0,1-.237-.268,1.345,1.345,0,0,0-.678-.268,4.389,4.389,0,0,0-.846-.128.73.73,0,0,0-.5.206c-.1.068-.186.136-.268.2a1.974,1.974,0,0,0-.278.3l-.268.34c-.075.1-.172.229-.288.4s-.214.309-.288.413-.176.256-.3.442a36.181,36.181,0,0,1-4.038,5.006,46.123,46.123,0,0,1-4.212,4.047,6.376,6.376,0,0,1-2.464,1.576.145.145,0,0,1-.166-.12h0a.155.155,0,0,1,0-.043,27.3,27.3,0,0,1,2.7-5.582,28.457,28.457,0,0,0,2.693-5.541,1.366,1.366,0,0,0-.586-1.1,1.728,1.728,0,0,0-.958-.464c-.246,0-.513.216-.782.648s-.674,1.154-1.195,2.153a30.164,30.164,0,0,1-1.524,2.637q-.785,1.419-1.7,2.949c-.256.429-.475.793-.668,1.117a.383.383,0,0,0-.143-.047,1,1,0,0,0-.485.227q-.32.228-1.524,1.2a27.879,27.879,0,0,1-2.708,1.924,6.6,6.6,0,0,1-3.523,1.111q-2.739,0-2.74-1.606,0-.907,4.348-3.334a7.147,7.147,0,0,1,.906-.36,3.776,3.776,0,0,0,1.214-.691q.535-.452.536-.731a1.584,1.584,0,0,0-.309-.761,1.8,1.8,0,0,0-.577-.629,2.055,2.055,0,0,0-.525-.042,5.358,5.358,0,0,0-1.411.341,5.326,5.326,0,0,1-1.493.34c-.322,0-.485-.055-.485-.165q0-.5,1.319-1.5a20.7,20.7,0,0,1,2.225-1.525,9.6,9.6,0,0,1,1.647-.761,2.824,2.824,0,0,0-.083.679.986.986,0,0,0,.146.567.672.672,0,0,0,.6.217,3.575,3.575,0,0,0,2.5-1.026,3.185,3.185,0,0,0,1.1-2.39,1.025,1.025,0,0,0-.7-.927,3.2,3.2,0,0,0-1.379-.329,13.958,13.958,0,0,0-6.469,1.956,9.129,9.129,0,0,0-2.75,2.214,4.094,4.094,0,0,0-1.121,2.554,4.952,4.952,0,0,0,.225,1.752,1.817,1.817,0,0,0,1.009.9q-3.933,1.464-3.933,4.305a3.407,3.407,0,0,0,2.308,3.213,8.144,8.144,0,0,0,3.356.577,12.568,12.568,0,0,0,7.276-2.765c-.007.119-.025.235-.025.355a2.052,2.052,0,0,0,.781,1.843,2.836,2.836,0,0,0,1.589.526h.142a6.4,6.4,0,0,0,3.255-1.514,32.979,32.979,0,0,0,3.667-3.512q-2.966,5.6-3.091,5.777t-1.464,1.484a25.023,25.023,0,0,0-2.224,2.436,9.115,9.115,0,0,0-2.328,5.256,1.688,1.688,0,0,0,1.9,1.921c.11,0,.361-.025.751-.072A2.909,2.909,0,0,0,193,56.655a10.056,10.056,0,0,0,1.472-1.824q.6-.957,1.123-1.894a8.94,8.94,0,0,1,.629-1.041,94.369,94.369,0,0,1,11.6-10.588,1.027,1.027,0,0,0,.2-.761Q208.022,38.582,207.384,38.582Z"/>
            <path d="M208.25,45.1a3.236,3.236,0,0,1,1.092-2.368,3.279,3.279,0,0,1,2.3-1.06,1.061,1.061,0,0,1,1.2.894,1.077,1.077,0,0,1,0,.3,3.486,3.486,0,0,1-1.1,2.369,3.168,3.168,0,0,1-2.3,1.174Q208.251,46.411,208.25,45.1Zm20.229-31.09,1.585.206c.344,0,.513.111.513.33a1,1,0,0,1-.083.268q-6.386,9.372-14.213,22.06a1.738,1.738,0,0,1-.844.845.057.057,0,0,0-.042.021.361.361,0,0,1-.072.051.429.429,0,0,1-.128.051,1.954,1.954,0,0,1-.722.129.991.991,0,0,0-.576.128,1.15,1.15,0,0,1-.641.128.682.682,0,0,1-.765-.587.67.67,0,0,1,0-.2q0-1.381,3.532-7.051t6.933-10.538a38.1,38.1,0,0,1,4.344-5.617A2.167,2.167,0,0,1,228.479,14.009Z"/>
            <path d="M260.507,37.45l.165.784a2.077,2.077,0,0,1-.513,1.173,23.884,23.884,0,0,1-4.359,4.068q-3,2.3-4.419,2.3a2.941,2.941,0,0,1-2.223-.834,2.673,2.673,0,0,1-.8-1.9q0-1.282,2.677-5.642,4.017-6.488,10.257-15.16-1.32,1.36-7,7.332Q241.7,42.75,239.577,44.5a1.571,1.571,0,0,1-1.026.287,2.4,2.4,0,0,1-1.41-.545,1.535,1.535,0,0,1-.741-1.225v-.1a62.173,62.173,0,0,1,3.975-8.462q3.891-7.6,6.529-12.091-3.892,4.286-7.868,9.558a113.945,113.945,0,0,0-11.062,17.052c-.206.439-.459.659-.762.659a5.774,5.774,0,0,1-1.318-.226q-1.812-.5-1.812-1.731,0-.742,3.027-5.3t7.024-9.971q4-5.4,8.281-10.411,5.911-6.924,7.6-6.923a1.066,1.066,0,0,1,.513.128,1.041,1.041,0,0,0,.308.128.181.181,0,0,0,.128-.062,1.327,1.327,0,0,1,1.059-.329,4.057,4.057,0,0,1,1.545.309c.5.206.753.44.753.7a34.313,34.313,0,0,1-2.061,3.935q-6.9,12.234-9.269,16.808,2.268-2.739,6.478-7.271t8.847-9.042q6.035-5.858,7.209-5.858a4.621,4.621,0,0,1,1.195.206,8.774,8.774,0,0,0,2.451.371,1.129,1.129,0,0,1,.567.279.607.607,0,0,1,.235.442.538.538,0,0,1-.128.37q-6.678,8.916-11.273,15.711a78.992,78.992,0,0,0-5.663,9.187q2.165-.453,6.448-5.17a3.655,3.655,0,0,1,.266-.33,1.418,1.418,0,0,0,.144-.165q.352-.412.536.513.082.537.113.751c.021.145.042.3.062.454A2.792,2.792,0,0,1,260.507,37.45Z"/>
            <path d="M267.82,51.894a9.248,9.248,0,0,0-.628,1.041q-.524.936-1.123,1.895a10.013,10.013,0,0,1-1.469,1.82,2.909,2.909,0,0,1-1.463.937q-.588.072-.751.072a1.683,1.683,0,0,1-1.9-1.434v0a1.664,1.664,0,0,1,0-.478,9.125,9.125,0,0,1,2.327-5.257,25.023,25.023,0,0,1,2.224-2.436q1.343-1.3,1.463-1.48t3.09-5.777a33.33,33.33,0,0,1-3.666,3.512,6.42,6.42,0,0,1-3.255,1.514h-.145a2.832,2.832,0,0,1-1.586-.526,2.053,2.053,0,0,1-.782-1.843,7.525,7.525,0,0,1,1.05-3.79q.372-.642,1.282-2.163t1.7-2.949q.74-1.133,1.525-2.637t1.193-2.153c.275-.431.536-.648.784-.648a1.737,1.737,0,0,1,.959.464,1.37,1.37,0,0,1,.585,1.1,28.316,28.316,0,0,1-2.7,5.541,27.275,27.275,0,0,0-2.693,5.582.145.145,0,0,0,.123.164.1.1,0,0,0,.043,0,6.394,6.394,0,0,0,2.461-1.575,46.123,46.123,0,0,0,4.212-4.047,36.227,36.227,0,0,0,4.036-5.006c.124-.192.224-.34.3-.442s.17-.241.287-.413.213-.3.29-.4.164-.208.268-.339a1.974,1.974,0,0,1,.278-.3c.081-.069.171-.137.268-.205a.735.735,0,0,1,.5-.207,4.439,4.439,0,0,1,.843.129,1.355,1.355,0,0,1,.681.268,3,3,0,0,0,.236.268.65.65,0,0,1,.207.421,1.212,1.212,0,0,1-.166.513q-.165.32-1.915,3.264-5.151,8.693-7.086,12.693,3.132-2.636,8.817-7.807a.715.715,0,0,1,.452-.186q.642,0,.641,1.958a1.03,1.03,0,0,1-.2.762A94.461,94.461,0,0,0,267.82,51.894Z"/>
            <path d="M378.3,25.977a3.131,3.131,0,0,0,2.277-1.184,3.527,3.527,0,0,0,1.091-2.36,1.134,1.134,0,0,0-.33-.865,1.244,1.244,0,0,0-.884-.308,3.1,3.1,0,0,0-2.3,1.122,3.449,3.449,0,0,0-1.041,2.359Q377.114,25.978,378.3,25.977Z"/>
            <path d="M393.327,28.45q-.535-.988-2.82-.988a15.573,15.573,0,0,0-5.743,1.42,21.711,21.711,0,0,0-3.233,1.667,9.266,9.266,0,0,0-2.5,2.277,4.429,4.429,0,0,0-1,2.678A2.31,2.31,0,0,0,379,37.535a4.655,4.655,0,0,0,.886.513,10.746,10.746,0,0,0,1.174.4q.739.218,2.378.6a21.569,21.569,0,0,1,2.329.641q.69.256.691.607,0,.742-1.907,1.484a12.056,12.056,0,0,1-4.377.741,1.1,1.1,0,0,1-.72-.371,1.179,1.179,0,0,1-.393-.886l.022-.329c0-.273-.256-.413-.747-.427V40.42q0-1.856-.536-1.855a10.2,10.2,0,0,0-2.2,2.08,9.227,9.227,0,0,1-1.762,1.432,3.663,3.663,0,0,1-1.966.649c-.631,0-.949-.233-.949-.7a3.264,3.264,0,0,1,.413-1.381c.137-.256.256-.484.36-.669s.247-.419.433-.7.3-.464.34-.546a90.069,90.069,0,0,0,4.9-8.919,1.671,1.671,0,0,0-.513-1.05,1.538,1.538,0,0,0-1.164-.577,3.741,3.741,0,0,0-1.875.9,14.766,14.766,0,0,0-2.08,1.813q-.855.918-.855,1.132c0,.145.142.368.423.67s.421.5.421.607a13.692,13.692,0,0,1-1.132,1.988q-1.131,1.833-2.266,4a8.011,8.011,0,0,0-1.132,3.3,3.093,3.093,0,0,0,1.173,2.224,3.969,3.969,0,0,0,2.8,1.091A7.981,7.981,0,0,0,375,44.633a8.831,8.831,0,0,0,1.419-1.026,2.275,2.275,0,0,0,.9,1.464,5.635,5.635,0,0,0,3.4.753A13.532,13.532,0,0,0,386.5,44.2a8.18,8.18,0,0,0,2.6-1.923,3.69,3.69,0,0,0,1.052-2.491,2.658,2.658,0,0,0-.513-1.422,4.317,4.317,0,0,0-1.852-1.4,30.415,30.415,0,0,0-5.6-1.462q-.948-.186-.947-.484c0-.2.232-.513.7-.937a14.491,14.491,0,0,1,1.761-1.34,13.09,13.09,0,0,1,2.544-1.265,9.16,9.16,0,0,1,2.842-.63,1.526,1.526,0,0,1-.288.546.819.819,0,0,0-.207.506c0,.165.052.268.155.309A.6.6,0,0,1,389,32.4a.787.787,0,0,0,.256.217A1.986,1.986,0,0,0,390,32.7a3.9,3.9,0,0,0,1.586-.494,4.016,4.016,0,0,0,1.462-1.113,2.783,2.783,0,0,0,.463-1.709v-.144A1.825,1.825,0,0,0,393.327,28.45Z"/>
            <path d="M359.606,38.561a.975.975,0,0,0-.483.227q-.321.227-1.525,1.2a28.055,28.055,0,0,1-2.709,1.923,6.587,6.587,0,0,1-3.523,1.111q-2.739,0-2.738-1.606,0-.906,4.346-3.333a7.139,7.139,0,0,1,.905-.361,3.79,3.79,0,0,0,1.217-.691c.356-.3.536-.545.536-.73a1.586,1.586,0,0,0-.311-.762,1.765,1.765,0,0,0-.577-.628,2,2,0,0,0-.524-.043,5.351,5.351,0,0,0-1.41.341,5.29,5.29,0,0,1-1.494.34c-.323,0-.483-.055-.483-.165q0-.493,1.318-1.5a20.432,20.432,0,0,1,2.224-1.524,9.54,9.54,0,0,1,1.648-.762,2.836,2.836,0,0,0-.081.68,1,1,0,0,0,.143.566.675.675,0,0,0,.6.217,3.575,3.575,0,0,0,2.5-1.026,3.188,3.188,0,0,0,1.1-2.39,1.027,1.027,0,0,0-.7-.927,3.235,3.235,0,0,0-1.382-.329,13.977,13.977,0,0,0-6.468,1.956,9.1,9.1,0,0,0-2.749,2.215,4.092,4.092,0,0,0-1.123,2.553,4.953,4.953,0,0,0,.227,1.752,1.816,1.816,0,0,0,1.01.9,9.106,9.106,0,0,0-2.031,1.035,22.25,22.25,0,0,0-2.6,1.973,13.473,13.473,0,0,1-1.6,1.235,3.356,3.356,0,0,1-1.39.641,1.584,1.584,0,0,1-.845-.129q-.35-.176-.35-1.121a10.05,10.05,0,0,1,1.659-3.307q1.659-2.626,3.334-5.232a9.83,9.83,0,0,0,1.666-3.295,1.551,1.551,0,0,0-.534-1.185,1.866,1.866,0,0,0-1.318-.494,8.393,8.393,0,0,0-4.512,1.4,16.262,16.262,0,0,0-2,1.556q-1.074.959-1.782,1.719t-1.74,1.9q-1.026,1.134-1.608,1.709c.027-.04.2-.254.526-.641s.536-.641.641-.782l.565-.751a6.445,6.445,0,0,0,.587-.886l.424-.824a3.791,3.791,0,0,0,.339-.927,5.615,5.615,0,0,0,.093-1.113,1.837,1.837,0,0,0-.545-1.257,2.042,2.042,0,0,0-1.577-.6,7.6,7.6,0,0,0-3.3,1.431,28.608,28.608,0,0,0-5.1,4.359q.128-.163,1.026-1.282t1.565-1.977a7.321,7.321,0,0,0,.823-1.246,1.634,1.634,0,0,0,.165-.608q0-.8-.512-.8a5.726,5.726,0,0,0-1.783.3,2.522,2.522,0,0,0-1.329.876,78.537,78.537,0,0,0-6.262,10.94c-.152.159-.3.324-.452.482a10.6,10.6,0,0,1-1.5,1.256,2.72,2.72,0,0,1-1.463.588q-.618,0-.618-1.134a2.077,2.077,0,0,1,.063-.577,18.31,18.31,0,0,1,1.369-4.027q1.062-2.358,1.936-3.872a12.6,12.6,0,0,1,1.142-1.782,1.149,1.149,0,0,0,.268-.845q0-1.068-1.564-1.07a2.108,2.108,0,0,0-1.019.2,3.077,3.077,0,0,0-.836.938,1.68,1.68,0,0,0-.885-.927,3.868,3.868,0,0,0-1.812-.37,10.559,10.559,0,0,0-6.3,2.677,21.8,21.8,0,0,0-2.987,2.832,13.466,13.466,0,0,0-2.194,3.44,9.674,9.674,0,0,0-.733,2.521,12.254,12.254,0,0,1-1.78,1.424,3.26,3.26,0,0,1-1.659.659q-1.236,0-1.236-.907a3.389,3.389,0,0,1,.289-1.2c.108-.256.215-.5.319-.72s.24-.481.412-.784l.433-.761q.175-.309.463-.769c.192-.306.329-.526.411-.65s.209-.32.385-.586.279-.434.319-.5.3-.443.785-1.144.867-1.282,1.163-1.741a16.165,16.165,0,0,0,.874-1.564,3.513,3.513,0,0,0,.433-1.5,1.523,1.523,0,0,0-.566-1.144,2.178,2.178,0,0,0-1.525-.512,5.523,5.523,0,0,0-2.151.512,19.706,19.706,0,0,0-6.015,5l.865-1.3a8.985,8.985,0,0,0,1.8-3.646q0-.617-.5-.618a3.761,3.761,0,0,0-3.131,1.174,17.218,17.218,0,0,0-1.282,1.977q-.369.66-2.264,3.832t-2.813,4.768q-.915,1.6-1.226,2.091c-.206.33-.354.574-.442.731a4.939,4.939,0,0,0-.278.6,1.745,1.745,0,0,0-.144.607.439.439,0,0,0,.164.371,4.927,4.927,0,0,0,.9.4,3.54,3.54,0,0,0,1.164.278q.432,0,1.112-.886,2.436-3.236,4.182-5.171t4.44-4.552q2.691-2.616,3.366-2.677l.041.041a8.321,8.321,0,0,1-1.132,1.987q-1.07,1.6-1.8,2.8a21.211,21.211,0,0,0-1.431,2.9,7.96,7.96,0,0,0-.7,3.017,2.872,2.872,0,0,0,1.071,2.256,3.416,3.416,0,0,0,2.162.948,5.877,5.877,0,0,0,2-.289,11.133,11.133,0,0,0,2.782-1.742,3.32,3.32,0,0,0,.782,1.124,3.175,3.175,0,0,0,2.286.844,6.958,6.958,0,0,0,3.615-1.545,17.717,17.717,0,0,0,3.923-3.769,5.264,5.264,0,0,0-.411,2.152,3.561,3.561,0,0,0,.782,2.235,2.9,2.9,0,0,0,2.436,1.01,5.079,5.079,0,0,0,2.692-.923c.021.016.028.019.05.037a1.407,1.407,0,0,0,.444.248h.37l1.009.041c.128,0,.364-.207.722-.618a9.821,9.821,0,0,0,.721-.907,45.831,45.831,0,0,1,8.077-9.907q1.893-1.812,2.5-1.813c.4,0,.607.166.608.5A40.458,40.458,0,0,1,329.8,38.5q-3.276,5.572-3.275,5.778c0,.276.241.5.721.669a4.128,4.128,0,0,0,1.391.257,1.148,1.148,0,0,0,.979-.412q2.692-3.523,3.419-4.387a77.119,77.119,0,0,1,6.509-6.8q2.2-2.058,2.842-2.059c.109,0,.164.034.164.1a8.8,8.8,0,0,1-.9,1.33q-.9,1.226-1.967,2.749a23.607,23.607,0,0,0-1.966,3.4,7.68,7.68,0,0,0-.9,3.192,3.41,3.41,0,0,0,.813,2.276,4.293,4.293,0,0,0,2.936,1.164,1.907,1.907,0,0,0,.329.02,6.293,6.293,0,0,0,3.915-1.666c.256-.212.484-.412.709-.612a3.824,3.824,0,0,0,1.947,1.765,8.137,8.137,0,0,0,3.358.577q3.933,0,8.342-3.589a2.641,2.641,0,0,0,.825-.938,5.459,5.459,0,0,0,.153-1.57Q360.149,38.56,359.606,38.561ZM312.5,36.729a31.807,31.807,0,0,1-3.5,3.347,10.067,10.067,0,0,1-3.214,2.276c-.274,0-.412-.241-.412-.722a7.078,7.078,0,0,1,1.123-2.677,17.206,17.206,0,0,1,2.461-3.358q3.769-3.912,7.293-3.914-2.8,3.854-3.749,5.049Z"/>
        </g>
        <path class="stroke--yellow" d="M181.965,56.965q-19.208,2.073-38.324,5.1m58.35-7q26.136-2.142,52.353-2.522m20.573-.027a780.022,780.022,0,0,1,112.8,9.549"/>
    </g>
</svg>