<svg id="ckn-name" data-name="ckn-name" xmlns="http://www.w3.org/2000/svg" xmlns:xlink="http://www.w3.org/1999/xlink" viewBox="0 0 540 238">
  <defs>
    <style>
      .fill-white {
        fill: #e6e6e6;
      }
        
      .shadow-black {
        filter: drop-shadow(3px 3px 0 #161616);
      }
      
      .glow-pink {
        filter: drop-shadow(0 0 20px #cf0079);
      }
    </style>
  </defs>
  <title>Chris</title>
  <g>
    <g class="glow-pink">
        <path class="fill-white shadow-black" d="M163.265,130.45l.858.514c-.315,1.547-5.032,5.037-6.55,5.315-.866,1.47,1.266,1.446.784,2.857-.339.989-3.253,1.707-3.253,2.628-1.512,2.561-4.265,2.843-5.78,5.371.6.8,1.907-.629,2.457-.743.465-.093-.079,2.415-.057,2.457q1.447.159.457,1.029c-2.139.718-2.572,3.1-4.366,4.485-2.987,2.308-7.007,3.747-10.27,5.572a32.654,32.654,0,0,0-5.717,3.542c-1.437,1.3-1.576,4.114-4.459,4.114-3.953,3.069-12.512,6.4-17.493,6.4-8.483,4.134-21.919.748-29.36-3.76-11.1-6.725-16.572-18.226-19.062-30.6-5.123-25.464,13.9-43.456,32.418-57.065a5.742,5.742,0,0,1,.572-1.714,1.78,1.78,0,0,1,.457-.685c.831-3.779,3.444-4.918,5.942-7.428,0-.1.526-.344.572-.344l.685-.456a1.854,1.854,0,0,1,.458-.115l.114-.114h.228c7.1-3.891,22.975-15.345,31.33-9.257,5.127,0,7-1.212,12.292.486,2.843.913,2.715.355,4.459,3.085,1.153,1.806,2.8,4.314,2.8,6.6-.941,1.879.948,5.354.115,7.143-.656,1.408-1.216,1.026-2.171,2-4.455,4.541-10.127,6.572-16.122,8.571v.114a11.141,11.141,0,0,1-2.172,1.257c-2.1,0-10.236,4.567-11.893,5.828-.114.039-.228.077-.343.114l-.114.115h-.228a.911.911,0,0,1-.915.571c-.568.285-1.944.635-1.944,1.486a.332.332,0,0,0-.115.229c-.1.1-.457.529-.457.685a2.135,2.135,0,0,0-.685,1.143c-.175.434-1.605,2.286-2.174,2.286a13.7,13.7,0,0,1-1.485,1.485c-.482.481-1.217.646-1.717,1.143,0,.077-.076.191-.228.343a.644.644,0,0,1-.343.228c-.383.129-2.794.826-2.972,1.372l-1.258.229a14.427,14.427,0,0,1-1.716.685q-.7-.379-.228-.685a1.158,1.158,0,0,0,.343-.572c-.607-1.2-2.378,1.483-2.837,1.943a.1.1,0,0,1-.116.114c0,1.36-3.506,4.951-3.506,2.286-5.541,4.787-8.629,16.1-8.488,23.2a4.222,4.222,0,0,1-1.256.114c-.641-3.179.05-6.445-.228-9.714-3.306,6.552.037,17.961,6.4,21.485a5.337,5.337,0,0,0,.8.343,9.726,9.726,0,0,0,4.342.571c1.554-.765,4.929-.333,6.543-.571a61.07,61.07,0,0,0,6.485-1.372c2.707-.714,12.471-2.262,14.286-4.685,5.977-1.9,11.33-5.255,17.142-7.428.927,0,9.08-3.971,9.263-4.343-.83.726-4.158,1.823-4.57,3.086-.222.658,2.621-.338,2.971-.686a4.062,4.062,0,0,0,1.714-.686.464.464,0,0,1,.114-.343c.039-.114.077-.228.114-.343a1.823,1.823,0,0,1,1.484-1.028c.254-.388,3.938-2.514,4.795-2.514q-.35-.459.343-.457c.535,1.083,1.763-.63,2.457.057l-.172.857c-.527.315-4.174,3.854-3.428,4C160.689,132.161,162.288,130.45,163.265,130.45Zm-73.938-5.828a7.519,7.519,0,0,0-.572,1.371.466.466,0,0,0,.343-.114,8.568,8.568,0,0,0,.913-2.514A13.181,13.181,0,0,0,89.327,124.622Zm49.94,30.513q.162-.577-.344-.229Q138.761,155.485,139.267,155.135Zm.8-.8q.228.957,1.256.457Q140.977,153.853,140.067,154.335Zm1.828-13.371a.748.748,0,0,0,.343.686C142.483,141.4,142.977,139.882,141.9,140.964Zm.8,12.685c.952.311.442-2.04-.228-.686A.9.9,0,0,0,142.7,153.649Zm.229-12.8.743-.457Q142.7,140.021,142.924,140.85Zm7.767,7.885c-1-1.636-1.586,2.467-3.135.914q-.512.672.232.572c-.022.026-2.194.546-2.089.514-.244.075-1.282.517-1.975.743,0,3.02,3.507.187,4.76-.229a5.632,5.632,0,0,1,2.44-1.485l.228-.343A1.12,1.12,0,0,0,150.691,148.735Zm-5.139,5.6q1.249-.707-.228-.457C145.247,154.181,145.324,154.335,145.552,154.335Zm0-19.313q-.238,1.215.915.457v-.857Zm1.828,4c.457-1.368-.805-.5-1.028,0A1.105,1.105,0,0,0,147.38,139.021Zm-.228,14.857a9.064,9.064,0,0,1,1.371-1.486C147.834,152.392,145.2,153.878,147.152,153.878Zm.457-5.257q.338-1.173-1.029.114Q146.925,149.452,147.609,148.621Zm.114-14.285-.114.228Q148.244,134.387,147.723,134.336Zm4.343,6.742c-.076.154-.057.211.058.172S152.218,141.155,152.066,141.078Zm1.6,5.028q.05,1.356-1.029,0Q152.866,145.31,153.666,146.106Zm.229-10.627.342-.343Zm.971-.515c-.022.007,3.022-.81,2.4-1.257-1-.71-1.8.155-2.571.743C154.7,134.832,154.752,135,154.866,134.964Zm4.057,6.8c.5,1.25-2.647,2.474-3.428,2.629C154.184,145.212,158.362,142.14,158.923,141.764Zm-1.371-3.543a.489.489,0,0,0-.457-.457,2.365,2.365,0,0,0-.915.457Q156.624,139.631,157.552,138.221Zm-.229,8.457q-.115-.228,0-.171T157.323,146.678Zm1.943-1.829q.114.776-.8.686Q158.466,145.308,159.266,144.849Zm-.229-3.085q.274-.663.686-.229C159.569,141.917,159.341,141.992,159.037,141.764Zm-1.5,15.542q-.469-.6.343-1.028A1.635,1.635,0,0,1,157.539,157.306Zm.572-2.628c.151.075.189.114.113.114A.1.1,0,0,1,158.111,154.678Zm1.028,5.828a.5.5,0,0,1,.572-.571Q159.48,160.849,159.139,160.506Zm2.285-4.342c0,1.044-1.257,2.734-1.713,3.656-1.161-.693.868-3.853,1.485-4.342C161.73,154.047,161.473,155.915,161.424,156.164Zm100.111-56.077a1.7,1.7,0,0,1,2.285.118c-3.635,1.868-8.994.538-12.8,2l-.685.118a2.285,2.285,0,0,1-.228.588q1.069-.207.8.7a4.483,4.483,0,0,1-1.258.222l-.457,1.089c.769-.124,6.374-.472,6.4-.525-1.093.468-2.3.242-3.2,1.143-.549,1.377-.474,1.436-1.942,2.171a3.28,3.28,0,0,0-1.486.686,6.4,6.4,0,0,0-1.257.228,1.454,1.454,0,0,0,0,.8l-.228.343c-.377,1.534-1.372,3.413-1.372,5.028-.924,2.3-2.174,4.222-2.628,6.742-2.131,3.571-3.114,8.541-4.571,12.445-1.215,3.253-4.185,7.5-4.343,10.868q-.513.744-1.028,1.486a7.046,7.046,0,0,0-1.486,2.514c-.981.733-.784,3.1-1.143,3.314a2.7,2.7,0,0,0-1.029,1.029,7.887,7.887,0,0,0,0,3.657,3.694,3.694,0,0,1-1.485,1.029,1.194,1.194,0,0,1-.114.914,1.279,1.279,0,0,1-.343-.914l-.343-.115a11.768,11.768,0,0,1-1.028,2.515,7.39,7.39,0,0,1,1.142-.915.95.95,0,0,1,.229.915c2.055,2.065-1.517,2.531-2.057,3.085-.006.023-.077.686.114.686.032.322-.581,2.25-1.429,1.613-.632-.473.4-2.651.857-3.1-.586.277-2.854,2.172-2.742,2.514-.067-.2,1.109-2.829.114-2.628q-.438.839-.8,1.714a1.631,1.631,0,0,1-1.371,1.028,1.859,1.859,0,0,1-.343.458l.114,1.028a17.991,17.991,0,0,0-1.942,2.857q.257,1.284-1.029.915a1.472,1.472,0,0,1-.686-.686,1.764,1.764,0,0,0,.8-.686c0-1.183.344-2.259.344-3.314.379-.961.355-2.764,1.142-3.543q.344-.114,0-.8v-.114c-.762.754-5.082,10.986-5.714,10.742,0-4.195,4.024-10.97,5.371-14.971-.78,0-2.409,5.432-2.555,5.715a1.04,1.04,0,0,0-.707-.686c-.3-.578,1.338-3.516,1.648-4.114a.378.378,0,0,1-.353-.229,7.437,7.437,0,0,1,.707-2.4h.117a17.69,17.69,0,0,0,.286-2.514c-.054.437-4.171,9.2-4.285,9.143,0-1.2.456-2.506.456-3.771-1.223-1.226-1.028-1.312-1.028-3.086,1.4-3.51,1.831-8.243,2.241-11.885a1.492,1.492,0,0,1,.318-.686,4.431,4.431,0,0,0,.421-3.771.786.786,0,0,1,.106-.572c0-2.4,1.823-5.713,2.4-8a4.488,4.488,0,0,0,.457-1.029,1.53,1.53,0,0,1,.457-1.371v-1.029a1.093,1.093,0,0,1-.114-.685c-1.508,0-1.982,2.669-2.545,4.114v.114a1.8,1.8,0,0,1-.359.457c-.951,2.273-2.81,5-2.81,7.428-.915,2.28-1,7.173-2.743,8.914,0-1.287.571-2.3.571-3.543-1.034-2.047,2.095-11.2,2.649-13.285.766-2.87,1.433-6.5,2.379-9.342a2.04,2.04,0,0,0-1.364.343.766.766,0,0,1-.794.114,3.177,3.177,0,0,0-.341.457.323.323,0,0,1-.229-.114.1.1,0,0,1-.112-.114c-1.817-.455-3.329.685-5,.685l-.682.343a.5.5,0,0,1-.568.343,4,4,0,0,1-1.591.229.282.282,0,0,1-.454,0h-.568c-.24-.181-1.209.438-.8.228a.749.749,0,0,0-.682-.686.912.912,0,0,0-.68.458c-1.073,0-2.062-.433-2.729.571-1.06.536-4.782-.337-6.475.343H193.1a62.231,62.231,0,0,1-3.636,8.228c-1.4,0-8.868,16.941-9.345,17.928-1.441,2.979-2.811,5.917-4.41,8.814-.785,1.422-4.571,6.68-4.571,7.885.322-1.778,2.654-3.955,2.171-5.657-.386-1.356-3.919,6.834-3.885,6.8a3.725,3.725,0,0,1-1.257,1.371c-.9.9-.587,2.735-1.715,3.886q.653.095,0,.685c-1.087-.814-1.338,1.72-2.4,1.372l-.343-.914c.3-.608,1.673-6.02.915-5.715-1.03,1.023-1.207,2.563-2.172,3.543a.338.338,0,0,1-.114.229c-2.055.767,1.008-6.254.685-7.543a2.7,2.7,0,0,1,.572-.457c.027-.466.229-.909.229-1.371a.674.674,0,0,0-.572-.343,1.889,1.889,0,0,0-.114.457,44.18,44.18,0,0,0-2.172,5.371c.165-.325-1.116-1.222-.685-2.285a15.178,15.178,0,0,1,2.514-7.771c-1.545-1.549,1.029-6.092,1.029-8.572l-.229.115a3.086,3.086,0,0,1-.457,1.257c.345-1.025-.872,2.55-1.257,1.371-.564-.145-1.245-.526.114-.8a6.973,6.973,0,0,1,.343-1.143,2.667,2.667,0,0,0-.8-1.6l-.972.285c1.287-.265.142-3.929-.171-4.4-.63-3.114,3.685-9.954,4.629-12.829.879-2.679,2.458-5.891,2.227-8.771-1.922-3.208.974-9.583,2.083-13.027,1.588-4.936,2.569-9.984,4.2-14.857a2.663,2.663,0,0,0,.343-.572c0-.115.114-.21.115-.342h0c.092,0,.13-.043.113-.114.171-.075.056-.258-.113-.344h.113l-.228-.114c.6.248.719-.114.457-.114a.18.18,0,0,0-.229-.114V93.88l.115-.114c2.432-5.364,3.052-11.116,5.914-16.4,1.267-2.339,3.53-7.7,6.085-8.971.874-1.746,1.915-3.929,3.886-4.686.714-.274,2.5.474,3.086-.114.272.079,3.1,1.237,3.771.571q.865.323,1.714.686a4.257,4.257,0,0,0,1.943.686c0,.073,6.681,3.925,7.542,4.571a3.619,3.619,0,0,1,.343.8,3.534,3.534,0,0,1,.8,1.257,11.375,11.375,0,0,1-.572,4c-.248,3.074.539,4.846-.513,8.164-1.6,5.025-4.011,9.82-5.315,14.921,3.679-.691,7.52-2.172,11.314-2.172,2.613-1.306,6.806-.808,9.6-1.371a.367.367,0,0,1,.229-.343.461.461,0,0,1,.115-.343,1.875,1.875,0,0,1,.8-.8.471.471,0,0,1,.115-.343c.13.088-.686-.509-.686-.343q.043-.9.457-.228a.286.286,0,0,0,.458,0,1.885,1.885,0,0,0,0-.914c.524-2.131,1.074-5.991,2.628-7.543a16.228,16.228,0,0,1,1.371-5.257,2.014,2.014,0,0,1,.229-.914l.114-.571a1.673,1.673,0,0,0,.343-1.029,13.635,13.635,0,0,0,.914-1.943c2.483-2.84,2.787-7.114,5.828-9.6a27.879,27.879,0,0,1,6.115-4c6.191-2.194,10.6,3.2,15.485,5.143,1.075,1.094.571,1.753.571,3.085.815.824,1.8,2.662.8,3.657a.665.665,0,0,1-.114.457c-.623,3.409-.848,6.411-2.172,9.714l-.114.115v.114A17.885,17.885,0,0,0,255.82,89.2c-.556,1.107-.457.842-.457,1.828a2.287,2.287,0,0,0-.343.915,2.855,2.855,0,0,1-.8,1.485q-.112.344-.229.686a1.066,1.066,0,0,1-.342,1.257h.342q.945.752-.684.572a2.951,2.951,0,0,1-.344.685.1.1,0,0,0-.114.115,2.828,2.828,0,0,0,1.029-.115,1.764,1.764,0,0,1,1.485.8c0,1.2-3.177,1.372-3.771,1.372q-.284.529-.572,1.057v.471C254.41,100.621,258.205,99.4,261.535,100.087Zm-99.082,48.762c.668.449.651-.386.8-.685a11,11,0,0,1,.228-2.058h.115a24.885,24.885,0,0,0,1.257-4.685C163.92,141.421,160.65,148.849,162.453,148.849Zm-.343-5.713q-.047.629-.114,1.257a5.607,5.607,0,0,0,1.028-2.058h-.914Zm.514,14.913c.084.418.421-.463.4-.628C162.719,157.649,162.585,157.858,162.624,158.049Zm.4-17.2c-.013.008-.227,2.02.572.228C163.519,140.85,163.328,140.775,163.024,140.85Zm.344,21.485h.457c.151-.305.3-.61.456-.915v-.114q-.755-.819-.685.229Q163.481,161.934,163.368,162.335Zm3.313,3.771a4.665,4.665,0,0,0,1.143-2.057v-.115C167.481,163.08,164.362,166.106,166.681,166.106Zm1.371-3.771a.722.722,0,0,0-.228.571Zm3.429-7.2.686.514c1.5-.752.342-.722.342-1.314A3.765,3.765,0,0,0,171.481,155.135Zm2.971-4.229a.225.225,0,0,0-.114-.342Q173.45,152.085,174.452,150.906ZM174,159.535c0,.114.074.057.228-.172v-.228A.616.616,0,0,0,174,159.535Zm1.028-9.886a.654.654,0,0,0-.686-.228C174.338,150.143,174.9,151.014,175.024,149.649Zm-.457,8,.629.743.628-.971-.628-.629Zm41.369,6.057a3.787,3.787,0,0,1-.572,1.357c-.869.109.305-1.712.344-1.814Zm1.486,8.457q-.907-1.047.342-.915C217.917,171.706,217.8,172.009,217.422,172.163Zm1.257-16.571a1.291,1.291,0,0,1,.457.457q.753-1.033-.228-1.143C218.831,155.135,218.755,155.363,218.679,155.592Zm4.114,13.256q.514-.513,1.028-1.028Q224.032,169.1,222.793,168.848Zm1.486-2.171c.152.3.114.457-.114.457S223.974,166.981,224.279,166.677Zm26.534-6.628q-.436-.5.229-.914A1.16,1.16,0,0,1,250.813,160.049Zm.458-2.286c.154.075.191.115.114.115A.1.1,0,0,1,251.271,157.763Zm.8,4.914a.626.626,0,0,1,.571-.457Q252.675,162.964,252.071,162.677Zm1.828-4.228a14.058,14.058,0,0,1-1.257,3.657C251.567,161.562,253.4,158.827,253.9,158.449Zm95.654-76c.683,17.436-17.951,28.769-32.342,34.17q.171.23.343.457c.562,1.416,2.857,2.812,2.857,4.343,1.714,3.49,3.934,6.79,5.571,10.342,1.467,3.183,2.443,7.109,5.057,9.657,0,.058.169.343.228.343.52,1.056-.118,2.062.8,2.971,0,.888,1.478,1.975.458,2.743,0,1.276-.818,2.274,0,3.886,0,1.514,1.426,2.907,1.6,4.456.006.009,1.063,2.042.742,2.172-.211.083-1.469-1.826-1.657-1.943a.458.458,0,0,0-.114.343c-.444.874.571,1.46.571,2.286a1.4,1.4,0,0,0,.458.8c.67,0,3.542,6.456,3.771,7.028.129.324-4.134-2.477-4.686-3.029a1.363,1.363,0,0,0-.685-.8.862.862,0,0,0-.115.343,1,1,0,0,0-.114.457c1.025.512,1.842,1.955,2.629,2.743.09.227,1.685,2.945,1.143,2.4-.879,0-1.407.354-2.172-.457,0-.345-1.124-1.01-1.371-1.257a3.983,3.983,0,0,1-.115-1.143l-.23-.229c-.678.221-.6.431-1.264-.228a6.752,6.752,0,0,1-1.5-1.143.866.866,0,0,1-.574-.457l-.345-.343a.416.416,0,0,1-.347-.114v.343a1.6,1.6,0,0,1,.575,1.142c.185-.925-8.214-6.217-9.312-7.313-1.96-.651-6.171-5.228-6.171-7.315a24.007,24.007,0,0,1-3.693-5.257c-.585,0-2.393-1.93-2.857-2.4,0-1.974-4.973-4.312-5.943-6.286-2.925,0-6.246-9.326-6.742-11.314a12.888,12.888,0,0,1-3.086.686,1.231,1.231,0,0,0-1.256.457c-1.786.719-4.483-.089-6.4.457a85.2,85.2,0,0,1-4.686,10.286c0,3.47-4.966,10.574-6.614,13.771-1.82,3.531-3.638,7.061-5.5,10.57-.9,1.7-4.114,5.8-4.114,7.2.251-1.219,2.106-3.345,1.886-4.685-.024-.144-1.886,1.214-1.886,2.044l-1.028,1.47.228.678a2.984,2.984,0,0,1-1.714,2.6,2.436,2.436,0,0,0-.228,1.809c-.478.466-.777,1.1-1.257,1.582q.508.011,0,.452c-.873-.573-1.119,1.556-2.058,1.248-.385-.13,1.129-5.882.571-5.6a4.808,4.808,0,0,0-1.6,2.514.651.651,0,0,0-.229.457l-.228.229c-1.728.494.88-5.21.685-6.4l.915-.914c.333-1.687-1.733-.55-2-1.086-.5-1,.516-2.2.628-3.114.176-1.439.47-4.053,1.257-4.828a1.11,1.11,0,0,0-.113-.686c-.014-.109-.048-1.029.113-1.029a1.411,1.411,0,0,0,0-.8,2.413,2.413,0,0,1,.571-.458v-.228c-.228-.077-.342-.154-.342-.229h-.114c-.664.442-.37,1.426-.971,1.829-.276.181-1.113-1.884-1.2-1.943l-.914.229c-.48,0,1.17-8.279,1.829-9.257,0-.674-.229-1.37-.229-2.057-1.051-1.051.642-5.329,1.258-6.171a5.847,5.847,0,0,1,.684-1.829c0-.706.458-1.35.458-2.057a8.686,8.686,0,0,0,.458-4.685c2.233-4.479-.989-12.077,5.37-14.628a14.262,14.262,0,0,1,1.258-5.143.659.659,0,0,0,.228-.457.654.654,0,0,1,.228-.343,4.555,4.555,0,0,1,.686-1.943q.059-.114.114-.228a.9.9,0,0,1,.344-.457c.539-.9-.007-1.938.8-2.743v-.571c.571-1.159,1.372-1.431,1.372-2.972.146-.3.767-1.282.457-1.6v-.228c1.487-3.24,1.59-6.981,3.2-10.171-1.218-2.425,1.248-.674-.343-2.286,0-1.364-4.16-.429-3.772-2.171a9.176,9.176,0,0,1,5.257-2.172c.255-.072-1.666-2.832-1.714-2.857a6.3,6.3,0,0,0-2.514,1.829c0-.076,1.071.228,1.257.228,0,1.268-2.374,1.987-3.314,1.715-.494-.482.434-1.942-.343-2.743-.84-.334-.252-3.131.343-3.428.436,0,.836.228,1.257.228a11.546,11.546,0,0,0-1.829-2.171c0,.005,2.206-3.15,2.23-3.171,1.354-1.223,3.212-1.247,4.4-2.429,10.288-4.121,22.212-4.331,33.148-5.078a86.286,86.286,0,0,1,21.221.964c6.676,1.222,19.126,5.309,20.485,13.371C348.914,77.352,349.322,80.454,349.553,82.452Zm-94.511,73.254c.369,1.107-1.387.371-1.028.058Zm.744-3.428a4.007,4.007,0,0,1-.058-1.486l-.229.229c-.305.076-.457-.075-.457-.457q-.4.8-.8,1.6a.63.63,0,0,0,.686.572Q255.957,153.191,255.786,152.278ZM254.7,147.25a5.174,5.174,0,0,0-.113,1.828q.322-.584.685-1.143a1.861,1.861,0,0,1,0-.914C255.117,146.946,254.928,147.021,254.7,147.25Zm.8-1.258c-.228.229-.267.42-.113.572A3.6,3.6,0,0,0,255.5,145.992Zm.571,18.285a1.3,1.3,0,0,0,.458-.914q-1.149-.759-1.029.8l.229.229Zm.229-13.828v-.114l-.113-.229c-.271-.044-.388.073-.343.343Zm.571,2.857v-.114h-.113A.1.1,0,0,0,256.87,153.306Zm1.6,14.171a2.136,2.136,0,0,0,1.029-1.828C258.837,164.331,257.112,168.143,258.47,167.477Zm-.342-8.342c0-.154-.039-.192-.114-.115S257.974,159.135,258.128,159.135Zm1.6,5.142c.074-.153.057-.039-.058.343S259.574,164.886,259.728,164.277Zm2.971-6.171q.628,1.017,1.028-.228C263.727,157.1,262.7,157.894,262.7,158.106Zm2.515-3.543a.364.364,0,0,0-.229-.342Q264.268,155.511,265.214,154.563Zm-.458,7.314c0,.075.075.038.229-.114v-.228C264.831,161.686,264.756,161.8,264.756,161.877Zm.914-8.342a.557.557,0,0,0-.571-.229C265.17,153.667,265.67,154.922,265.67,153.535Zm-.343,6.857q.559,1.137,1.029-.229Q265.661,159.029,265.327,160.392Zm8.686-81.025c.278.566,1.016-.561,0-.229ZM294.7,104.851a.256.256,0,0,1-.114-.343.322.322,0,0,1-.115-.228c-.851-1.129-1.89.686-2.857.686a3.278,3.278,0,0,0-.457,1.485C292.315,106.18,293.92,105.783,294.7,104.851ZM321.325,86.8c.37-.49-.286-1.17-.685-1.371a3.81,3.81,0,0,1-.458-.229,6.372,6.372,0,0,0-.686.114c.052-.051-.571.3-.571.115a.659.659,0,0,1-.457.228v-.228a2.533,2.533,0,0,1-1.028-.115,26.194,26.194,0,0,1-4.628-.342c.29.1.576.215.856.342.353.358-2.759.187-1.256-.114.122-.5-12.7-.162-14.172.572a145.769,145.769,0,0,1-5.371,15.542v.342l-.228.458a19.918,19.918,0,0,0,2.171-1.143h.114c7.645-3.751,18.862-6.55,25.028-12.685,0-.075.114-.19.342-.343,0-.075-.076-.19-.228-.343A1.165,1.165,0,0,0,321.325,86.8Zm9.828,73.94C330.056,160.735,332.56,162.142,331.153,160.735Zm.686,4.742c.228-.114.266-.248.114-.4l-.342.114C331.534,165.5,331.611,165.591,331.839,165.477Zm-.114-3.371c-.481.234,1.066.8.457-.114A.75.75,0,0,0,331.725,162.106Zm11.436-24.456c-.076.153-.076.228,0,.228S343.237,137.8,343.161,137.65Zm1.371,37.027a.738.738,0,0,0,.342.8c.383-.154.5-.457.343-.914Q344.647,174.22,344.532,174.677Zm-1.023-37.038-.006.011C343.5,137.673,343.505,137.664,343.509,137.639Zm.508-.789a.381.381,0,0,0,.172-.343c.471-.929,1.6-4.225.8-5.028-1.026-1.027-1.256,3.715-1.256,4.685a8,8,0,0,0-.223,1.475A2.491,2.491,0,0,1,344.017,136.85Zm6.229,35.141c-.306.19-.42.324-.343.4a.907.907,0,0,0,1.028-1.028A2.251,2.251,0,0,1,350.246,171.991Zm3.886-13.77q-1.248.011-.229.571A2.224,2.224,0,0,0,354.132,158.221Zm35.312-88.34c-.629-1.782-3.358-5.028-5.257-5.028-3.017-2.4-7.461-2.927-11.085-3.657-.306.3-1.092.07-1.486.114-2.6.294-3.064.852-4.571,2.929A46.606,46.606,0,0,0,360.988,75.6c-1.554,1.557-2.169,6.371-2.714,8.314-.9,3.214-1.718,7.3-3.571,10.085a3.958,3.958,0,0,0-.571,1.142c-1.588,4.712-2.912,9.744-4.229,14.571-.6,2.187-3.25,7.053-2.4,8.743,0,3.357-4.488,8.483-3.086,12a.438.438,0,0,0,.686-.114,1.14,1.14,0,0,0,.728.933c-.771,3.85-1.242,7.553-2.271,11.352-.781,2.889-2.457,7.166-2.457,10.114,0,.515,1.44-2.308,1.486-2.4a6.076,6.076,0,0,0,.457-.571c0,.972-.4,4.288-1.029,4.914-.364,1.48-.837,3.037,0,3.885l-.228.686c-1.643,1.642-1.2,3.634-2.171,5.6,0,.6-.01,4.694.571,4.114a65.426,65.426,0,0,0,3.964-12.062q.145.3.6.214c-.269.695-.184,1.395-.622,2.028a1.166,1.166,0,0,0,.062-.58,2.373,2.373,0,0,0-.178.769c-.448.807-1.834,5.976-1.079,6.545,0,.577-.467,1.5-.079,2.024a1.321,1.321,0,0,0-.15.6q.849-.012.8-1.029c-.048-.072-.07-.112-.1-.162q.128-.321.275-.635c.014.038.042.072.052.111.9-1.791,1.633-3.691,2.5-5.5.3.293,1.119,1.541.7,1.959-1.072,0-.517,3.72-1.143,4.342q-.226.915-.456,1.829c0,1.056-.344,2.067-.344,3.2a2.707,2.707,0,0,1-.685.571c.372.732,2.176,1.194,1.6-.228a19.192,19.192,0,0,1,1.714-2.629,3.8,3.8,0,0,0-.114-.914c.543-1.369,1.586-.69,1.257-2.514a4.808,4.808,0,0,1,.8-.686,2.542,2.542,0,0,1,1.143.229.783.783,0,0,0-.686-.572c.992-.982.461-.228,1.828-.228.075.074,1.214,1.257.115,1.257-.142.176-.785,2.225-.415,2.528,1,.819,1.3-1.66,1.329-2.186.994-1.019,3.2-1.53,1.714-3.771a2.656,2.656,0,0,1-1.485.915q-.44.243-.895.457c-.318-.586.253-3.255-.019-3.2-.3,0-1.039,3.476-1.829,2.285-.237-.826.822-2.978,1.143-3.771-.229-.762-.306-1.182-.229-1.257,1.992,0,.528,1.18,1.657,1.829.582.331-.073-3.331-.057-3.314a16.426,16.426,0,0,1,1.143-4l.457.114a.331.331,0,0,0,.229.114c-.31,2.138,1.221-.184,1.656.686l-.056.914c-1.137,1.134-.429,4.322-1.829,5.257h-.229l-.342.343a.96.96,0,0,0,.8,1.257,3.779,3.779,0,0,0,.228.914.635.635,0,0,0,.114-.8,5.353,5.353,0,0,0,1.372-1.028c0-.836-.566-4.343,1.029-4.343-.425.255,1.444-3.7,1.485-3.828.535-1.714.465-3.653,1.829-4.743a38.912,38.912,0,0,0,1.942-7.314c.093-.506.96-2.986,1.257-2.4a.908.908,0,0,0,.115-1.143,3.572,3.572,0,0,0,.8-1.485c2.915-2.328,4.32-8.44,5.628-11.828.754-1.955,1.34-6.918,2.829-8.4,1.507-3.324,2.363-7.021,4-10.285,0-2.72,5.4-7.681,4.457-10.057a8.114,8.114,0,0,1,.343-1.029,2.291,2.291,0,0,0,.685-1.142c-.174-.694.339-1.184.5-1.848,2.066-2.7,3.289-8.3,4.337-11.566C388.638,76.707,389.744,73.13,389.444,69.881ZM341.9,157.992q-.228-.231.343-.686l.114.343Q342.132,158.219,341.9,157.992Zm15.428-11.886c-.154,0-.211-.017-.172-.056S357.254,146.032,357.331,146.106Zm-1.6-1.485-.343,1.029c-.742.742.717-2.3.2-1.176Zm-10.274,9.395a.877.877,0,0,1-.125-.481q.342-.8.685-.229a.843.843,0,0,1-.457.857v-.171A.346.346,0,0,0,345.457,154.016Zm1.018-2.881q.454-1.483.571-.914Q346.76,151.82,346.475,151.135Zm-2.115,5.143a1.588,1.588,0,0,0-.131.175c.072-.374,1.217-1.435,1.217-1.433a8.389,8.389,0,0,0-.307.907A.857.857,0,0,0,344.36,156.278Zm5.086-.114a3.787,3.787,0,0,0-.915.228,20.462,20.462,0,0,1-.8,2.4,8.37,8.37,0,0,1-.228,1.943.624.624,0,0,1-.951-.2,6.835,6.835,0,0,0,.31-.939c.652-1.624,1.247-3.275,1.935-4.883A1.283,1.283,0,0,1,349.446,156.164Zm-.045-2.747c.072-.113.142-.226.211-.34C349.656,153.3,349.583,153.409,349.4,153.417Zm.5-1.125a6.007,6.007,0,0,1,.661-1.614,1.206,1.206,0,0,1,.132-.334,1.589,1.589,0,0,1-.216.905l.229.686A1.984,1.984,0,0,1,349.9,152.292Zm3.091,1.7v.229l-.457.914C352.084,155.8,353.692,151.515,352.988,153.992Zm.8-5.028q.094-1.164,1.029-.572C354.786,148.965,354.444,149.84,353.788,148.964Zm1.6,3.771a.726.726,0,0,1-.571-.457q.33-.535.914,0Q355.843,152.848,355.388,152.735Zm1.371-1.657c-.382-.038-.648-.057-.8-.057q-.591-1.309.915-.8c.094.255.246.37.457.343Q357.331,151.137,356.759,151.078Zm1.143-2.686q-.021.72-.571.457c0-.145-.88-2.609.457-1.942A4.148,4.148,0,0,1,357.9,148.392Zm.057-5.314a1,1,0,0,1-.4-.4q.545-.7.915,0C358.32,143.06,358.149,143.192,357.959,143.078Zm6.686-8.056q-.457-.114-.114-.686a.653.653,0,0,1,.685.228C365.14,134.946,364.948,135.1,364.645,135.022Zm1.029-4.114q.353-.859.685-.115C366.13,131.25,365.9,131.29,365.674,130.908Zm-14.457,39.883c.19,0,.209-.153.057-.457C351.045,170.638,351.026,170.791,351.217,170.791Zm12.457-30.056c-.325,0-.694.675.171.458A.556.556,0,0,0,363.674,140.735ZM476.918,72.4c.827.335.09,2.435.114,2.4-1.1,1.617-.347.8-2.171.8a26,26,0,0,0,1.829,2.514c-.279,2.211-4.672,5.485-6.972,5.485-3.648,1.468-8.83,3.429-12.914,3.429-2.123,1.067-6.479,1.195-8.913,1.714a109.8,109.8,0,0,0-12.741,3.477c-4.151,1.423-12.16,3.938-15.487,7.265a.855.855,0,0,0-.342.114,5.533,5.533,0,0,0-1.372.915h-.115c6.27-2.058,15.645-1.033,22.207-.486,10.718.893,22.405,2.076,30.192,10.485,8.883,9.593,6.155,24.788-2.623,33.428-7.682,7.561-18.365,12.224-28.176,16.227h-.114c-7.97,3.528-16.428,5.972-24.8,8.336-5.9,1.668-13.32,4.921-19.314,4.921a6.471,6.471,0,0,1-1.714,0c-2.752-.93-7.043.582-9.943,1.028-2.549.393-5.419,1.25-8,1.029-.414-.036-3.121-1.208-3.314-.972.1-.131,2.887-.4,2.285-1.2a3.669,3.669,0,0,1-3.542-.457c-.217-1.073,9.4-3.807,10.456-3.6-2.538-.523-6.3.071-8.857.285-1.759.148-5.1-.031-6.742.8-.839-.141-3.9,1.306-4.114.229,2.5-2.562,12.3-2.208,15.656-3.543q1.413.2,1.258-.914c-.252.049-4.169,1.117-3.429-.115a37.025,37.025,0,0,0,4.572-1.657c-.747.375-9.6.952-9.6,1.2a3.963,3.963,0,0,1,1.828-.571q.735-.471,1.486-.914c1.56-3.928,8.235-4.974,12.114-6.514l.457-.458c1.1-.369,3.566-.209,4-1.714,2.532-.834,11.543-2.762,11.543-4.914-.941-1.248-2.093.851-3.2.572-1.787.449-4.341,1.371-6.057,1.371-.99-.658-2.353-.058-3.086.686-2.386.947-5.9,2.514-8.571,2.514a3.531,3.531,0,0,1,1.258-.8,4.322,4.322,0,0,0,1.828-.493c1.76-3.808,14.87-5.593,18.4-7.278h.115c6.66-2.764,13.653-4.6,20.305-7.35,4.844-2,13.609-4.261,17.293-7.964a14.311,14.311,0,0,0,5.714-2.971l.343-.686v-.228c-.437-.426-.594-1.029-1.257-1.029l.228-.228c-.228,0-.268-.075-.114-.229h-.114c-.231-.051-.928.007-.457-.228a.82.82,0,0,0,.114-.8,4.2,4.2,0,0,0-.686.342c0-.831-15.934-.716-16.684-.342q-.8-.759-1.372.114c-2.634,0-6.3.438-8.8-.572-1.479.008-4.487.654-5.485-.342-11.85-2.917-26.658-7.756-24.113-23.542,1.623-10.069,9.356-15.169,15.885-21.714a1.882,1.882,0,0,0,.456-.114q6.62-3.3,13.219-6.666c2.683-1.361,6.671-4.419,9.752-4.419a28.159,28.159,0,0,1,4.971-1.314q-.372-.049-.743-.115c-.425-.206,2.332-.824,1.029-.171.034.139,18.4-3.574,19.542-4.228a1.284,1.284,0,0,0,1.6-.457c.679,0,1.105-.293,1.829-.115,0-.541,10.921-.5,11.884-.114.236.006.454.114.687.114,1.359.689,3.06.421,4.456,1.257.776,2.327-1.373,1.043.114,2.515,0,.624,1.137.626,1.486.8,1.292,1.623,3.256.259,1.457,2.486-.78.967-5.02.628-5.414,1.572.285-.684,2.855,2.989,2.186,2.857.392.081,2.8-1.3,2.8-1.715q-.678-.293-1.371-.551a.872.872,0,0,1,.115-.535h.228a4.276,4.276,0,0,1,3.428-.8,1.868,1.868,0,0,1-.228,1.485Q476.688,72.284,476.918,72.4Zm-69.483,49.713a5.418,5.418,0,0,0,.8.685c-.478-1.419,1.02-1.137-.114-2.285v-.229c-3.665-1.042-8.805-4.571-12.114-4.571-.421,1.05.561,1.023,1.029,1.486C400.4,118.553,404.166,120.474,407.435,122.108Zm61.483-52.227q-1.143-.168,0,.115Z"/>
    </g>
  </g>
</svg>
