<svg id="ckn-geo" xmlns="http://www.w3.org/2000/svg" viewBox="0 0 540 12.333">
  <defs>
    <style>
      .fill-white {
        fill: #e6e6e6;
      }
        
      .stroke-black {
        stroke: #161616;
        stroke-linecap: round;
        stroke-miterlimit: 10;
        stroke-width: 2px;
      }
    </style>
  </defs>
    
  <symbol id="geo">
    <title>based in NYC</title>
    <path d="M224.364,11.333V9.51c.36-.155.4-.468.408-.815v-5c-.012-.348-.048-.66-.408-.816V1.055h4.654a4.536,4.536,0,0,1,2.4.42,2.417,2.417,0,0,1,1.019,2.183,2.112,2.112,0,0,1-1.62,2.3v.024c1.32.168,1.776,1.223,1.776,2.424a2.909,2.909,0,0,1-.864,2.314,3.842,3.842,0,0,1-2.566.611Zm3.61-6.3h.216c.707,0,1.067-.156,1.067-.924s-.4-.923-1.067-.923h-.216Zm0,4.162h.276c.78,0,1.056-.313,1.056-1.128,0-.791-.276-1.1-1.056-1.1h-.276Z"/>
    <path d="M236.687,11.333h-3.539V9.51c.348-.239.384-.767.48-1.163l1.355-7.292h4.558l1.5,7.448c.06.323.18.9.54,1.007v1.823h-4.042V9.51a.549.549,0,0,0,.372-.563,1.206,1.206,0,0,0-.048-.3h-1.547a1.3,1.3,0,0,0-.048.3.534.534,0,0,0,.42.563Zm.887-4.689L237.046,3.6h-.024l-.5,3.047Z"/>
    <path d="M246.6,4.161c0-.456-.013-1.091-.636-1.091a.614.614,0,0,0-.624.683.751.751,0,0,0,.192.576,2.287,2.287,0,0,0,.9.408,8.966,8.966,0,0,1,2.446.911,1.885,1.885,0,0,1,.792.984,4.032,4.032,0,0,1,.24,1.415V8.1c0,1.979-.876,3.442-3.934,3.442a5.954,5.954,0,0,1-3.73-1.079V7.7h3.13a3.847,3.847,0,0,0,.1,1.283.656.656,0,0,0,.576.336c.432,0,.623-.42.623-.792,0-1.055-.659-1.139-1.547-1.355-1.943-.48-3.034-.948-3.034-3.167V3.778a2.5,2.5,0,0,1,1.067-2.291,4.437,4.437,0,0,1,2.639-.636,6.353,6.353,0,0,1,3.79,1.08V4.353H246.6Z"/>
    <path d="M258.463,7.616v3.717h-7.7V9.51c.383-.239.347-.624.347-1.007V3.886c0-.384.036-.768-.347-1.008V1.055h7.7V4.533h-2.95V4.221c0-.7-.1-.983-.959-.983h-.192V5.073h2.027v2h-2.027V9.151h.192c.959,0,.947-.361.959-1.2V7.616Z"/>
    <path d="M263.613,1.055a4.217,4.217,0,0,1,2.615.576,2.948,2.948,0,0,1,.923,2.578v3.85a2.988,2.988,0,0,1-.827,2.518,3.5,3.5,0,0,1-2.615.756h-4.534V9.51c.36-.155.4-.468.408-.815v-5c-.012-.36-.036-.66-.408-.816V1.055Zm-.827,8.107h.251c.7,0,.912-.252.912-1V4.293c0-.743-.216-1-.912-1h-.251Z"/>
    <path d="M272.483,3.886c0-.384.037-.768-.347-1.008V1.055h3.9V2.878c-.384.24-.347.624-.347,1.008V8.5c0,.383-.037.768.347,1.007v1.823h-3.9V9.51c.384-.239.347-.624.347-1.007Z"/>
    <path d="M282.309,5.7h.023V3.886c0-.384.036-.768-.348-1.008V1.055h3.287V2.878c-.384.24-.348.624-.348,1.008v7.447h-3.107l-1.907-4.617h-.023V8.5c0,.383-.036.768.347,1.007v1.823h-3.19V9.51c.384-.239.348-.624.348-1.007V3.886c0-.384.036-.768-.348-1.008V1.055h3.478Z"/>
    <path d="M295.749,5.7h.023V3.886c0-.384.037-.768-.347-1.008V1.055h3.286V2.878c-.384.24-.348.624-.348,1.008v7.447h-3.106L293.35,6.716h-.024V8.5c0,.383-.036.768.348,1.007v1.823h-3.191V9.51c.384-.239.348-.624.348-1.007V3.886c0-.384.036-.768-.348-1.008V1.055h3.479Z"/>
    <path d="M300.047,3.91a2.324,2.324,0,0,0-.659-1.032V1.055h3.67V2.386a3.488,3.488,0,0,0,.587,1.895,3.488,3.488,0,0,0,.587-1.895V1.055h3.227V2.878a1.418,1.418,0,0,0-.563.743L305.012,7.28V8.5c0,.383-.035.768.348,1.007v1.823h-3.9V9.51a.71.71,0,0,0,.324-.456,2.744,2.744,0,0,0,.024-.551V7.5Z"/>
    <path d="M312.489,4.209c0-.42.084-1.139-.588-1.139s-.588.719-.588,1.139v3.97c0,.42-.084,1.14.588,1.14s.588-.72.588-1.14V7.016h3.094v3.43a5.9,5.9,0,0,1-3.454,1.091,4.68,4.68,0,0,1-3.166-.851c-.888-.827-.852-1.907-.852-3.035V4.077a2.92,2.92,0,0,1,.876-2.446,4.609,4.609,0,0,1,3.046-.78,7.07,7.07,0,0,1,3.55,1.116V4.821h-3.094Z"/>
  </symbol>
  
  <g>
      <use href="#geo" class="stroke-black" x="0" y="0" width="540" height="12.333"></use>
      <use href="#geo" class="fill-white" x="0" y="0" width="540" height="12.333"></use>
  </g>
</svg>
