<svg xmlns="http://www.w3.org/2000/svg" viewBox="0 0 540 138.67">
  <defs>
    <style>
      .cls-1 {
        fill: #e6e6e6;
      }
    </style>
  </defs>
  <title>presentation-geo</title>
  <g id="Layer_5" data-name="Layer 5">
    <path class="cls-1" d="M150.176,71.585a2.875,2.875,0,0,0-.959,1.133c-.222.658,2.621-.338,2.971-.686a4.062,4.062,0,0,0,1.714-.686.464.464,0,0,1,.114-.343c.039-.114.077-.228.114-.343a1.821,1.821,0,0,1,1.484-1.028c.254-.388,3.938-2.514,4.795-2.514q-.35-.459.343-.457c.535,1.083,1.763-.631,2.457.057l-.172.857c-.527.315-4.174,3.854-3.428,4,1.08-.117,2.679-1.828,3.656-1.828l.858.514c-.315,1.547-5.032,5.037-6.55,5.314-.866,1.471,1.266,1.447.784,2.857-.339.99-3.253,1.708-3.253,2.629-1.512,2.56-4.265,2.843-5.78,5.371.6.8,1.907-.629,2.457-.743.465-.093-.079,2.414-.057,2.457q1.447.159.457,1.029c-2.139.718-2.572,3.1-4.366,4.485-2.987,2.308-7.007,3.747-10.27,5.572a32.654,32.654,0,0,0-5.717,3.542c-1.437,1.3-1.576,4.114-4.459,4.114-3.953,3.069-12.512,6.4-17.493,6.4-8.483,4.134-21.919.748-29.36-3.761-11.1-6.724-16.572-18.225-19.062-30.6-5.123-25.464,13.9-43.456,32.418-57.065a5.742,5.742,0,0,1,.572-1.714,1.773,1.773,0,0,1,.457-.685c.831-3.779,3.444-4.918,5.942-7.429,0-.1.526-.343.572-.343l.685-.456a1.854,1.854,0,0,1,.458-.115l.114-.114h.228c7.1-3.891,22.975-15.345,31.33-9.257,5.127,0,7-1.212,12.292.486,2.843.913,2.715.355,4.459,3.085,1.153,1.806,2.8,4.314,2.8,6.6-.941,1.879.948,5.354.115,7.143-.656,1.408-1.216,1.026-2.171,2C147.269,25.6,141.6,27.635,135.6,29.634v.114a11.141,11.141,0,0,1-2.172,1.257c-2.1,0-10.236,4.567-11.893,5.828-.114.039-.228.077-.343.114l-.114.115h-.228a.912.912,0,0,1-.915.571c-.568.284-1.944.635-1.944,1.486a.33.33,0,0,0-.115.228c-.1.1-.457.529-.457.686a2.131,2.131,0,0,0-.685,1.143c-.175.434-1.605,2.286-2.174,2.286a13.7,13.7,0,0,1-1.485,1.485c-.482.481-1.217.646-1.717,1.143,0,.077-.076.191-.228.343a.65.65,0,0,1-.343.228c-.383.129-2.794.825-2.972,1.372l-1.258.228a14.436,14.436,0,0,1-1.716.686q-.7-.38-.228-.686a1.15,1.15,0,0,0,.343-.571c-.607-1.2-2.378,1.483-2.837,1.943a.1.1,0,0,1-.116.114c0,1.36-3.506,4.951-3.506,2.286-5.541,4.787-8.629,16.1-8.488,23.2a4.222,4.222,0,0,1-1.256.114c-.641-3.179.05-6.445-.228-9.714-3.306,6.552.037,17.961,6.4,21.485a5.337,5.337,0,0,0,.8.343,9.726,9.726,0,0,0,4.342.571c1.554-.765,4.929-.333,6.543-.571a61.32,61.32,0,0,0,6.485-1.372c2.707-.714,12.471-2.262,14.286-4.685,5.977-1.9,11.33-5.255,17.142-7.428A34.214,34.214,0,0,0,150.176,71.585ZM89.327,63.918a7.49,7.49,0,0,0-.572,1.371.466.466,0,0,0,.343-.114,8.564,8.564,0,0,0,.913-2.515A13.366,13.366,0,0,0,89.327,63.918Zm50.74,29.713q.228.957,1.256.457Q140.977,93.149,140.067,93.631ZM141.9,80.26a.748.748,0,0,0,.343.686C142.483,80.7,142.977,79.178,141.9,80.26Zm.8,12.685c.952.311.442-2.041-.228-.686A.9.9,0,0,0,142.7,92.945Zm.229-12.8.743-.458Q142.7,79.318,142.924,80.146Zm7.767,7.885c-1-1.636-1.586,2.467-3.135.914q-.512.672.232.572c-.022.025-2.194.546-2.089.514-.244.075-1.282.516-1.975.743,0,3.02,3.507.187,4.76-.229a5.632,5.632,0,0,1,2.44-1.485l.228-.343A1.12,1.12,0,0,0,150.691,88.031Zm-5.139,5.6q1.249-.707-.228-.457C145.247,93.477,145.324,93.631,145.552,93.631Zm0-19.314q-.238,1.217.915.458v-.858Zm1.828,4c.457-1.368-.805-.5-1.028,0A1.105,1.105,0,0,0,147.38,78.317Zm-.228,14.857a9.064,9.064,0,0,1,1.371-1.486C147.834,91.688,145.2,93.174,147.152,93.174Zm.457-5.257q.338-1.173-1.029.114Q146.925,88.748,147.609,87.917Zm6.057-2.515q.05,1.356-1.029,0Q152.866,84.6,153.666,85.4Zm1.2-11.142c-.022.007,3.022-.81,2.4-1.257-1-.71-1.8.154-2.571.743Q154.7,74.319,154.866,74.26Zm4.057,6.8c.5,1.25-2.647,2.474-3.428,2.628C154.184,84.508,158.362,81.436,158.923,81.06Zm-1.371-3.543a.489.489,0,0,0-.457-.457,2.365,2.365,0,0,0-.915.457Q156.624,78.926,157.552,77.517Zm1.485,3.543q.274-.663.686-.229C159.569,81.213,159.341,81.288,159.037,81.06Zm-1.5,15.542q-.469-.6.343-1.029A1.636,1.636,0,0,1,157.539,96.6Zm1.6,3.2a.5.5,0,0,1,.572-.571Q159.48,100.145,159.139,99.8Zm2.285-4.343c0,1.045-1.257,2.735-1.713,3.657-1.161-.693.868-3.853,1.485-4.343C161.73,93.343,161.473,95.211,161.424,95.459ZM261.535,39.383a1.7,1.7,0,0,1,2.285.118c-3.635,1.868-8.994.537-12.8,2l-.685.118a2.264,2.264,0,0,1-.228.587q1.069-.206.8.7a4.483,4.483,0,0,1-1.258.222l-.457,1.089c.769-.125,6.374-.472,6.4-.525-1.093.467-2.3.242-3.2,1.143-.549,1.377-.474,1.436-1.942,2.171a3.28,3.28,0,0,0-1.486.686,6.4,6.4,0,0,0-1.257.228,1.454,1.454,0,0,0,0,.8l-.228.342c-.377,1.535-1.372,3.414-1.372,5.029-.924,2.3-2.174,4.222-2.628,6.742-2.131,3.571-3.114,8.541-4.571,12.445-1.215,3.253-4.185,7.5-4.343,10.868q-.513.744-1.028,1.486a7.038,7.038,0,0,0-1.486,2.514c-.981.733-.784,3.1-1.143,3.314a2.7,2.7,0,0,0-1.029,1.029,7.887,7.887,0,0,0,0,3.657,3.694,3.694,0,0,1-1.485,1.029,1.194,1.194,0,0,1-.114.914,1.279,1.279,0,0,1-.343-.914l-.343-.115a11.739,11.739,0,0,1-1.028,2.514,7.443,7.443,0,0,1,1.142-.914.949.949,0,0,1,.229.914c2.055,2.066-1.517,2.532-2.057,3.086-.006.023-.077.686.114.686.032.322-.581,2.249-1.429,1.613-.632-.473.4-2.652.857-3.1-.586.277-2.854,2.172-2.742,2.514-.067-.2,1.109-2.83.114-2.628q-.438.838-.8,1.714a1.631,1.631,0,0,1-1.371,1.028,1.837,1.837,0,0,1-.343.457l.114,1.029a17.991,17.991,0,0,0-1.942,2.857q.257,1.284-1.029.914a1.466,1.466,0,0,1-.686-.685,1.764,1.764,0,0,0,.8-.686c0-1.183.344-2.259.344-3.314.379-.962.355-2.764,1.142-3.543q.344-.116,0-.8V100.6c-.762.754-5.082,10.986-5.714,10.742,0-4.195,4.024-10.97,5.371-14.971-.78,0-2.409,5.431-2.555,5.715a1.04,1.04,0,0,0-.707-.686c-.3-.578,1.338-3.516,1.648-4.114a.378.378,0,0,1-.353-.229,7.437,7.437,0,0,1,.707-2.4h.117a17.706,17.706,0,0,0,.286-2.514c-.054.436-4.171,9.2-4.285,9.143,0-1.2.456-2.506.456-3.772-1.223-1.225-1.028-1.311-1.028-3.085,1.4-3.51,1.831-8.243,2.241-11.886a1.493,1.493,0,0,1,.318-.685,4.432,4.432,0,0,0,.421-3.771.786.786,0,0,1,.106-.572c0-2.4,1.823-5.714,2.4-8a4.461,4.461,0,0,0,.457-1.028,1.53,1.53,0,0,1,.457-1.371V66.089a1.1,1.1,0,0,1-.114-.686c-1.508,0-1.982,2.67-2.545,4.114v.115a1.8,1.8,0,0,1-.359.457c-.951,2.273-2.81,5-2.81,7.428-.915,2.28-1,7.173-2.743,8.914,0-1.287.571-2.3.571-3.543-1.034-2.047,2.095-11.2,2.649-13.285.766-2.87,1.433-6.5,2.379-9.342a2.045,2.045,0,0,0-1.364.342.766.766,0,0,1-.794.115,3.177,3.177,0,0,0-.341.457.323.323,0,0,1-.229-.114.1.1,0,0,1-.112-.114c-1.817-.455-3.329.685-5,.685l-.682.343a.5.5,0,0,1-.568.343,3.98,3.98,0,0,1-1.591.228.281.281,0,0,1-.454,0h-.568c-.24-.18-1.209.439-.8.229a.748.748,0,0,0-.682-.686.913.913,0,0,0-.68.457c-1.073,0-2.062-.432-2.729.572-1.06.535-4.782-.337-6.475.343H193.1a62.231,62.231,0,0,1-3.636,8.228c-1.4,0-8.868,16.941-9.345,17.928-1.441,2.979-2.811,5.917-4.41,8.814-.785,1.422-4.063,6.527-4.571,7.885.322-1.778,2.654-3.955,2.171-5.657-.386-1.357-3.919,6.834-3.885,6.8a3.733,3.733,0,0,1-1.257,1.371c-.9.9-.587,2.735-1.715,3.886q.653.094,0,.685c-1.087-.814-1.338,1.72-2.4,1.372l-.343-.915c.3-.607,1.673-6.019.915-5.714-1.03,1.023-1.207,2.563-2.172,3.543a.338.338,0,0,1-.114.229c-2.055.767,1.008-6.254.685-7.543a2.667,2.667,0,0,1,.572-.457c.027-.466.229-.909.229-1.371a.674.674,0,0,0-.572-.343,1.878,1.878,0,0,0-.114.457,44.18,44.18,0,0,0-2.172,5.371c.165-.325-1.116-1.222-.685-2.286a15.178,15.178,0,0,1,2.514-7.77c-1.545-1.55,1.029-6.092,1.029-8.572l-.229.115a3.086,3.086,0,0,1-.457,1.257c.345-1.025-.872,2.55-1.257,1.371-.564-.145-1.245-.526.114-.8a6.973,6.973,0,0,1,.343-1.143,2.67,2.67,0,0,0-.8-1.6l-.972.286c1.287-.265.142-3.929-.171-4.4-.63-3.113,3.685-9.953,4.629-12.828.879-2.679,2.458-5.891,2.227-8.771-1.922-3.208.974-9.583,2.083-13.027,1.588-4.936,2.569-9.984,4.2-14.857a2.663,2.663,0,0,0,.343-.572c0-.115.114-.21.115-.343h0c.092,0,.13-.042.113-.114.171-.074.056-.257-.113-.343h.113l-.228-.114c.6.247.719-.114.457-.114a.181.181,0,0,0-.229-.115v-.114l.115-.114c2.432-5.364,3.052-11.116,5.914-16.4,1.267-2.339,3.53-7.7,6.085-8.971.874-1.746,1.915-3.93,3.886-4.686.714-.274,2.5.474,3.086-.114.272.079,3.1,1.237,3.771.571q.865.322,1.714.686a4.269,4.269,0,0,0,1.943.686c0,.073,6.681,3.925,7.542,4.571a3.619,3.619,0,0,1,.343.8,3.526,3.526,0,0,1,.8,1.257,11.375,11.375,0,0,1-.572,4c-.248,3.073.539,4.846-.513,8.164-1.6,5.025-4.011,9.82-5.315,14.921,3.679-.691,7.52-2.172,11.314-2.172,2.613-1.306,6.806-.808,9.6-1.371a.367.367,0,0,1,.229-.343.461.461,0,0,1,.115-.343,1.875,1.875,0,0,1,.8-.8.471.471,0,0,1,.115-.343c.13.088-.686-.51-.686-.343q.043-.9.457-.228a.286.286,0,0,0,.458,0,1.885,1.885,0,0,0,0-.914c.524-2.131,1.074-5.991,2.628-7.543a16.222,16.222,0,0,1,1.371-5.257,2.014,2.014,0,0,1,.229-.914l.114-.571a1.673,1.673,0,0,0,.343-1.029,13.635,13.635,0,0,0,.914-1.943c2.483-2.84,2.787-7.114,5.828-9.6a27.879,27.879,0,0,1,6.115-4c6.191-2.194,10.6,3.205,15.485,5.142,1.075,1.095.571,1.754.571,3.086.815.824,1.8,2.662.8,3.657a.667.667,0,0,1-.114.457c-.623,3.409-.848,6.411-2.172,9.714l-.114.114v.114a17.9,17.9,0,0,0-1.486,5.372c-.556,1.107-.457.842-.457,1.828a2.283,2.283,0,0,0-.343.914,2.854,2.854,0,0,1-.8,1.486q-.112.343-.229.686a1.066,1.066,0,0,1-.342,1.257h.342q.945.752-.684.571a2.938,2.938,0,0,1-.344.686.1.1,0,0,0-.114.114,2.835,2.835,0,0,0,1.029-.114,1.764,1.764,0,0,1,1.485.8c0,1.2-3.177,1.371-3.771,1.371q-.284.531-.572,1.058v.471C254.41,39.916,258.205,38.7,261.535,39.383ZM162.453,88.145c.668.449.651-.386.8-.685a11,11,0,0,1,.228-2.058h.115a24.885,24.885,0,0,0,1.257-4.685C163.92,80.717,160.65,88.145,162.453,88.145Zm-.343-5.714q-.047.63-.114,1.257a5.6,5.6,0,0,0,1.028-2.057h-.914Zm.514,14.914c.084.418.421-.463.4-.629C162.719,96.945,162.585,97.154,162.624,97.345Zm.4-17.2c-.013.008-.227,2.02.572.228C163.519,80.146,163.328,80.071,163.024,80.146Zm.344,21.484h.457c.151-.3.3-.609.456-.914V100.6q-.755-.82-.685.228Q163.481,101.23,163.368,101.63Zm3.313,3.772a4.665,4.665,0,0,0,1.143-2.057v-.115C167.481,102.376,164.362,105.4,166.681,105.4Zm4.8-10.971.686.514c1.5-.752.342-.722.342-1.314A3.765,3.765,0,0,0,171.481,94.431Zm2.971-4.229a.225.225,0,0,0-.114-.342Q173.45,91.381,174.452,90.2ZM174,98.831c0,.114.074.056.228-.172v-.228A.614.614,0,0,0,174,98.831Zm1.028-9.886a.652.652,0,0,0-.686-.228C174.338,89.439,174.9,90.31,175.024,88.945Zm-.457,8,.629.743.628-.972-.628-.628ZM215.936,103a3.787,3.787,0,0,1-.572,1.357c-.869.109.305-1.712.344-1.814Zm1.486,8.457q-.907-1.048.342-.915C217.917,111,217.8,111.305,217.422,111.459Zm1.257-16.571a1.283,1.283,0,0,1,.457.457q.753-1.033-.228-1.143C218.831,94.431,218.755,94.659,218.679,94.888Zm4.114,13.256q.514-.513,1.028-1.028Q224.032,108.394,222.793,108.144Zm28.478-11.085c.154.075.191.115.114.115A.1.1,0,0,1,251.271,97.059Zm.8,4.914a.626.626,0,0,1,.571-.457Q252.675,102.26,252.071,101.973Zm1.828-4.228a14.058,14.058,0,0,1-1.257,3.657C251.567,100.858,253.4,98.122,253.9,97.745Zm95.654-76c.683,17.435-17.951,28.769-32.342,34.17q.171.229.343.457c.562,1.415,2.857,2.812,2.857,4.343,1.714,3.489,3.934,6.79,5.571,10.342,1.467,3.183,2.443,7.109,5.057,9.657,0,.058.169.343.228.343.52,1.056-.118,2.062.8,2.971,0,.888,1.478,1.975.458,2.743,0,1.276-.818,2.274,0,3.885,0,1.515,1.426,2.908,1.6,4.457.006.009,1.063,2.042.742,2.172-.211.083-1.469-1.826-1.657-1.943a.458.458,0,0,0-.114.343c-.444.874.571,1.46.571,2.286a1.4,1.4,0,0,0,.458.8c.67,0,3.542,6.457,3.771,7.029.129.324-4.134-2.477-4.686-3.029a1.363,1.363,0,0,0-.685-.8.862.862,0,0,0-.115.343,1,1,0,0,0-.114.457c1.025.512,1.842,1.954,2.629,2.743.09.226,1.685,2.945,1.143,2.4-.879,0-1.407.353-2.172-.457,0-.345-1.124-1.01-1.371-1.257a3.983,3.983,0,0,1-.115-1.143l-.23-.229c-.678.221-.6.431-1.264-.228a6.752,6.752,0,0,1-1.5-1.143.866.866,0,0,1-.574-.457l-.345-.343a.416.416,0,0,1-.347-.114v.342a1.607,1.607,0,0,1,.575,1.143c.185-.925-8.214-6.217-9.312-7.314-1.96-.651-6.171-5.227-6.171-7.314a24.007,24.007,0,0,1-3.693-5.257c-.585,0-2.393-1.93-2.857-2.4,0-1.973-4.973-4.311-5.943-6.285-2.925,0-6.246-9.326-6.742-11.314a12.888,12.888,0,0,1-3.086.686,1.231,1.231,0,0,0-1.256.457c-1.786.718-4.483-.09-6.4.457a85.2,85.2,0,0,1-4.686,10.286c0,3.47-4.966,10.574-6.614,13.771-1.82,3.531-3.638,7.061-5.5,10.57-.9,1.7-4.114,5.8-4.114,7.2.251-1.219,2.106-3.345,1.886-4.686-.024-.143-1.886,1.215-1.886,2.045l-1.028,1.47.228.678a2.984,2.984,0,0,1-1.714,2.6,2.435,2.435,0,0,0-.228,1.809c-.478.466-.777,1.1-1.257,1.582q.508.009,0,.452c-.873-.573-1.119,1.556-2.058,1.248-.385-.13,1.129-5.882.571-5.6a4.8,4.8,0,0,0-1.6,2.514.651.651,0,0,0-.229.457l-.228.229c-1.728.494.88-5.21.685-6.4l.915-.914c.333-1.687-1.733-.55-2-1.086-.5-1,.516-2.2.628-3.114.176-1.439.47-4.053,1.257-4.828a1.11,1.11,0,0,0-.113-.686c-.014-.109-.048-1.029.113-1.029a1.414,1.414,0,0,0,0-.8,2.429,2.429,0,0,1,.571-.457v-.228c-.228-.077-.342-.154-.342-.229h-.114c-.664.442-.37,1.426-.971,1.829-.276.18-1.113-1.884-1.2-1.943l-.914.228c-.48,0,1.17-8.278,1.829-9.256,0-.674-.229-1.37-.229-2.057-1.051-1.051.642-5.329,1.258-6.171a5.847,5.847,0,0,1,.684-1.829c0-.706.458-1.35.458-2.057a8.686,8.686,0,0,0,.458-4.685c2.233-4.479-.989-12.077,5.37-14.628a14.257,14.257,0,0,1,1.258-5.143.659.659,0,0,0,.228-.457.65.65,0,0,1,.228-.343,4.555,4.555,0,0,1,.686-1.943q.059-.114.114-.228a.9.9,0,0,1,.344-.457c.539-.9-.007-1.938.8-2.743v-.572c.571-1.158,1.372-1.43,1.372-2.971.146-.3.767-1.282.457-1.6v-.229c1.487-3.239,1.59-6.98,3.2-10.171-1.218-2.424,1.248-.673-.343-2.285,0-1.364-4.16-.429-3.772-2.171a9.176,9.176,0,0,1,5.257-2.172c.255-.072-1.666-2.832-1.714-2.857a6.3,6.3,0,0,0-2.514,1.829,12.618,12.618,0,0,1,1.257.228c0,1.268-2.374,1.986-3.314,1.715-.494-.482.434-1.942-.343-2.743-.84-.334-.252-3.131.343-3.428.436,0,.836.228,1.257.228a11.514,11.514,0,0,0-1.829-2.171s2.206-3.15,2.23-3.172c1.354-1.222,3.212-1.247,4.4-2.428C283.044,1.628,294.968,1.417,305.9.671a86.286,86.286,0,0,1,21.221.964c6.676,1.221,19.126,5.309,20.485,13.371C348.914,16.648,349.322,19.75,349.553,21.748ZM255.042,95c.369,1.107-1.387.371-1.028.057Zm.744-3.428a4.007,4.007,0,0,1-.058-1.486l-.229.229c-.305.076-.457-.075-.457-.457q-.4.8-.8,1.6a.63.63,0,0,0,.686.572Q255.957,92.486,255.786,91.574Zm.284,12a1.3,1.3,0,0,0,.458-.914q-1.149-.761-1.029.8l.229.228Zm.8-10.971v-.114h-.113A.1.1,0,0,0,256.87,92.6Zm1.6,14.171a2.137,2.137,0,0,0,1.029-1.829C258.837,103.626,257.112,107.438,258.47,106.773ZM262.7,97.4q.628,1.017,1.028-.228C263.727,96.4,262.7,97.19,262.7,97.4Zm2.628,2.286q.559,1.137,1.029-.229Q265.661,98.325,265.327,99.688Zm8.686-81.025c.278.566,1.016-.561,0-.229ZM294.7,44.147a.256.256,0,0,1-.114-.343.322.322,0,0,1-.115-.228c-.851-1.129-1.89.685-2.857.685a3.286,3.286,0,0,0-.457,1.486C292.315,45.476,293.92,45.078,294.7,44.147Zm26.627-18.056c.37-.49-.286-1.17-.685-1.371a3.81,3.81,0,0,1-.458-.229,6.133,6.133,0,0,0-.686.114c.052-.051-.571.295-.571.115a.659.659,0,0,1-.457.228V24.72a2.533,2.533,0,0,1-1.028-.115,26.29,26.29,0,0,1-4.628-.342c.29.1.576.215.856.342.353.358-2.759.187-1.256-.114.122-.5-12.7-.162-14.172.571A145.709,145.709,0,0,1,292.869,40.6v.342l-.228.458a19.918,19.918,0,0,0,2.171-1.143h.114c7.645-3.751,18.862-6.55,25.028-12.685,0-.075.114-.19.342-.343,0-.075-.076-.19-.228-.343A1.165,1.165,0,0,0,321.325,26.091Zm10.4,75.311c-.481.234,1.066.8.457-.114A.75.75,0,0,0,331.725,101.4ZM389.444,9.177c-.629-1.783-3.358-5.028-5.257-5.028-3.017-2.4-7.461-2.927-11.085-3.657-.306.3-1.092.07-1.486.114-2.6.294-3.064.852-4.571,2.929a46.618,46.618,0,0,0-6.057,11.356c-1.554,1.558-2.169,6.372-2.714,8.314-.9,3.215-1.718,7.3-3.571,10.085a3.976,3.976,0,0,0-.571,1.143C352.544,39.144,351.22,44.177,349.9,49c-.6,2.187-3.25,7.053-2.4,8.743,0,3.357-4.488,8.483-3.086,12a.438.438,0,0,0,.686-.114,1.14,1.14,0,0,0,.728.933c-.771,3.85-1.242,7.553-2.271,11.352-.781,2.889-2.457,7.166-2.457,10.114,0,.515,1.44-2.308,1.486-2.4a6.076,6.076,0,0,0,.457-.571c0,.972-.4,4.288-1.029,4.914-.364,1.48-.837,3.037,0,3.885l-.228.686c-1.643,1.642-1.2,3.634-2.171,5.6,0,.6-.01,4.694.571,4.114A65.426,65.426,0,0,0,344.153,96.2q.145.3.6.214c-.269.695-.184,1.394-.622,2.027a1.162,1.162,0,0,0,.062-.579,2.373,2.373,0,0,0-.178.768c-.448.808-1.834,5.977-1.079,6.546,0,.577-.467,1.5-.079,2.024a1.32,1.32,0,0,0-.15.6q.849-.011.8-1.028c-.048-.072-.07-.113-.1-.162q.128-.321.275-.636c.014.039.042.072.052.112.9-1.791,1.633-3.691,2.5-5.5.3.293,1.119,1.541.7,1.959-1.072,0-.517,3.72-1.143,4.342q-.226.915-.456,1.829c0,1.056-.344,2.067-.344,3.2a2.707,2.707,0,0,1-.685.571c.372.732,2.176,1.194,1.6-.228a19.192,19.192,0,0,1,1.714-2.629,3.8,3.8,0,0,0-.114-.914c.543-1.369,1.586-.69,1.257-2.514a4.808,4.808,0,0,1,.8-.686,2.554,2.554,0,0,1,1.143.228.783.783,0,0,0-.686-.571c.992-.982.461-.229,1.828-.229.075.075,1.214,1.258.115,1.258-.142.176-.785,2.225-.415,2.528,1,.819,1.3-1.66,1.329-2.186.994-1.019,3.2-1.53,1.714-3.771a2.649,2.649,0,0,1-1.485.914q-.44.245-.895.458c-.318-.586.253-3.255-.019-3.2-.3,0-1.039,3.476-1.829,2.285-.237-.826.822-2.978,1.143-3.771q-.344-1.145-.229-1.257c1.992,0,.528,1.18,1.657,1.829.582.331-.073-3.331-.057-3.315a16.452,16.452,0,0,1,1.143-4l.457.115a.331.331,0,0,0,.229.114c-.31,2.138,1.221-.184,1.656.686l-.056.914c-1.137,1.134-.429,4.322-1.829,5.257h-.229l-.342.343a.96.96,0,0,0,.8,1.257,3.791,3.791,0,0,0,.228.914.635.635,0,0,0,.114-.8,5.376,5.376,0,0,0,1.372-1.028c0-.836-.566-4.343,1.029-4.343-.425.255,1.444-3.7,1.485-3.829.535-1.713.465-3.652,1.829-4.742A38.912,38.912,0,0,0,362.7,80.26c.093-.506.96-2.986,1.257-2.4a.908.908,0,0,0,.115-1.143,3.572,3.572,0,0,0,.8-1.485c2.915-2.329,4.32-8.44,5.628-11.829.754-1.954,1.34-6.918,2.829-8.4,1.507-3.325,2.363-7.021,4-10.285,0-2.72,5.4-7.682,4.457-10.057a8.062,8.062,0,0,1,.343-1.029,2.291,2.291,0,0,0,.685-1.142c-.174-.694.339-1.184.5-1.848,2.066-2.7,3.289-8.3,4.337-11.566C388.638,16,389.744,12.426,389.444,9.177Zm42.333-3.428c.034.139,18.4-3.574,19.542-4.228a1.285,1.285,0,0,0,1.6-.457c.679,0,1.105-.293,1.829-.115,0-.541,10.921-.5,11.884-.114.236.006.454.114.687.114,1.359.689,3.06.421,4.456,1.257.776,2.327-1.373,1.043.114,2.514,0,.625,1.137.627,1.486.8,1.292,1.623,3.256.258,1.457,2.486-.78.967-5.02.627-5.414,1.572.285-.684,2.855,2.989,2.186,2.856.392.082,2.8-1.3,2.8-1.714q-.678-.293-1.371-.551a.869.869,0,0,1,.115-.535h.228a4.28,4.28,0,0,1,3.428-.8,1.87,1.87,0,0,1-.228,1.486c.075.839.189,1.3.343,1.371.827.335.09,2.435.114,2.4-1.1,1.617-.347.8-2.171.8a25.89,25.89,0,0,0,1.829,2.515c-.279,2.211-4.672,5.485-6.972,5.485-3.648,1.468-8.83,3.429-12.914,3.429-2.123,1.066-6.479,1.2-8.913,1.714a109.6,109.6,0,0,0-12.741,3.477c-4.151,1.423-12.16,3.938-15.487,7.265a.84.84,0,0,0-.342.114,5.533,5.533,0,0,0-1.372.915h-.115c6.27-2.058,15.645-1.033,22.207-.486,10.718.893,22.405,2.076,30.192,10.485,8.883,9.593,6.155,24.788-2.623,33.428-7.682,7.561-18.365,12.223-28.176,16.227h-.114c-7.97,3.528-16.428,5.972-24.8,8.336-5.9,1.667-13.32,4.921-19.314,4.921a6.557,6.557,0,0,1-1.714,0c-2.752-.93-7.043.582-9.943,1.028-2.549.393-5.419,1.25-8,1.029-.414-.036-3.121-1.209-3.314-.972.1-.131,2.887-.4,2.285-1.2a3.674,3.674,0,0,1-3.542-.457c-.217-1.074,9.4-3.807,10.456-3.6-2.538-.524-6.3.071-8.857.285-1.759.147-5.1-.031-6.742.8-.839-.141-3.9,1.306-4.114.228,2.5-2.561,12.3-2.207,15.656-3.542q1.413.2,1.258-.914c-.252.049-4.169,1.117-3.429-.115a37.025,37.025,0,0,0,4.572-1.657c-.747.375-9.6.952-9.6,1.2a3.963,3.963,0,0,1,1.828-.571q.735-.471,1.486-.914c1.56-3.928,8.235-4.974,12.114-6.515l.457-.457c1.1-.369,3.566-.21,4-1.714,2.532-.835,11.543-2.762,11.543-4.914-.941-1.248-2.093.851-3.2.572-1.787.449-4.341,1.371-6.057,1.371-.99-.658-2.353-.058-3.086.686-2.386.947-5.9,2.514-8.571,2.514a3.531,3.531,0,0,1,1.258-.8,4.322,4.322,0,0,0,1.828-.493c1.76-3.808,14.87-5.593,18.4-7.278h.115c6.66-2.764,13.653-4.6,20.305-7.35,4.844-2,13.609-4.261,17.293-7.964a14.311,14.311,0,0,0,5.714-2.971c.114-.229.228-.457.343-.686v-.228c-.437-.426-.594-1.029-1.257-1.029l.228-.228c-.228,0-.268-.076-.114-.229h-.114c-.231-.051-.928.006-.457-.229a.818.818,0,0,0,.114-.8,4.2,4.2,0,0,0-.686.342c0-.831-15.934-.717-16.684-.342q-.8-.759-1.372.114c-2.634,0-6.3.438-8.8-.572-1.479.008-4.487.654-5.485-.342-11.85-2.917-26.658-7.756-24.113-23.542,1.623-10.069,9.356-15.169,15.885-21.714a1.882,1.882,0,0,0,.456-.114q6.62-3.3,13.219-6.666c2.683-1.361,6.671-4.419,9.752-4.419a28.159,28.159,0,0,1,4.971-1.314ZM407.435,61.4a5.373,5.373,0,0,0,.8.686c-.478-1.419,1.02-1.137-.114-2.285v-.229C404.456,58.533,399.316,55,396.007,55c-.421,1.05.561,1.023,1.029,1.485C400.4,57.849,404.166,59.77,407.435,61.4ZM468.918,9.177q-1.143-.168,0,.115Z"/>
  </g>
</svg>
