<svg id="ckn-name" xmlns="http://www.w3.org/2000/svg" viewBox="0 0 540 115.155">
    <defs>
        <style>.fill-white { fill: #e6e6e6; }</style>
    </defs>
    <title>Chris</title>
    <path class="fill-white" d="M150.176 71.585a2.875 2.875 0 0 0-.96 1.133c-.22.658 2.622-.338 2.972-.686a4.062 4.062 0 0 0 1.714-.686.464.464 0 0 1 .114-.343c.04-.114.077-.228.114-.343a1.82 1.82 0 0 1 1.484-1.028c.254-.388 3.938-2.514 4.795-2.514q-.35-.46.34-.457c.53 1.09 1.76-.63 2.45.06l-.18.86c-.53.32-4.18 3.86-3.43 4 1.08-.11 2.67-1.83 3.65-1.83l.86.52c-.32 1.55-5.04 5.04-6.55 5.32-.87 1.47 1.26 1.45.78 2.86-.34.99-3.26 1.71-3.26 2.63-1.51 2.56-4.27 2.84-5.78 5.37.6.8 1.9-.63 2.45-.74.46-.09-.08 2.42-.06 2.46q1.44.16.45 1.03c-2.14.72-2.57 3.1-4.37 4.49-2.99 2.31-7.01 3.75-10.27 5.57a32.654 32.654 0 0 0-5.72 3.54c-1.44 1.3-1.58 4.12-4.46 4.12-3.95 3.07-12.51 6.4-17.49 6.4-8.48 4.14-21.92.75-29.36-3.76-11.1-6.72-16.57-18.22-19.06-30.6C56.28 53.5 75.3 35.51 93.82 21.9a5.742 5.742 0 0 1 .57-1.71 1.773 1.773 0 0 1 .46-.68c.83-3.78 3.44-4.91 5.94-7.43 0-.1.524-.34.57-.34l.685-.45a1.854 1.854 0 0 1 .457-.11l.116-.11h.23c7.1-3.89 22.97-15.345 31.33-9.26 5.123 0 7-1.21 12.29.49 2.84.912 2.713.354 4.46 3.084 1.15 1.807 2.8 4.315 2.8 6.6-.94 1.88.945 5.355.112 7.14-.66 1.41-1.22 1.03-2.17 2-4.46 4.54-10.13 6.57-16.13 8.57v.118a11.14 11.14 0 0 1-2.174 1.26c-2.1 0-10.238 4.57-11.895 5.83-.11.04-.22.08-.34.116l-.11.12h-.23a.912.912 0 0 1-.91.57c-.56.29-1.94.64-1.94 1.49a.33.33 0 0 0-.11.23c-.1.1-.45.53-.45.686a2.13 2.13 0 0 0-.68 1.144c-.17.43-1.6 2.283-2.17 2.283a13.7 13.7 0 0 1-1.48 1.48c-.48.48-1.22.65-1.72 1.14 0 .08-.08.19-.23.34a.65.65 0 0 1-.34.23c-.39.13-2.8.83-2.98 1.38l-1.26.23a14.436 14.436 0 0 1-1.71.69q-.7-.38-.22-.69a1.15 1.15 0 0 0 .35-.57c-.61-1.2-2.38 1.49-2.84 1.95a.1.1 0 0 1-.11.12c0 1.36-3.5 4.95-3.5 2.29-5.54 4.79-8.63 16.1-8.49 23.2a4.222 4.222 0 0 1-1.26.11c-.64-3.18.05-6.44-.23-9.71-3.3 6.55.04 17.96 6.4 21.48a5.337 5.337 0 0 0 .8.34 9.726 9.726 0 0 0 4.35.57c1.56-.77 4.93-.33 6.54-.57a61.32 61.32 0 0 0 6.48-1.37c2.71-.72 12.47-2.26 14.29-4.69 5.98-1.9 11.33-5.25 17.14-7.43a34.214 34.214 0 0 0 5.65-2.39zm-60.85-7.667a7.49 7.49 0 0 0-.57 1.37.466.466 0 0 0 .342-.113 8.564 8.564 0 0 0 .913-2.515 13.366 13.366 0 0 0-.68 1.258zm50.74 29.713q.23.96 1.257.46-.346-.94-1.256-.45zm1.834-13.37a.748.748 0 0 0 .343.69c.24-.24.734-1.77-.343-.68zm.8 12.69c.952.31.442-2.04-.228-.68a.9.9 0 0 0 .228.69zm.23-12.8l.742-.46q-.972-.37-.748.46zm7.766 7.89c-1-1.63-1.586 2.47-3.135.92q-.51.67.24.57c-.02.03-2.19.55-2.09.52-.24.08-1.28.52-1.97.75 0 3.02 3.51.19 4.76-.23a5.632 5.632 0 0 1 2.44-1.48l.23-.34a1.12 1.12 0 0 0-.46-.69zm-5.14 5.6q1.25-.7-.227-.45c-.09.31-.01.46.22.46zm0-19.31q-.237 1.22.916.46v-.85zm1.83 4c.456-1.37-.806-.5-1.03 0a1.105 1.105 0 0 0 1.024 0zm-.23 14.86a9.064 9.064 0 0 1 1.372-1.48c-.694 0-3.328 1.49-1.376 1.49zm.458-5.25q.338-1.17-1.03.11.34.72 1.025-.11zm6.057-2.51q.05 1.36-1.02 0 .23-.8 1.03 0zm1.2-11.14c-.02.01 3.03-.81 2.4-1.26-1-.71-1.8.16-2.57.75q0 .58.17.52zm4.06 6.8c.5 1.25-2.64 2.48-3.43 2.63-1.31.82 2.87-2.25 3.43-2.63zm-1.37-3.54a.49.49 0 0 0-.46-.46 2.365 2.365 0 0 0-.91.46q.44 1.41 1.37 0zm1.49 3.54q.28-.66.69-.23c-.16.39-.38.46-.69.23zm-1.5 15.54q-.47-.6.35-1.02a1.636 1.636 0 0 1-.34 1.03zm1.6 3.2a.5.5 0 0 1 .57-.57q-.23.92-.57.57zm2.29-4.34c0 1.05-1.25 2.74-1.71 3.66-1.16-.69.87-3.85 1.49-4.34.53-1.43.28.44.23.69zm100.1-56.08a1.7 1.7 0 0 1 2.29.12c-3.63 1.87-8.99.54-12.8 2l-.68.12a2.264 2.264 0 0 1-.23.59q1.07-.2.8.7a4.483 4.483 0 0 1-1.25.23l-.46 1.09c.77-.12 6.38-.47 6.4-.52-1.09.46-2.3.24-3.2 1.14-.55 1.37-.47 1.43-1.94 2.17a3.28 3.28 0 0 0-1.48.68 6.4 6.4 0 0 0-1.25.23 1.454 1.454 0 0 0 0 .8l-.23.35c-.38 1.54-1.37 3.42-1.37 5.03-.92 2.3-2.17 4.22-2.63 6.74-2.13 3.57-3.11 8.54-4.57 12.45-1.21 3.26-4.18 7.5-4.34 10.87l-1.03 1.49a7.038 7.038 0 0 0-1.48 2.51c-.98.74-.78 3.1-1.14 3.32a2.7 2.7 0 0 0-1.03 1.03 7.887 7.887 0 0 0 0 3.66 3.694 3.694 0 0 1-1.48 1.03 1.194 1.194 0 0 1-.11.92 1.28 1.28 0 0 1-.35-.91l-.34-.12a11.74 11.74 0 0 1-1.03 2.51 7.443 7.443 0 0 1 1.15-.92.95.95 0 0 1 .23.92c2.06 2.07-1.52 2.53-2.06 3.09-.01.03-.08.69.11.69.04.32-.58 2.25-1.43 1.61-.63-.47.4-2.65.86-3.1-.58.28-2.85 2.17-2.74 2.51-.07-.2 1.11-2.83.11-2.63q-.43.84-.8 1.72a1.63 1.63 0 0 1-1.37 1.03 1.837 1.837 0 0 1-.34.45l.11 1.03a17.99 17.99 0 0 0-1.94 2.86q.26 1.28-1.03.91a1.466 1.466 0 0 1-.68-.68 1.764 1.764 0 0 0 .8-.68c0-1.18.35-2.26.35-3.31.38-.96.35-2.77 1.14-3.55q.34-.12 0-.8v-.12c-.76.76-5.08 10.99-5.71 10.75 0-4.2 4.02-10.97 5.37-14.97-.78 0-2.41 5.43-2.55 5.71a1.04 1.04 0 0 0-.71-.68c-.3-.58 1.34-3.52 1.65-4.12a.378.378 0 0 1-.36-.23 7.437 7.437 0 0 1 .71-2.4h.12a17.706 17.706 0 0 0 .28-2.51c-.05.44-4.17 9.2-4.28 9.15 0-1.2.46-2.51.46-3.77-1.22-1.23-1.03-1.31-1.03-3.09 1.4-3.51 1.83-8.24 2.24-11.89a1.493 1.493 0 0 1 .32-.68 4.432 4.432 0 0 0 .42-3.77.786.786 0 0 1 .11-.57c0-2.4 1.83-5.71 2.4-8a4.46 4.46 0 0 0 .46-1.03 1.53 1.53 0 0 1 .46-1.37v-1.1a1.1 1.1 0 0 1-.11-.68c-1.51 0-1.98 2.67-2.54 4.12v.11a1.8 1.8 0 0 1-.36.45c-.95 2.27-2.81 5-2.81 7.42-.91 2.28-1 7.17-2.74 8.91 0-1.29.57-2.3.57-3.55-1.03-2.05 2.1-11.2 2.65-13.29.77-2.87 1.44-6.5 2.38-9.34a2.045 2.045 0 0 0-1.36.34.766.766 0 0 1-.79.11 3.177 3.177 0 0 0-.34.45.323.323 0 0 1-.23-.12.1.1 0 0 1-.11-.11c-1.82-.45-3.33.69-5 .69l-.68.34a.5.5 0 0 1-.57.34 3.98 3.98 0 0 1-1.59.23.28.28 0 0 1-.455 0h-.57c-.24-.18-1.207.44-.8.23a.748.748 0 0 0-.68-.69.913.913 0 0 0-.68.45c-1.07 0-2.06-.43-2.73.57-1.06.54-4.78-.33-6.47.35h-.227a62.23 62.23 0 0 1-3.63 8.23c-1.4 0-8.86 16.94-9.34 17.93-1.44 2.98-2.81 5.92-4.41 8.81-.783 1.42-4.06 6.53-4.57 7.88.32-1.78 2.65-3.96 2.17-5.66-.384-1.36-3.92 6.83-3.883 6.8a3.733 3.733 0 0 1-1.257 1.37c-.9.9-.59 2.73-1.72 3.88q.65.09 0 .68c-1.09-.81-1.34 1.72-2.4 1.37l-.343-.91c.3-.61 1.67-6.02.91-5.71-1.03 1.02-1.21 2.56-2.18 3.54a.338.338 0 0 1-.11.23c-2.05.77 1.01-6.26.69-7.54a2.667 2.667 0 0 1 .57-.46c.027-.46.23-.91.23-1.37a.674.674 0 0 0-.573-.34 1.878 1.878 0 0 0-.11.46 44.18 44.18 0 0 0-2.17 5.37c.168-.33-1.12-1.22-.682-2.29a15.178 15.178 0 0 1 2.52-7.77c-1.55-1.55 1.03-6.09 1.03-8.57l-.23.11a3.086 3.086 0 0 1-.46 1.25c.35-1.03-.87 2.55-1.25 1.37-.56-.15-1.24-.53.12-.8a6.973 6.973 0 0 1 .34-1.14 2.67 2.67 0 0 0-.8-1.6l-.97.28c1.29-.26.14-3.93-.17-4.4-.63-3.11 3.69-9.95 4.63-12.83.88-2.68 2.46-5.89 2.23-8.77-1.92-3.21.97-9.58 2.08-13.03 1.59-4.94 2.57-9.99 4.2-14.86a2.663 2.663 0 0 0 .35-.57c0-.12.11-.21.115-.35.094 0 .13-.04.115-.11.17-.07.056-.252-.113-.34h.11l-.23-.12c.6.25.72-.11.46-.11a.18.18 0 0 0-.23-.11v-.11l.12-.112c2.43-5.367 3.05-11.12 5.91-16.4 1.27-2.34 3.53-7.7 6.087-8.97.88-1.75 1.92-3.93 3.89-4.69.71-.27 2.5.474 3.09-.11.27.08 3.1 1.24 3.77.57q.86.32 1.71.686a4.27 4.27 0 0 0 1.94.69c0 .07 6.68 3.92 7.54 4.57a3.62 3.62 0 0 1 .34.8 3.526 3.526 0 0 1 .8 1.26 11.375 11.375 0 0 1-.57 4c-.25 3.07.54 4.84-.51 8.16-1.6 5.02-4.02 9.82-5.32 14.92 3.68-.69 7.52-2.17 11.31-2.17 2.61-1.31 6.8-.81 9.6-1.377a.367.367 0 0 1 .23-.34.46.46 0 0 1 .11-.34 1.875 1.875 0 0 1 .8-.8.47.47 0 0 1 .12-.35c.13.09-.69-.51-.69-.34q.05-.9.46-.225a.286.286 0 0 0 .46 0 1.885 1.885 0 0 0 0-.913c.53-2.13 1.08-5.99 2.63-7.54a16.222 16.222 0 0 1 1.37-5.26 2.014 2.014 0 0 1 .23-.92l.12-.57a1.673 1.673 0 0 0 .34-1.03 13.635 13.635 0 0 0 .91-1.94c2.48-2.84 2.786-7.11 5.827-9.6a27.88 27.88 0 0 1 6.11-4c6.19-2.19 10.6 3.21 15.48 5.14 1.06 1.09.55 1.75.55 3.08.82.82 1.8 2.66.8 3.655a.667.667 0 0 1-.11.46c-.62 3.41-.845 6.41-2.17 9.72l-.11.11v.11a17.9 17.9 0 0 0-1.49 5.37c-.55 1.11-.45.84-.45 1.83a2.283 2.283 0 0 0-.34.91 2.854 2.854 0 0 1-.8 1.48q-.11.35-.23.69a1.066 1.066 0 0 1-.34 1.26h.34q.95.75-.68.57a2.938 2.938 0 0 1-.346.69.1.1 0 0 0-.11.11 2.835 2.835 0 0 0 1.03-.11 1.764 1.764 0 0 1 1.484.8c0 1.2-3.17 1.37-3.77 1.37q-.28.53-.57 1.06v.47c3.39.3 7.19-.92 10.52-.24zm-99.08 48.76c.67.45.65-.38.8-.68a11 11 0 0 1 .23-2.05h.12a24.885 24.885 0 0 0 1.25-4.68c-.93 0-4.2 7.43-2.4 7.43zm-.34-5.71q-.04.63-.11 1.26a5.6 5.6 0 0 0 1.02-2.06h-.91zm.52 14.92c.09.42.42-.46.4-.63-.3.23-.44.44-.4.63zm.4-17.2c-.01.01-.22 2.02.57.23-.08-.22-.27-.3-.58-.22zm.35 21.49h.46c.15-.3.3-.61.46-.91v-.11q-.75-.82-.68.23l-.23.8zm3.32 3.77a4.665 4.665 0 0 0 1.15-2.05v-.12c-.34-.86-3.46 2.17-1.14 2.17zm4.8-10.97l.69.52c1.5-.76.34-.73.34-1.32a3.765 3.765 0 0 0-1.03.8zm2.97-4.23a.225.225 0 0 0-.11-.34q-.88 1.52.12.34zm-.48 8.6c0 .12.08.06.23-.17v-.23a.614.614 0 0 0-.23.4zm1.03-9.88a.652.652 0 0 0-.68-.23c0 .73.56 1.6.68.23zm-.45 8l.63.75.63-.97-.63-.62zm41.36 6.04a3.787 3.787 0 0 1-.57 1.36c-.87.11.31-1.71.35-1.81zm1.49 8.46q-.9-1.05.34-.91c.16.46.04.77-.34.92zm1.26-16.57a1.283 1.283 0 0 1 .46.46q.76-1.03-.22-1.14l-.23.69zm4.12 13.26l1.03-1.03q.22 1.28-1.02 1.03zm28.48-11.09c.16.08.2.12.12.12a.1.1 0 0 1-.11-.11zm.8 4.92a.626.626 0 0 1 .58-.45q.04.75-.57.46zm1.83-4.22a14.058 14.058 0 0 1-1.25 3.66c-1.07-.54.76-3.27 1.26-3.65zm95.66-76c.68 17.44-17.95 28.77-32.35 34.17l.34.46c.56 1.42 2.85 2.82 2.85 4.35 1.71 3.49 3.93 6.79 5.57 10.34 1.46 3.19 2.44 7.11 5.05 9.66 0 .06.17.35.22.35.52 1.06-.12 2.06.8 2.97 0 .89 1.47 1.98.45 2.75 0 1.28-.82 2.28 0 3.89 0 1.52 1.42 2.91 1.6 4.46 0 .01 1.06 2.05.74 2.18-.21.09-1.47-1.82-1.65-1.94a.458.458 0 0 0-.11.34c-.44.87.57 1.46.57 2.29a1.4 1.4 0 0 0 .46.8c.67 0 3.54 6.46 3.77 7.03.13.33-4.13-2.47-4.68-3.03a1.363 1.363 0 0 0-.68-.8.862.862 0 0 0-.11.35 1 1 0 0 0-.11.46c1.03.51 1.84 1.95 2.63 2.74.09.23 1.68 2.95 1.14 2.4-.88 0-1.41.35-2.17-.46 0-.35-1.12-1.01-1.37-1.26a3.983 3.983 0 0 1-.11-1.14l-.23-.23c-.68.22-.6.43-1.26-.23a6.752 6.752 0 0 1-1.5-1.14.866.866 0 0 1-.57-.46l-.35-.34a.416.416 0 0 1-.35-.11v.35a1.607 1.607 0 0 1 .57 1.15c.19-.92-8.21-6.21-9.31-7.31-1.96-.65-6.17-5.23-6.17-7.31a24.007 24.007 0 0 1-3.69-5.25c-.59 0-2.394-1.93-2.86-2.4 0-1.97-4.97-4.31-5.94-6.29-2.93 0-6.25-9.32-6.744-11.31a12.888 12.888 0 0 1-3.08.69 1.23 1.23 0 0 0-1.256.45c-1.79.72-4.48-.09-6.4.46a85.2 85.2 0 0 1-4.69 10.29c0 3.47-4.965 10.57-6.613 13.77-1.82 3.53-3.633 7.06-5.5 10.57-.9 1.7-4.11 5.8-4.11 7.2.25-1.22 2.11-3.34 1.89-4.69-.02-.14-1.89 1.22-1.89 2.05l-1.03 1.47.23.68a2.984 2.984 0 0 1-1.71 2.6 2.435 2.435 0 0 0-.23 1.81c-.48.47-.78 1.1-1.26 1.58q.51.01 0 .45c-.87-.57-1.12 1.56-2.06 1.25-.38-.13 1.13-5.88.57-5.6a4.8 4.8 0 0 0-1.6 2.52.65.65 0 0 0-.22.46l-.23.23c-1.72.49.88-5.21.69-6.4l.917-.92c.33-1.69-1.73-.55-2-1.08-.5-1 .52-2.2.63-3.11.17-1.44.47-4.05 1.26-4.83a1.11 1.11 0 0 0-.11-.68c-.02-.11-.05-1.03.11-1.03a1.414 1.414 0 0 0 0-.8 2.43 2.43 0 0 1 .57-.45v-.23c-.23-.08-.34-.15-.34-.23h-.11c-.67.44-.37 1.43-.97 1.83-.28.18-1.12-1.88-1.2-1.94l-.92.23c-.48 0 1.17-8.28 1.83-9.25 0-.68-.23-1.37-.23-2.06-1.05-1.05.64-5.33 1.26-6.17a5.847 5.847 0 0 1 .68-1.83c0-.71.46-1.35.46-2.06a8.686 8.686 0 0 0 .456-4.69c2.24-4.48-.99-12.08 5.37-14.63a14.257 14.257 0 0 1 1.26-5.14.66.66 0 0 0 .23-.45.65.65 0 0 1 .23-.34 4.555 4.555 0 0 1 .68-1.94q.06-.11.11-.23a.9.9 0 0 1 .34-.46c.54-.9-.006-1.94.8-2.747v-.57c.57-1.16 1.37-1.43 1.37-2.97.15-.3.77-1.29.46-1.6v-.23c1.49-3.24 1.59-6.98 3.2-10.17-1.217-2.43 1.25-.68-.34-2.29 0-1.37-4.16-.43-3.77-2.17a9.176 9.176 0 0 1 5.25-2.18c.26-.07-1.66-2.83-1.71-2.85a6.3 6.3 0 0 0-2.516 1.83 12.618 12.618 0 0 1 1.257.227c0 1.27-2.37 1.99-3.31 1.714-.49-.48.438-1.94-.34-2.74-.84-.336-.25-3.13.34-3.43.44 0 .84.22 1.26.22a11.514 11.514 0 0 0-1.83-2.17s2.21-3.15 2.23-3.173c1.36-1.22 3.216-1.25 4.4-2.43 10.28-4.12 22.2-4.33 33.13-5.08a86.286 86.286 0 0 1 21.22.967c6.68 1.22 19.13 5.31 20.49 13.37 1.31 1.64 1.717 4.74 1.948 6.74zM255.04 95c.367 1.107-1.39.37-1.03.057zm.742-3.428a4.007 4.007 0 0 1-.058-1.486l-.23.23c-.304.075-.456-.076-.456-.458l-.8 1.6a.63.63 0 0 0 .687.572q1.03.456.858-.456zm.284 12a1.3 1.3 0 0 0 .457-.914q-1.15-.76-1.03.8l.23.228zm.8-10.97v-.115h-.114a.1.1 0 0 0 .113.113zm1.6 14.17a2.137 2.137 0 0 0 1.03-1.83c-.664-1.316-2.39 2.496-1.03 1.83zm4.23-9.372q.627 1.017 1.027-.228c0-.772-1.028.018-1.028.228zm2.627 2.286q.56 1.137 1.03-.23-.697-1.13-1.03.232zm8.686-81.025c.28.57 1.01-.56 0-.22zm20.69 25.49a.256.256 0 0 1-.12-.34.322.322 0 0 1-.12-.23c-.85-1.13-1.89.68-2.85.68a3.286 3.286 0 0 0-.46 1.49c1.16-.27 2.76-.67 3.54-1.6zm26.62-18.05c.37-.49-.29-1.17-.69-1.37a3.81 3.81 0 0 1-.46-.23 6.133 6.133 0 0 0-.69.12c.05-.05-.57.29-.57.11a.66.66 0 0 1-.46.23v-.22a2.533 2.533 0 0 1-1.03-.11 26.29 26.29 0 0 1-4.63-.34c.29.1.57.22.85.35.35.36-2.76.19-1.26-.11.12-.5-12.7-.16-14.17.58a145.71 145.71 0 0 1-5.37 15.54v.34l-.23.46a19.918 19.918 0 0 0 2.17-1.14h.11c7.64-3.75 18.86-6.55 25.03-12.68 0-.07.11-.19.34-.34 0-.08-.08-.19-.23-.35a1.165 1.165 0 0 0 1.25-.79zm10.4 75.32c-.48.24 1.06.8.45-.11a.75.75 0 0 0-.46.11zm57.72-92.23c-.63-1.78-3.36-5.03-5.26-5.03-3.02-2.4-7.46-2.92-11.09-3.65-.31.3-1.09.07-1.49.12-2.6.3-3.07.86-4.57 2.93a46.618 46.618 0 0 0-6.05 11.35c-1.56 1.56-2.17 6.38-2.72 8.32-.9 3.22-1.72 7.3-3.57 10.09a3.976 3.976 0 0 0-.58 1.15c-1.59 4.71-2.91 9.75-4.23 14.57-.6 2.19-3.25 7.05-2.4 8.74 0 3.36-4.49 8.49-3.09 12a.438.438 0 0 0 .68-.11 1.14 1.14 0 0 0 .72.94c-.77 3.85-1.25 7.55-2.27 11.35-.79 2.89-2.46 7.17-2.46 10.12 0 .52 1.44-2.31 1.48-2.4a6.076 6.076 0 0 0 .46-.57c0 .97-.4 4.29-1.03 4.92-.37 1.48-.84 3.04 0 3.89l-.23.69c-1.65 1.64-1.2 3.64-2.17 5.6 0 .6-.01 4.7.57 4.12a65.426 65.426 0 0 0 3.96-12.06q.14.3.6.22c-.27.7-.19 1.4-.62 2.03a1.162 1.162 0 0 0 .07-.58 2.373 2.373 0 0 0-.18.77c-.45.81-1.84 5.98-1.08 6.55 0 .58-.47 1.5-.08 2.03a1.32 1.32 0 0 0-.15.6q.85-.01.8-1.03c-.05-.07-.07-.11-.1-.16q.13-.32.27-.64c.01.04.04.08.05.12.9-1.79 1.63-3.69 2.5-5.5.3.29 1.12 1.54.7 1.96-1.08 0-.52 3.72-1.15 4.34q-.22.92-.45 1.83c0 1.06-.35 2.07-.35 3.2a2.707 2.707 0 0 1-.69.57c.37.73 2.17 1.19 1.6-.23a19.192 19.192 0 0 1 1.71-2.63 3.8 3.8 0 0 0-.12-.91c.54-1.37 1.58-.69 1.26-2.51a4.808 4.808 0 0 1 .8-.69 2.554 2.554 0 0 1 1.14.23.783.783 0 0 0-.68-.57c.99-.98.46-.23 1.83-.23.08.08 1.21 1.26.12 1.26-.15.18-.79 2.23-.42 2.53 1 .82 1.3-1.66 1.33-2.18 1-1.02 3.2-1.53 1.72-3.77a2.65 2.65 0 0 1-1.49.91q-.44.24-.89.46c-.32-.58.25-3.25-.02-3.2-.3 0-1.04 3.48-1.83 2.29-.24-.83.82-2.98 1.14-3.77q-.34-1.15-.23-1.26c2 0 .53 1.18 1.66 1.83.58.33-.07-3.33-.05-3.31a16.452 16.452 0 0 1 1.14-4l.45.11a.33.33 0 0 0 .23.12c-.31 2.14 1.22-.18 1.66.69l-.05.91c-1.14 1.13-.43 4.32-1.83 5.26h-.23l-.34.34a.96.96 0 0 0 .8 1.26 3.79 3.79 0 0 0 .23.92.635.635 0 0 0 .11-.8 5.376 5.376 0 0 0 1.37-1.03c0-.83-.57-4.34 1.03-4.34-.43.25 1.44-3.7 1.48-3.83.53-1.71.46-3.65 1.83-4.74a38.912 38.912 0 0 0 1.93-7.32c.09-.5.96-2.98 1.25-2.4a.908.908 0 0 0 .11-1.14 3.572 3.572 0 0 0 .8-1.48c2.91-2.33 4.32-8.44 5.62-11.83.75-1.95 1.34-6.91 2.83-8.4 1.51-3.32 2.36-7.02 4-10.28 0-2.72 5.4-7.69 4.46-10.06a8.062 8.062 0 0 1 .35-1.03 2.29 2.29 0 0 0 .68-1.14c-.18-.7.34-1.19.5-1.85 2.06-2.7 3.29-8.3 4.34-11.57.98-3.07 2.09-6.65 1.79-9.9zm42.33-3.43c.03.14 18.4-3.57 19.54-4.23a1.285 1.285 0 0 0 1.6-.45c.67 0 1.1-.29 1.82-.11 0-.54 10.92-.5 11.88-.11.23.01.45.12.68.12 1.35.68 3.06.42 4.45 1.25.77 2.33-1.38 1.05.11 2.52 0 .63 1.13.63 1.48.8 1.29 1.62 3.25.26 1.45 2.49-.78.97-5.02.63-5.42 1.57.28-.68 2.85 2.99 2.18 2.86.39.08 2.8-1.3 2.8-1.71q-.68-.29-1.37-.55a.87.87 0 0 1 .11-.53h.23a4.28 4.28 0 0 1 3.43-.8 1.87 1.87 0 0 1-.23 1.48c.07.84.19 1.3.34 1.37.82.34.09 2.44.11 2.4-1.1 1.62-.35.8-2.17.8a25.89 25.89 0 0 0 1.82 2.52c-.28 2.21-4.67 5.49-6.97 5.49-3.65 1.47-8.83 3.43-12.92 3.43-2.12 1.07-6.48 1.2-8.91 1.72a109.6 109.6 0 0 0-12.74 3.48c-4.16 1.43-12.16 3.94-15.49 7.27a.84.84 0 0 0-.34.11 5.533 5.533 0 0 0-1.38.91h-.12c6.27-2.06 15.65-1.03 22.21-.49 10.72.89 22.4 2.08 30.19 10.48 8.88 9.6 6.16 24.79-2.62 33.43-7.68 7.56-18.37 12.23-28.18 16.23h-.11c-7.97 3.53-16.43 5.97-24.8 8.34-5.9 1.67-13.32 4.92-19.31 4.92a6.557 6.557 0 0 1-1.72 0c-2.75-.93-7.04.59-9.94 1.03-2.55.4-5.42 1.25-8 1.03-.42-.03-3.12-1.21-3.32-.97.1-.13 2.89-.4 2.29-1.2a3.674 3.674 0 0 1-3.54-.46c-.22-1.07 9.4-3.8 10.45-3.6-2.54-.52-6.3.07-8.86.29-1.76.14-5.1-.03-6.74.8-.84-.14-3.9 1.3-4.11.23 2.5-2.56 12.3-2.21 15.66-3.54q1.41.2 1.26-.91c-.25.05-4.17 1.11-3.43-.12a37.025 37.025 0 0 0 4.57-1.66c-.75.37-9.6.95-9.6 1.2a3.963 3.963 0 0 1 1.83-.58q.74-.47 1.49-.91c1.56-3.92 8.24-4.97 12.12-6.51l.46-.46c1.1-.37 3.57-.21 4-1.72 2.53-.83 11.54-2.76 11.54-4.91-.94-1.24-2.09.85-3.2.58-1.79.45-4.34 1.37-6.06 1.37-.99-.66-2.35-.06-3.09.68-2.38.94-5.9 2.51-8.57 2.51a3.53 3.53 0 0 1 1.26-.8 4.322 4.322 0 0 0 1.83-.49c1.76-3.81 14.87-5.59 18.4-7.28h.11c6.66-2.76 13.66-4.6 20.31-7.35 4.84-2 13.61-4.26 17.29-7.96a14.31 14.31 0 0 0 5.71-2.97l.35-.69v-.23c-.44-.43-.597-1.03-1.26-1.03l.23-.23c-.227 0-.267-.08-.11-.23h-.117c-.23-.05-.93 0-.46-.23a.818.818 0 0 0 .11-.8 4.2 4.2 0 0 0-.69.34c0-.83-15.94-.72-16.69-.34q-.8-.76-1.37.11c-2.63 0-6.3.44-8.8-.57-1.48.01-4.484.66-5.48-.34-11.85-2.92-26.655-7.76-24.11-23.54 1.62-10.07 9.355-15.17 15.884-21.71a1.882 1.882 0 0 0 .454-.12q6.62-3.3 13.22-6.67c2.69-1.36 6.67-4.42 9.75-4.42a28.16 28.16 0 0 1 5-1.33zm-24.34 55.65a5.373 5.373 0 0 0 .8.69c-.48-1.42 1.02-1.13-.12-2.28v-.22c-3.66-1.04-8.8-4.57-12.11-4.57-.42 1.05.56 1.03 1.03 1.49 3.36 1.37 7.13 3.29 10.4 4.92zm61.48-52.23q-1.15-.17 0 .12z"/>
</svg>