<svg xmlns="http://www.w3.org/2000/svg" viewBox="0 0 540 57.246">
    <defs>
        <style>
            .fill--yellow {
                fill: #ffd200;
            }
        </style>
    </defs>
    <title>presentation</title>
    <g class="fill--yellow">
        <path d="M102.012,7.915l-2.165,3.827H88.5v6.805H84.479V4.811q.468-3.168,4.014-3.827h13.58V4.811H90.565q-2.07,0-2.07,2.258V10.33l1.38-2.415Z"/>
        <path d="M119.636.984q3.544.66,4.013,3.827V9.829a3.978,3.978,0,0,1-2.162,3.229l2.131,5.489H119.1l-2.069-4.958h-6.056l2.163-3.827h4.517q1.975,0,1.975-2.1V7.069q0-2.259-2.069-2.258h-9V18.547h-4.045V.984Z"/>
        <path d="M130.1.984h11.1q3.542.66,4.013,3.827v9.972a4.192,4.192,0,0,1-4.013,3.764H130.1a4.192,4.192,0,0,1-4.016-3.764V4.811Q126.551,1.643,130.1.984Zm0,6.085v5.55q0,2.1,1.975,2.1h7.15q1.976,0,1.976-2.1V7.069q0-2.259-2.071-2.258h-6.961Q130.1,4.811,130.1,7.069Z"/>
        <path d="M162.737,9.358l-1.412,2.508L151.7,5.94V18.547h-4.014V.984H151.7l11.04,6.931V.984h4.044V18.547H162.74Z"/>
        <path d="M169.228.984h17.625V4.811h-6.805V18.547h-4.015V4.811h-6.8Z"/>
        <path d="M198.525,7.915l-2.2,3.827H186.7l2.226-3.827Z"/>
        <path d="M218.432,7.915l-2.2,3.827h-11.5v.877q0,2.1,1.976,2.1h11.8l-2.2,3.828H204.727a4.189,4.189,0,0,1-4.014-3.764V4.811q.468-3.168,4.014-3.827h13.735V4.811H206.8q-2.072,0-2.07,2.258V10.33l1.38-2.415Z"/>
        <path d="M235.98,9.358l-1.411,2.508L224.942,5.94V18.547h-4.015V.984h4.015L235.98,7.915V.984h4.046V18.547H235.98Z"/>
        <path d="M242.572.984h15.117q3.543.66,4.013,3.827v9.972a4.192,4.192,0,0,1-4.013,3.764h-8.656L251.2,14.72h4.519q1.977,0,1.976-2.1V7.069q0-2.259-2.07-2.258h-9V18.547h-4.046Z"/>
        <path d="M275.187.984H290.3q3.541.66,4.013,3.827v9.972a4.192,4.192,0,0,1-4.013,3.764h-8.656l2.164-3.827h4.516q1.976,0,1.976-2.1V7.069q0-2.259-2.07-2.258h-9V18.547h-4.046Z"/>
        <path d="M314.467,7.915l-2.2,3.827h-11.5v.877q0,2.1,1.976,2.1h11.79l-2.194,3.827H300.762a4.191,4.191,0,0,1-4.015-3.764V4.811q.469-3.168,4.015-3.827H314.5V4.811H302.834q-2.07,0-2.07,2.258V10.33l1.378-2.415Z"/>
        <path d="M321.343.984,326.8,14.752,332.288.984h4.673L330,18.547h-6.367L316.639.984Z"/>
        <path d="M356.253,7.915l-2.19,3.827H342.55v.877q0,2.1,1.975,2.1h11.791l-2.194,3.827H342.55a4.19,4.19,0,0,1-4.015-3.764V4.811Q339,1.643,342.55.984h13.735V4.811H344.622q-2.069,0-2.069,2.258V10.33l1.379-2.415Z"/>
        <path d="M362.761.984V12.619q0,2.1,1.976,2.1h10.541l-2.163,3.827h-10.35a4.189,4.189,0,0,1-4.014-3.764V.984Z"/>
        <path d="M381.411.984h11.1q3.545.66,4.013,3.827v9.972a4.189,4.189,0,0,1-4.013,3.764h-11.1a4.19,4.19,0,0,1-4.015-3.764V4.811Q377.866,1.643,381.411.984Zm0,6.085v5.55q0,2.1,1.976,2.1h7.15q1.974,0,1.975-2.1V7.069q0-2.259-2.069-2.258h-6.962Q381.411,4.811,381.411,7.069Z"/>
        <path d="M399,.984h15.116q3.543.66,4.014,3.827V9.829a4.189,4.189,0,0,1-4.014,3.763H405.46l2.165-3.827h4.515q1.977,0,1.976-2.1v-.6q0-2.259-2.07-2.258h-9v13.74H399Z"/>
        <path d="M438.28,7.915l-2.195,3.827h-11.51v.877q0,2.1,1.976,2.1h11.79l-2.191,3.827H424.575a4.19,4.19,0,0,1-4.015-3.764V4.811q.469-3.168,4.015-3.827H438.31V4.811H426.647q-2.07,0-2.07,2.258V10.33l1.38-2.415Z"/>
        <path d="M455.886.984q3.543.66,4.014,3.827V9.829a3.974,3.974,0,0,1-2.163,3.229l2.13,5.489H455.35l-2.065-4.958h-6.056l2.164-3.827h4.516q1.977,0,1.977-2.1v-.6q0-2.259-2.07-2.258h-9V18.547H440.77V.984Z"/>
        <path d="M69.741,31.628l-5.551,13.8H57.981l-5.551-13.8v13.8H48.384V27.865h7.183l5.518,13.767,5.52-13.767h7.182V45.427H69.741Z"/>
        <path d="M80.276,27.865h11.1q3.546.659,4.014,3.826v9.972a4.188,4.188,0,0,1-4.014,3.764h-11.1a4.188,4.188,0,0,1-4.015-3.764V31.691Q76.731,28.523,80.276,27.865Zm0,6.084V39.5q0,2.1,1.974,2.1H89.4q1.977,0,1.976-2.1V33.949q0-2.257-2.07-2.258H82.348Q80.275,31.691,80.276,33.949Z"/>
        <path d="M97.823,27.865h17.625v3.826h-6.8V45.427h-4.015V31.691h-6.81Z"/>
        <path d="M117.9,27.865h4.037V45.427H117.9Z"/>
        <path d="M128.445,27.865h11.1q3.544.659,4.014,3.826v9.972a4.189,4.189,0,0,1-4.014,3.764h-11.1a4.188,4.188,0,0,1-4.014-3.764V31.691Q124.9,28.523,128.445,27.865Zm0,6.084V39.5q0,2.1,1.976,2.1h7.15q1.976,0,1.975-2.1V33.949q0-2.257-2.069-2.258h-6.962Q128.445,31.691,128.445,33.949Z"/>
        <path d="M161.087,36.241l-1.412,2.51-9.627-5.928v12.6h-4.015V27.865h4.015L161.087,34.8V27.865h4.046V45.427h-4.046Z"/>
        <path d="M190.816,27.865l-13.83,17.562h-5.27l13.861-17.562Z"/>
        <path d="M203.862,34.7h8.656a4.393,4.393,0,0,1,4.013,3.826v3.14a4.189,4.189,0,0,1-4.013,3.763h-11.1a4.188,4.188,0,0,1-4.015-3.763V31.691q.47-3.168,4.015-3.826H216.5l-2.163,3.826H203.486q-2.07,0-2.07,2.258V39.5q0,2.1,1.976,2.1h7.15q1.976,0,1.976-1.475a1.413,1.413,0,0,0-.5-1.271,2.91,2.91,0,0,0-1.57-.328h-4.39Z"/>
        <path d="M234.073,27.865q3.544.659,4.014,3.826v5.018a3.978,3.978,0,0,1-2.162,3.229l2.13,5.489H233.54l-2.071-4.955h-6.055l2.164-3.826h4.516q1.977,0,1.976-2.1v-.6q0-2.257-2.07-2.258h-9V45.427h-4.045V27.865Z"/>
        <path d="M251.332,45.427h-11.1l6.994-17.562h6.362l6.961,17.562h-4.71l-5.455-13.736L246.457,41.6h7.026Z"/>
        <path d="M262.669,27.865h15.117a4.393,4.393,0,0,1,4.013,3.826v5.018a4.191,4.191,0,0,1-4.013,3.763h-8.657l2.165-3.826h4.516q1.976,0,1.976-2.1v-.6q0-2.257-2.071-2.258h-9V45.427h-4.046Z"/>
        <path d="M299.287,36.175l-1.406,2.447h-9.633v6.805h-4.014V27.865h4.014V37.21l1.38-2.414h9.659V27.865h4.045V45.427h-4.045Z"/>
        <path d="M305.872,27.865h4.045V45.427h-4.045Z"/>
        <path d="M316.426,39.5q0,2.1,1.974,2.1h11.761L328,45.427H316.426a4.188,4.188,0,0,1-4.015-3.764V31.691q.469-3.168,4.015-3.826h13.735v3.826H318.5q-2.069,0-2.069,2.258Z"/>
        <path d="M343.645,27.865h15.117a4.393,4.393,0,0,1,4.013,3.826v9.972a4.192,4.192,0,0,1-4.013,3.764h-8.656L352.27,41.6h4.516q1.976,0,1.976-2.1V33.949q0-2.257-2.07-2.258h-9V45.427h-4.046Z"/>
        <path d="M382.925,34.8l-2.2,3.826h-11.5V39.5q0,2.1,1.976,2.1h11.79l-2.194,3.825H369.22a4.189,4.189,0,0,1-4.015-3.764v-9.97q.469-3.168,4.015-3.826h13.735v3.826H371.292q-2.07,0-2.07,2.258V37.21L370.6,34.8Z"/>
        <path d="M387.628,41.6h10.819a2.93,2.93,0,0,0,1.57-.33,1.416,1.416,0,0,0,.5-1.271,1.212,1.212,0,0,0-.486-1.082,2.7,2.7,0,0,0-1.49-.33h-9.124a4.185,4.185,0,0,1-4.015-3.762v-3.14q.469-3.168,4.015-3.825h15.108v3.825h-13.04a2.908,2.908,0,0,0-1.569.33,1.408,1.408,0,0,0-.5,1.269q0,1.476,1.975,1.475h9.126q3.543.5,4.014,3.7V41.6q-.469,3.166-4.014,3.825H385.4Z"/>
        <path d="M406.971,27.865h4.045V45.427h-4.045Z"/>
        <path d="M419.97,34.7h8.655a4.392,4.392,0,0,1,4.015,3.826v3.14a4.191,4.191,0,0,1-4.015,3.763h-11.1a4.187,4.187,0,0,1-4.014-3.763V31.691q.468-3.168,4.014-3.826h15.084l-2.164,3.826H419.6q-2.07,0-2.07,2.258V39.5q0,2.1,1.976,2.1h7.15q1.977,0,1.975-1.475a1.416,1.416,0,0,0-.5-1.271,2.91,2.91,0,0,0-1.57-.328h-4.387Z"/>
        <path d="M450.122,36.241l-1.413,2.507-9.627-5.928V45.427h-4.014V27.865h4.014L450.12,34.8V27.865h4.046V45.427h-4.044Z"/>
        <path d="M474.376,34.8l-2.2,3.826h-11.5V39.5q0,2.1,1.974,2.1h11.792l-2.195,3.825H460.673a4.188,4.188,0,0,1-4.015-3.764v-9.97q.468-3.168,4.015-3.826h13.734v3.826H462.745q-2.069,0-2.069,2.258V37.21l1.379-2.414Z"/>
        <path d="M491.985,27.865q3.546.659,4.015,3.826v5.018a3.981,3.981,0,0,1-2.163,3.229l2.13,5.489h-4.515l-2.071-4.955h-6.055l2.163-3.826h4.517q1.976,0,1.975-2.1v-.6q0-2.257-2.069-2.258h-9V45.427h-4.045V27.865Z"/>
    </g>
</svg>
