<svg id="ckn-intro" data-name="ckn-intro" xmlns="http://www.w3.org/2000/svg" viewBox="0 0 540 41">
  <defs>
    <style>
      .fill-pink {
        fill: #d90077;
      }
        
      .shadow-black {
        filter: drop-shadow(2px 2px 0 #161616);
      }

      .stroke-yellow {
        fill: none;
        stroke: #ffd200;
        stroke-linecap: round;
        stroke-miterlimit: 10;
        stroke-width: 2px;
      }
    </style>
  </defs>
  <title>Hey! My name is</title>
  <g>
    <g class="shadow-black">
      <path class="fill-pink" d="M197.5,2.536h.209a.269.269,0,0,1,.121.016.2.2,0,0,0,.065.024.145.145,0,0,1,.072.04,1.574,1.574,0,0,0,.224.144.418.418,0,0,1,.194.338,2.154,2.154,0,0,1-.379.8q-.376.6-1.936,3-3.6,5.51-6.442,10.218-4.917,8.178-4.964,8.226a.224.224,0,0,0-.064.1.114.114,0,0,1-.129.1l-.225-.048-.433.112-.258-.048-.274.048h-.095l-.9.128q-.8,0-.8-.546a1.485,1.485,0,0,1,.145-.562q.5-1.173,5.013-8.531-2.973.08-5.865.08l-3.455-.016q-.851,1.365-2.329,3.872a55.336,55.336,0,0,1-3.405,5.519,1.4,1.4,0,0,1-.338.056.309.309,0,0,1-.241-.153c-.075-.1-.126-.152-.153-.152a.517.517,0,0,0-.168.064.848.848,0,0,1-.37.064l-.37-.016-.144-.1c-.011,0-.025.016-.04.048s-.057.048-.121.048q-.69,0-.691-.578a2.683,2.683,0,0,1,.274-1.012,11.938,11.938,0,0,1,.715-1.366q.439-.739,2.281-3.5t1.84-2.771q-.306-.015-.707-.032a7.1,7.1,0,0,1-1.158-.064q-.914-.16-1.253-1.511a3.442,3.442,0,0,1-.161-.867q0-.434.37-.434l.418.112,1.542.081q1.222.064,1.752.064l.916-.032q2.088-3.278,5-7.407a7.255,7.255,0,0,1-4.707,1.735,3.721,3.721,0,0,1-2.1-.586,1.735,1.735,0,0,1-.883-1.486,1.7,1.7,0,0,1,.674-1.422,2.137,2.137,0,0,1,1.285-.522q.61,0,.611.193c0,.043-.056.091-.169.144s-.168.108-.168.161q0,.256.562.458a3.73,3.73,0,0,0,1.262.2,4.854,4.854,0,0,0,1.726-.409A16.29,16.29,0,0,0,181,3.5q1.542-.9,2.442-1.495a2.17,2.17,0,0,1,.964-.256,1.493,1.493,0,0,1,.651.1,1.063,1.063,0,0,1,.3.209,2.173,2.173,0,0,1,.209.273,1.266,1.266,0,0,0,.216.257.257.257,0,0,1,.106.2.934.934,0,0,1-.121.354q-.12.242-1.229,1.952t-2.851,4.37q-1.744,2.659-2.547,3.912,4.288,0,9.269-.16,6.059-9.559,6.4-10.026a2.025,2.025,0,0,1,.611-.61,1.418,1.418,0,0,1,.674-.145Z"/>
      <path class="fill-pink" d="M215.846,20.417a.565.565,0,0,0-.354.145q-4.432,4.034-6.876,6.089,1.51-3.117,5.527-9.9,1.365-2.3,1.494-2.546a.943.943,0,0,0,.129-.4.513.513,0,0,0-.161-.329,2.355,2.355,0,0,1-.185-.209,1.058,1.058,0,0,0-.529-.209,3.449,3.449,0,0,0-.66-.1.57.57,0,0,0-.393.161c-.075.053-.145.106-.209.16a1.591,1.591,0,0,0-.217.233l-.209.265c-.058.075-.134.179-.224.313s-.167.241-.225.322-.137.2-.233.345a28.247,28.247,0,0,1-3.15,3.905,35.985,35.985,0,0,1-3.285,3.156,4.974,4.974,0,0,1-1.92,1.229.113.113,0,0,1-.129-.128,21.249,21.249,0,0,1,2.106-4.354,22.185,22.185,0,0,0,2.1-4.322,1.066,1.066,0,0,0-.457-.859,1.352,1.352,0,0,0-.747-.362c-.192,0-.4.169-.61.506s-.526.9-.932,1.679-.8,1.468-1.189,2.057q-.612,1.107-1.327,2.3c-.2.335-.371.619-.521.871a.3.3,0,0,0-.112-.036.773.773,0,0,0-.378.177q-.249.177-1.189.94a21.76,21.76,0,0,1-2.112,1.5,5.146,5.146,0,0,1-2.748.867q-2.136,0-2.137-1.253,0-.707,3.391-2.6a5.57,5.57,0,0,1,.707-.281,2.95,2.95,0,0,0,.947-.539c.278-.235.418-.425.418-.57a1.235,1.235,0,0,0-.241-.594,1.407,1.407,0,0,0-.45-.49,1.579,1.579,0,0,0-.41-.033,4.145,4.145,0,0,0-1.1.266,4.156,4.156,0,0,1-1.165.265c-.251,0-.378-.043-.378-.129q0-.385,1.029-1.173a16.1,16.1,0,0,1,1.735-1.189,7.469,7.469,0,0,1,1.285-.594,2.173,2.173,0,0,0-.065.53.773.773,0,0,0,.114.442.523.523,0,0,0,.465.169,2.785,2.785,0,0,0,1.952-.8,2.484,2.484,0,0,0,.86-1.864.8.8,0,0,0-.547-.723,2.5,2.5,0,0,0-1.076-.257,10.884,10.884,0,0,0-5.045,1.526,7.092,7.092,0,0,0-2.145,1.727,3.19,3.19,0,0,0-.875,1.992,3.863,3.863,0,0,0,.176,1.366,1.417,1.417,0,0,0,.787.7q-3.068,1.142-3.068,3.358a2.659,2.659,0,0,0,1.8,2.506,6.354,6.354,0,0,0,2.618.45,9.8,9.8,0,0,0,5.675-2.157c-.005.093-.019.184-.019.277a1.6,1.6,0,0,0,.609,1.438,2.21,2.21,0,0,0,1.239.41h.111a4.991,4.991,0,0,0,2.539-1.181,25.8,25.8,0,0,0,2.86-2.739q-2.313,4.37-2.411,4.506t-1.14,1.157a19.485,19.485,0,0,0-1.735,1.9,7.112,7.112,0,0,0-1.816,4.1A1.314,1.314,0,0,0,202.9,35.3c.086,0,.282-.019.586-.056a2.271,2.271,0,0,0,1.142-.731,7.81,7.81,0,0,0,1.148-1.422q.466-.747.876-1.478a6.9,6.9,0,0,1,.491-.812,73.544,73.544,0,0,1,9.045-8.258.8.8,0,0,0,.16-.594Q216.344,20.417,215.846,20.417Z"/>
      <path class="fill-pink" d="M216.521,25.5a2.524,2.524,0,0,1,.852-1.847,2.557,2.557,0,0,1,1.791-.827.827.827,0,0,1,.94.931,2.721,2.721,0,0,1-.86,1.848,2.475,2.475,0,0,1-1.791.916Q216.522,26.523,216.521,25.5ZM232.3,1.25l1.236.161c.268,0,.4.086.4.257a.783.783,0,0,1-.065.209q-4.98,7.31-11.086,17.207a1.36,1.36,0,0,1-.658.659.045.045,0,0,0-.033.016.294.294,0,0,1-.056.04.353.353,0,0,1-.1.04,1.515,1.515,0,0,1-.563.1.778.778,0,0,0-.449.1.9.9,0,0,1-.5.1.532.532,0,0,1-.595-.61q0-1.077,2.755-5.5t5.406-8.226a29.657,29.657,0,0,1,3.391-4.378A1.691,1.691,0,0,1,232.3,1.25Z"/>
      <path class="fill-pink" d="M257.281,19.534l.129.611a1.623,1.623,0,0,1-.4.915,18.649,18.649,0,0,1-3.4,3.173q-2.337,1.793-3.447,1.792a2.294,2.294,0,0,1-1.734-.651,2.083,2.083,0,0,1-.627-1.486q0-1,2.088-4.4,3.133-5.061,8-11.825-1.029,1.061-5.463,5.719-9.818,10.283-11.471,11.649a1.226,1.226,0,0,1-.8.224,1.879,1.879,0,0,1-1.1-.425,1.2,1.2,0,0,1-.578-.956v-.08a48.475,48.475,0,0,1,3.1-6.6q3.036-5.928,5.093-9.431-3.036,3.342-6.137,7.455a88.9,88.9,0,0,0-8.628,13.3c-.161.343-.358.514-.595.514a4.476,4.476,0,0,1-1.028-.176q-1.413-.387-1.413-1.35,0-.579,2.361-4.137t5.479-7.777q3.117-4.216,6.459-8.121,4.611-5.4,5.928-5.4a.831.831,0,0,1,.4.1.806.806,0,0,0,.24.1.142.142,0,0,0,.1-.048,1.034,1.034,0,0,1,.826-.257,3.153,3.153,0,0,1,1.205.241c.392.161.587.343.587.546a26.742,26.742,0,0,1-1.607,3.069q-5.38,9.543-7.23,13.11,1.769-2.136,5.053-5.671t6.9-7.053q4.707-4.563,5.623-4.563a3.575,3.575,0,0,1,.932.16,6.85,6.85,0,0,0,1.912.29.883.883,0,0,1,.442.217.474.474,0,0,1,.184.345.424.424,0,0,1-.1.289Q259.355,9.9,255.771,15.2a61.715,61.715,0,0,0-4.417,7.166q1.688-.354,5.029-4.033a2.85,2.85,0,0,1,.208-.257,1.074,1.074,0,0,0,.112-.129q.275-.321.418.4.065.419.088.586c.017.113.033.231.049.354S257.281,19.491,257.281,19.534Z"/>
      <path class="fill-pink" d="M262.985,30.8a7.308,7.308,0,0,0-.49.812q-.408.73-.876,1.478a7.81,7.81,0,0,1-1.148,1.422,2.269,2.269,0,0,1-1.141.731q-.458.056-.586.056a1.313,1.313,0,0,1-1.478-1.494,7.117,7.117,0,0,1,1.815-4.1,19.485,19.485,0,0,1,1.735-1.9q1.046-1.02,1.141-1.157t2.41-4.506a25.886,25.886,0,0,1-2.859,2.739,5,5,0,0,1-2.539,1.181h-.113a2.2,2.2,0,0,1-1.237-.41,1.6,1.6,0,0,1-.61-1.438,5.865,5.865,0,0,1,.819-2.956q.29-.5,1-1.687t1.326-2.3q.577-.883,1.189-2.057t.931-1.679q.321-.505.611-.506a1.354,1.354,0,0,1,.748.362,1.069,1.069,0,0,1,.457.859,22.129,22.129,0,0,1-2.105,4.322,21.3,21.3,0,0,0-2.1,4.354.113.113,0,0,0,.129.128,4.989,4.989,0,0,0,1.92-1.229,35.985,35.985,0,0,0,3.285-3.156,28.217,28.217,0,0,0,3.148-3.905q.145-.225.234-.345c.058-.081.133-.188.224-.322s.166-.238.226-.313.128-.163.209-.265a1.591,1.591,0,0,1,.217-.233c.063-.054.133-.107.209-.16a.57.57,0,0,1,.393-.161,3.433,3.433,0,0,1,.658.1,1.063,1.063,0,0,1,.531.209,2.2,2.2,0,0,0,.184.209.509.509,0,0,1,.161.329.943.943,0,0,1-.129.4q-.129.249-1.494,2.546-4.017,6.78-5.527,9.9,2.443-2.056,6.877-6.089a.561.561,0,0,1,.353-.145q.5,0,.5,1.527a.8.8,0,0,1-.16.594A73.7,73.7,0,0,0,262.985,30.8Z"/>
      <g>
        <path class="fill-pink" d="M349.157,10.585a2.439,2.439,0,0,0,1.776-.924,2.744,2.744,0,0,0,.851-1.84.882.882,0,0,0-.257-.675.969.969,0,0,0-.69-.24,2.414,2.414,0,0,0-1.792.875,2.687,2.687,0,0,0-.812,1.84Q348.233,10.586,349.157,10.585Z"/>
        <path class="fill-pink" d="M360.879,12.513q-.418-.771-2.2-.771A12.168,12.168,0,0,0,354.2,12.85a16.959,16.959,0,0,0-2.522,1.3,7.237,7.237,0,0,0-1.952,1.776,3.457,3.457,0,0,0-.78,2.089A1.8,1.8,0,0,0,349.7,19.6a3.6,3.6,0,0,0,.691.4,8.341,8.341,0,0,0,.916.313q.577.169,1.855.466a16.8,16.8,0,0,1,1.816.5q.539.2.539.474,0,.579-1.487,1.157a9.381,9.381,0,0,1-3.414.578.86.86,0,0,1-.562-.289.918.918,0,0,1-.306-.691l.017-.257c0-.213-.2-.322-.583-.333,0-.025,0-.042,0-.068q0-1.447-.418-1.447a7.96,7.96,0,0,0-1.719,1.623,7.26,7.26,0,0,1-1.374,1.117,2.869,2.869,0,0,1-1.534.506c-.492,0-.74-.182-.74-.546a2.542,2.542,0,0,1,.322-1.077c.107-.2.2-.378.281-.522s.193-.327.338-.546.232-.362.265-.426a70.093,70.093,0,0,0,3.824-6.957,1.3,1.3,0,0,0-.4-.819,1.2,1.2,0,0,0-.908-.45,2.924,2.924,0,0,0-1.462.7,11.489,11.489,0,0,0-1.623,1.414q-.666.716-.667.883c0,.113.111.287.33.523s.329.393.329.473a10.774,10.774,0,0,1-.883,1.551q-.883,1.429-1.768,3.117a6.262,6.262,0,0,0-.883,2.571,2.415,2.415,0,0,0,.915,1.735,3.1,3.1,0,0,0,2.186.851,6.229,6.229,0,0,0,2.988-.988,6.854,6.854,0,0,0,1.107-.8,1.777,1.777,0,0,0,.7,1.142,4.392,4.392,0,0,0,2.651.587,10.55,10.55,0,0,0,4.506-1.269,6.374,6.374,0,0,0,2.024-1.5,2.875,2.875,0,0,0,.821-1.943,2.073,2.073,0,0,0-.4-1.109,3.371,3.371,0,0,0-1.445-1.093,23.777,23.777,0,0,0-4.37-1.141q-.739-.144-.739-.377c0-.155.181-.4.546-.731a11.3,11.3,0,0,1,1.374-1.045,10.214,10.214,0,0,1,1.984-.987,7.132,7.132,0,0,1,2.217-.491,1.21,1.21,0,0,1-.225.426.638.638,0,0,0-.161.394c0,.129.04.209.121.241a.468.468,0,0,1,.2.152.609.609,0,0,0,.2.169,1.554,1.554,0,0,0,.579.065,3.041,3.041,0,0,0,1.237-.386,3.136,3.136,0,0,0,1.141-.868,2.176,2.176,0,0,0,.361-1.333v-.112A1.425,1.425,0,0,0,360.879,12.513Z"/>
      </g>
      <path class="fill-pink" d="M334.577,20.4a.767.767,0,0,0-.377.177c-.167.118-.562.431-1.189.94a21.779,21.779,0,0,1-2.113,1.5,5.14,5.14,0,0,1-2.748.867q-2.136,0-2.136-1.253,0-.707,3.39-2.6a5.668,5.668,0,0,1,.706-.281,2.96,2.96,0,0,0,.949-.539c.278-.235.418-.425.418-.57a1.239,1.239,0,0,0-.242-.594,1.389,1.389,0,0,0-.45-.49,1.559,1.559,0,0,0-.409-.033,4.158,4.158,0,0,0-1.1.266,4.149,4.149,0,0,1-1.165.265c-.252,0-.377-.043-.377-.129q0-.385,1.028-1.173a16.005,16.005,0,0,1,1.735-1.189,7.5,7.5,0,0,1,1.285-.594,2.222,2.222,0,0,0-.063.53.781.781,0,0,0,.112.442.525.525,0,0,0,.466.169,2.785,2.785,0,0,0,1.952-.8,2.486,2.486,0,0,0,.859-1.864.8.8,0,0,0-.545-.723,2.513,2.513,0,0,0-1.078-.257,10.891,10.891,0,0,0-5.045,1.526,7.1,7.1,0,0,0-2.144,1.727,3.192,3.192,0,0,0-.876,1.992,3.858,3.858,0,0,0,.177,1.366,1.416,1.416,0,0,0,.788.7,7.089,7.089,0,0,0-1.584.807,17.424,17.424,0,0,0-2.031,1.539,10.446,10.446,0,0,1-1.246.963,2.61,2.61,0,0,1-1.084.5,1.231,1.231,0,0,1-.659-.1q-.273-.137-.273-.875a7.83,7.83,0,0,1,1.294-2.579q1.293-2.049,2.6-4.081a7.669,7.669,0,0,0,1.3-2.57,1.212,1.212,0,0,0-.417-.924,1.458,1.458,0,0,0-1.028-.386,6.544,6.544,0,0,0-3.519,1.092,12.71,12.71,0,0,0-1.558,1.214q-.837.747-1.39,1.341t-1.357,1.478q-.8.884-1.254,1.333.032-.047.41-.5c.251-.3.418-.5.5-.61l.441-.586a5.047,5.047,0,0,0,.458-.691c.091-.177.2-.391.33-.643a2.918,2.918,0,0,0,.265-.723,4.353,4.353,0,0,0,.072-.868,1.427,1.427,0,0,0-.425-.98A1.588,1.588,0,0,0,315,12.465a5.931,5.931,0,0,0-2.571,1.116,22.331,22.331,0,0,0-3.977,3.4q.1-.128.8-1t1.221-1.542a5.759,5.759,0,0,0,.642-.972,1.28,1.28,0,0,0,.129-.474q0-.627-.4-.627a4.481,4.481,0,0,0-1.39.233,1.971,1.971,0,0,0-1.037.683,61.209,61.209,0,0,0-4.884,8.533c-.119.124-.233.253-.353.376a8.25,8.25,0,0,1-1.173.98,2.118,2.118,0,0,1-1.141.458q-.482,0-.482-.884a1.6,1.6,0,0,1,.049-.45,14.263,14.263,0,0,1,1.068-3.141q.828-1.839,1.51-3.02a9.828,9.828,0,0,1,.891-1.39.9.9,0,0,0,.209-.659q0-.834-1.22-.835a1.638,1.638,0,0,0-.795.152,2.4,2.4,0,0,0-.652.732,1.31,1.31,0,0,0-.69-.723,3.014,3.014,0,0,0-1.414-.289,8.23,8.23,0,0,0-4.916,2.088,17.087,17.087,0,0,0-2.33,2.209,10.512,10.512,0,0,0-1.711,2.683,7.558,7.558,0,0,0-.572,1.967,9.555,9.555,0,0,1-1.388,1.11,2.54,2.54,0,0,1-1.294.514q-.964,0-.964-.707a2.633,2.633,0,0,1,.225-.932q.127-.3.249-.562c.081-.171.187-.375.321-.611s.247-.433.338-.594.211-.361.361-.6.257-.41.321-.507.163-.249.3-.457.218-.338.249-.386.237-.345.612-.892.676-1,.907-1.358a12.373,12.373,0,0,0,.682-1.22,2.733,2.733,0,0,0,.338-1.173,1.188,1.188,0,0,0-.442-.892,1.7,1.7,0,0,0-1.189-.4,4.3,4.3,0,0,0-1.678.4,15.373,15.373,0,0,0-4.692,3.9l.675-1.012a7.011,7.011,0,0,0,1.4-2.844q0-.481-.386-.482a2.931,2.931,0,0,0-2.442.916,13.309,13.309,0,0,0-1,1.542q-.288.515-1.766,2.989t-2.194,3.719q-.714,1.245-.956,1.631t-.345.57a3.892,3.892,0,0,0-.217.466,1.346,1.346,0,0,0-.112.474.339.339,0,0,0,.128.289,3.774,3.774,0,0,0,.7.314,2.757,2.757,0,0,0,.908.217q.337,0,.867-.691,1.9-2.523,3.262-4.033t3.463-3.551q2.1-2.04,2.626-2.088l.032.032a6.476,6.476,0,0,1-.883,1.55q-.835,1.245-1.406,2.185a16.618,16.618,0,0,0-1.116,2.258,6.229,6.229,0,0,0-.547,2.353,2.242,2.242,0,0,0,.836,1.76,2.666,2.666,0,0,0,1.686.739,4.574,4.574,0,0,0,1.559-.225,8.707,8.707,0,0,0,2.17-1.359,2.6,2.6,0,0,0,.61.877,2.477,2.477,0,0,0,1.783.658,5.424,5.424,0,0,0,2.82-1.205,13.8,13.8,0,0,0,3.06-2.94,4.106,4.106,0,0,0-.321,1.679,2.774,2.774,0,0,0,.61,1.743,2.26,2.26,0,0,0,1.9.788,3.97,3.97,0,0,0,2.1-.72c.016.012.022.015.039.029a1.089,1.089,0,0,0,.346.193h.289l.787.032c.1,0,.284-.161.563-.482a7.521,7.521,0,0,0,.562-.707,35.782,35.782,0,0,1,6.3-7.728q1.477-1.413,1.952-1.414t.474.394a31.565,31.565,0,0,1-2.555,4.739q-2.555,4.347-2.555,4.507c0,.215.188.388.563.522a3.215,3.215,0,0,0,1.085.2.892.892,0,0,0,.763-.321q2.1-2.748,2.667-3.422a60.217,60.217,0,0,1,5.077-5.3q1.719-1.605,2.217-1.606c.085,0,.128.027.128.08a6.876,6.876,0,0,1-.7,1.037q-.7.956-1.534,2.144a18.433,18.433,0,0,0-1.534,2.652,6,6,0,0,0-.7,2.49,2.658,2.658,0,0,0,.634,1.775,3.346,3.346,0,0,0,2.29.908,1.524,1.524,0,0,0,.257.016,4.9,4.9,0,0,0,3.053-1.3c.2-.165.378-.321.553-.477a2.981,2.981,0,0,0,1.519,1.377,6.362,6.362,0,0,0,2.619.45q3.068,0,6.507-2.8a2.057,2.057,0,0,0,.643-.731A4.261,4.261,0,0,0,335,21.333Q335,20.4,334.577,20.4Zm-36.743-1.429a24.769,24.769,0,0,1-2.731,2.611,7.86,7.86,0,0,1-2.507,1.775c-.214,0-.322-.188-.322-.563a5.527,5.527,0,0,1,.876-2.088,13.416,13.416,0,0,1,1.92-2.619q2.94-3.052,5.688-3.053Q298.573,18.04,297.834,18.972Z"/>
    </g>
  </g>
  <path class="stroke-yellow" d="M196.019,34.755q-14.981,1.617-29.892,3.978m45.512-5.46q20.386-1.67,40.835-1.967m16.047-.021A608.386,608.386,0,0,1,356.5,38.733"/>
</svg>