<?xml version="1.0" encoding="UTF-8"?>
<svg width="128px" height="16px" viewBox="0 0 128 16" version="1.1" xmlns="http://www.w3.org/2000/svg" xmlns:xlink="http://www.w3.org/1999/xlink">
    <!-- Generator: Sketch 47.1 (45422) - http://www.bohemiancoding.com/sketch -->
    <title>Tools</title>
    <desc>Created with Sketch.</desc>
    <defs>
        <polygon id="path-1" points="1.87984118e-16 7.73253372 1.87984118e-16 0.00551046512 7.72330983 0.00551046512 7.72330983 7.73253372"></polygon>
    </defs>
    <g id="Symbols" stroke="none" stroke-width="1" fill="none" fill-rule="evenodd">
        <g id="Tools">
            <g id="Ps" transform="translate(1.000000, 1.000000)">
                <polygon id="Fill-12" fill="#002733" points="0.5 13.5 13.5 13.5 13.5 0.5 0.5 0.5"></polygon>
                <path d="M0,14 L14,14 L14,0 L0,0 L0,14 Z M1,13 L13,13 L13,1 L1,1 L1,13 Z" id="Fill-13" fill="#03D7FF"></path>
                <path d="M4.603,6.8687 C4.672,6.8787 4.803,6.8877 5.167,6.8877 C5.853,6.8877 6.513,6.5887 6.513,5.6227 C6.513,4.8497 6.07,4.4247 5.254,4.4247 C4.915,4.4247 4.672,4.4347 4.603,4.4447 L4.603,6.8687 Z M3.561,3.5947 C3.561,3.5457 3.57,3.5267 3.613,3.5267 C3.943,3.5167 4.594,3.5077 5.254,3.5077 C6.956,3.5077 7.546,4.4827 7.555,5.6037 C7.555,7.1397 6.417,7.8057 5.142,7.8057 L4.603,7.8057 L4.603,9.7467 C4.603,9.8047 4.586,9.8247 4.542,9.8247 L3.622,9.8247 C3.579,9.8247 3.561,9.8047 3.561,9.7567 L3.561,3.5947 Z" id="Fill-14" fill="#03D7FF"></path>
                <path d="M9.5347,5.9219 C9.1097,5.9219 8.9967,6.1439 8.9967,6.3279 C8.9967,6.5599 9.1097,6.6849 9.7607,6.9749 C10.6547,7.3809 11.0367,7.7379 11.0367,8.4339 C11.0367,9.3999 10.3677,9.9209 9.4127,9.9209 C8.9527,9.9209 8.4317,9.7949 8.0677,9.5439 C8.0327,9.5249 8.0147,9.4959 8.0147,9.4469 L8.0147,8.5589 C8.0147,8.5109 8.0497,8.4909 8.0767,8.5109 C8.5277,8.8289 9.0317,9.0319 9.4827,9.0319 C9.8817,9.0319 10.0207,8.8099 10.0207,8.5979 C10.0207,8.3469 9.8647,8.2009 9.2397,7.9219 C8.3457,7.5159 8.0327,7.1389 8.0327,6.4339 C8.0327,5.6509 8.5977,5.0329 9.6217,5.0329 C10.1507,5.0329 10.5247,5.1589 10.7677,5.3139 C10.8107,5.3519 10.8197,5.3809 10.8197,5.4389 L10.8197,6.2309 C10.8197,6.2889 10.7847,6.3179 10.7417,6.2889 C10.4287,6.0959 9.9867,5.9219 9.5347,5.9219" id="Fill-15" fill="#03D7FF"></path>
            </g>
            <g id="Ai" transform="translate(17.000000, 1.000000)">
                <polygon id="Fill-7" fill="#331900" points="0.5 13.5 13.5 13.5 13.5 0.5 0.5 0.5"></polygon>
                <path d="M0,14 L14,14 L14,0 L0,0 L0,14 Z M1,13 L13,13 L13,1 L1,1 L1,13 Z" id="Fill-9" fill="#FF9C0F"></path>
                <path d="M6.4849,7.1196 C6.3109,6.4726 5.8859,5.1686 5.7129,4.4926 L5.7039,4.4926 C5.5729,5.1296 5.2169,6.2216 4.9569,7.1196 L6.4849,7.1196 Z M4.7309,8.0666 L4.2019,9.7466 C4.1929,9.8046 4.1669,9.8246 4.1149,9.8246 L3.2289,9.8246 C3.1689,9.8246 3.1509,9.7946 3.1689,9.7276 C3.6369,8.2496 4.4269,5.7866 4.9829,4.1156 C5.0089,4.0186 5.0349,3.9226 5.0519,3.5846 C5.0519,3.5456 5.0789,3.5266 5.1049,3.5266 L6.3029,3.5266 C6.3459,3.5266 6.3549,3.5366 6.3719,3.5756 C7.0149,5.5556 7.7179,7.7386 8.3779,9.7376 C8.3949,9.7946 8.3779,9.8246 8.3259,9.8246 L7.3529,9.8246 C7.3099,9.8246 7.2929,9.8046 7.2749,9.7666 L6.7189,8.0666 L4.7309,8.0666 Z" id="Fill-10" fill="#F9A424"></path>
                <path d="M8.9902,5.2075 C8.9902,5.1495 9.0072,5.1295 9.0512,5.1295 L9.9712,5.1295 C10.0232,5.1295 10.0402,5.1395 10.0402,5.2075 L10.0402,9.7475 C10.0402,9.7945 10.0232,9.8245 9.9712,9.8245 L9.0682,9.8245 C9.0162,9.8245 8.9902,9.8045 8.9902,9.7375 L8.9902,5.2075 Z M8.9292,3.8935 C8.9292,3.5365 9.1812,3.2945 9.5192,3.2945 C9.8752,3.2945 10.0932,3.5365 10.0932,3.8935 C10.0932,4.2605 9.8582,4.4925 9.5112,4.4925 C9.1632,4.4925 8.9292,4.2605 8.9292,3.8935 L8.9292,3.8935 Z" id="Fill-11" fill="#F9A424"></path>
            </g>
            <g id="Id" transform="translate(33.000000, 1.000000)">
                <polygon id="Fill-1" fill="#330312" points="0.5 13.5 13.501 13.5 13.501 0.5 0.5 0.5"></polygon>
                <path d="M0,14 L13.999,14 L13.999,0 L0,0 L0,14 Z M1,13 L13,13 L13,1 L1,1 L1,13 Z" id="Fill-2" fill="#FB589D"></path>
                <path d="M5.2607,9.7373 C5.2607,9.7953 5.2427,9.8243 5.1827,9.8243 L4.2797,9.8243 C4.2277,9.8243 4.2097,9.7953 4.2097,9.7373 L4.2097,3.5943 C4.2097,3.5363 4.2367,3.5273 4.2797,3.5273 L5.1917,3.5273 C5.2427,3.5273 5.2607,3.5363 5.2607,3.5943 L5.2607,9.7373 Z" id="Fill-3" fill="#FB589D"></path>
                <path d="M9.0063,6.0186 C8.8763,5.9606 8.6933,5.9316 8.4933,5.9316 C7.7123,5.9316 7.1823,6.4826 7.1823,7.4676 C7.1823,8.5586 7.7563,8.9936 8.4153,8.9936 C8.6323,8.9936 8.8493,8.9556 9.0063,8.8966 L9.0063,6.0186 Z M6.1063,7.5256 C6.1063,6.1246 7.0353,5.0336 8.5113,5.0336 C8.7113,5.0336 8.8583,5.0526 9.0063,5.1016 L9.0063,3.0436 C9.0063,2.9956 9.0233,2.9766 9.0583,2.9766 L10.0043,2.9766 C10.0393,2.9766 10.0483,2.9956 10.0483,3.0346 L10.0483,8.7326 C10.0483,8.9356 10.0653,9.1966 10.0743,9.3506 C10.0823,9.3996 10.0743,9.4186 10.0303,9.4476 C9.4843,9.7476 8.8673,9.9206 8.2943,9.9206 C7.0183,9.9206 6.1063,9.1386 6.1063,7.5256 L6.1063,7.5256 Z" id="Fill-5" fill="#FB589D"></path>
            </g>
            <g id="Pr" transform="translate(49.000000, 1.000000)">
                <polygon id="Fill-20" fill="#380942" points="0.5 13.5 13.5 13.5 13.5 0.5 0.5 0.5"></polygon>
                <path d="M0,14 L14,14 L14,0 L0,0 L0,14 Z M1,13 L13,13 L13,1 L1,1 L1,13 Z" id="Fill-21" fill="#EE8DFF"></path>
                <path d="M4.8516,6.8687 C4.9206,6.8787 5.0516,6.8877 5.4156,6.8877 C6.1016,6.8877 6.7616,6.5887 6.7616,5.6227 C6.7616,4.8497 6.3186,4.4247 5.5026,4.4247 C5.1636,4.4247 4.9206,4.4347 4.8516,4.4447 L4.8516,6.8687 Z M3.8096,3.5947 C3.8096,3.5457 3.8186,3.5267 3.8616,3.5267 C4.1916,3.5167 4.8426,3.5077 5.5026,3.5077 C7.2046,3.5077 7.7946,4.4827 7.8036,5.6037 C7.8036,7.1397 6.6656,7.8057 5.3906,7.8057 L4.8516,7.8057 L4.8516,9.7467 C4.8516,9.8047 4.8346,9.8247 4.7906,9.8247 L3.8706,9.8247 C3.8276,9.8247 3.8096,9.8047 3.8096,9.7567 L3.8096,3.5947 Z" id="Fill-22" fill="#EE8DFF"></path>
                <path d="M9.2939,5.1299 C9.3469,5.1299 9.3719,5.1499 9.3899,5.2079 C9.4249,5.3329 9.4589,5.5839 9.4769,5.7969 C9.7979,5.3039 10.3449,5.0329 10.7619,5.0329 C10.7959,5.0329 10.8399,5.0329 10.8739,5.0429 C10.9179,5.0529 10.9269,5.0629 10.9269,5.1399 L10.9269,6.0379 C10.9269,6.0869 10.9089,6.1059 10.8569,6.1059 C10.3619,6.0869 9.8239,6.3089 9.5209,6.6749 L9.5209,9.7469 C9.5209,9.8049 9.5029,9.8239 9.4499,9.8239 L8.5389,9.8239 C8.4869,9.8239 8.4699,9.8049 8.4699,9.7469 L8.4699,6.4919 C8.4699,6.0669 8.4519,5.5069 8.4269,5.1879 C8.4179,5.1499 8.4349,5.1299 8.4789,5.1299 L9.2939,5.1299 Z" id="Fill-23" fill="#EE8DFF"></path>
            </g>
            <g id="Ae" transform="translate(65.000000, 1.000000)">
                <polygon id="Fill-16" fill="#2A0A50" points="0.5 13.5 13.5 13.5 13.5 0.5 0.5 0.5"></polygon>
                <path d="M0,14 L14,14 L14,0 L0,0 L0,14 Z M1,13 L13,13 L13,1 L1,1 L1,13 Z" id="Fill-17" fill="#D2A3FB"></path>
                <path d="M5.6963,7.1196 C5.5223,6.4726 5.0973,5.1686 4.9243,4.4926 L4.9153,4.4926 C4.7853,5.1296 4.4283,6.2216 4.1683,7.1196 L5.6963,7.1196 Z M3.9423,8.0666 L3.4133,9.7466 C3.4043,9.8046 3.3783,9.8246 3.3263,9.8246 L2.4403,9.8246 C2.3803,9.8246 2.3623,9.7946 2.3803,9.7276 C2.8483,8.2496 3.6383,5.7866 4.1943,4.1156 C4.2203,4.0186 4.2463,3.9226 4.2633,3.5846 C4.2633,3.5456 4.2903,3.5266 4.3153,3.5266 L5.5133,3.5266 C5.5573,3.5266 5.5663,3.5366 5.5833,3.5756 C6.2253,5.5556 6.9293,7.7386 7.5893,9.7376 C7.6063,9.7946 7.5893,9.8246 7.5373,9.8246 L6.5643,9.8246 C6.5213,9.8246 6.5043,9.8046 6.4863,9.7666 L5.9303,8.0666 L3.9423,8.0666 Z" id="Fill-18" fill="#D2A3FB"></path>
                <path d="M10.3428,6.9653 C10.6638,6.9653 10.7168,6.9263 10.7258,6.8873 L10.7258,6.7813 C10.7258,6.4913 10.5518,5.8643 9.8828,5.8643 C9.3188,5.8643 9.0238,6.3473 8.9538,6.9653 L10.3428,6.9653 Z M8.9538,7.7093 C8.9718,8.4433 9.3798,8.9653 10.2568,8.9653 C10.5768,8.9653 10.9688,8.9063 11.3418,8.7223 C11.3678,8.7143 11.3938,8.7223 11.3938,8.7713 L11.3938,9.5443 C11.3938,9.6113 11.3758,9.6313 11.3418,9.6503 C11.0028,9.8433 10.5948,9.9113 10.0388,9.9213 C8.4588,9.9213 7.8858,8.7223 7.8858,7.5063 C7.8858,6.1253 8.6238,5.0333 9.9268,5.0333 C11.2028,5.0333 11.7148,6.1153 11.7148,7.0133 C11.7148,7.4283 11.6718,7.6223 11.6368,7.6513 C11.5318,7.6993 11.2028,7.7093 10.7258,7.7093 L8.9538,7.7093 Z" id="Fill-19" fill="#D2A3FB"></path>
            </g>
            <g id="Sk" transform="translate(81.000000, 1.000000)">
                <polygon id="Fill-25" fill="#E86C00" points="2.835 5.1831 7 13.3351 0 5.1831"></polygon>
                <polygon id="Fill-26" fill="#E86C00" points="11.165 5.1831 7 13.3351 14 5.1831"></polygon>
                <polygon id="Fill-27" fill="#FCAB00" points="2.835 5.1831 11.165 5.1831 7 13.3351"></polygon>
                <polygon id="Fill-28" fill="#FBD032" points="7 0.6655 3.055 1.0825 2.835 5.1835"></polygon>
                <polygon id="Fill-29" fill="#FBD032" points="7 0.6655 10.945 1.0825 11.165 5.1835"></polygon>
                <polygon id="Fill-30" fill="#FCAB00" points="14 5.1831 10.945 1.0821 11.165 5.1831"></polygon>
                <polygon id="Fill-31" fill="#FCAB00" points="0 5.1831 3.055 1.0821 2.835 5.1831"></polygon>
                <polygon id="Fill-32" fill="#FCECB5" points="7 0.6655 2.835 5.1835 11.165 5.1835"></polygon>
            </g>
            <g id="Br" transform="translate(97.000000, 1.000000)">
                <path d="M12.2959,2.6367 C12.2959,2.1187 11.8619,1.7047 11.3549,1.7047 L2.6369,1.7047 C2.1189,1.7047 1.7039,2.1277 1.7039,2.6367 L1.7039,11.3547 C1.7039,11.8717 2.1279,12.2957 2.6369,12.2957 L11.3549,12.2957 C11.8719,12.2957 12.2959,11.8627 12.2959,11.3547 L12.2959,2.6367 Z" id="Fill-33" fill="#FFFFFF"></path>
                <path d="M12.1338,2.77 C12.1338,2.268 11.7138,1.867 11.2208,1.867 L2.7708,1.867 C2.2688,1.867 1.8658,2.277 1.8658,2.77 L1.8658,11.221 C1.8658,11.723 2.2778,12.134 2.7708,12.134 L11.2208,12.134 C11.7228,12.134 12.1338,11.714 12.1338,11.221 L12.1338,2.77 Z M2.7998,14 C1.2508,14 -0.0002,12.749 -0.0002,11.2 L-0.0002,2.8 C-0.0002,1.25 1.2508,0 2.7998,0 L11.1998,0 C12.7488,0 13.9998,1.25 13.9998,2.8 L13.9998,11.2 C13.9998,12.749 12.7488,14 11.1998,14 L2.7998,14 Z" id="Fill-34" fill="#019FDA"></path>
                <polygon id="Fill-35" fill="#4D4D4D" points="7.4668 9.333 9.3328 9.333 9.3328 4.666 7.4668 4.666 7.4668 2.8 11.1998 2.8 11.1998 11.2 7.4668 11.2"></polygon>
                <polygon id="Fill-36" fill="#4D4D4D" points="2.7998 2.7998 6.5328 2.7998 6.5328 4.6668 4.6668 4.6668 4.6668 9.3328 6.5328 9.3328 6.5328 11.1998 2.7998 11.1998"></polygon>
            </g>
            <g id="Page-1" transform="translate(114.000000, 1.000000)">
                <path d="M7.72328949,7.71694651 L7.72328949,9.37362674 C7.72841492,9.37366744 7.73345898,9.37403372 7.73854373,9.37403372 C9.66309966,9.37403372 11.2233031,7.81311512 11.2233031,5.88762674 L9.56734373,5.88762674 C9.56734373,6.89815 8.74857763,7.71731279 7.73854373,7.71731279 C7.73345898,7.71731279 7.72841492,7.71698721 7.72328949,7.71694651 Z" id="Fill-1" fill="#CCCCCC"></path>
                <path d="M7.2758522,3.52901337 C8.54585898,3.56824593 9.56382508,4.6082343 9.56720136,5.8876064 L11.9944149,5.8876064 C11.990998,3.26704244 9.88648271,1.13944942 7.2758522,1.09976919 L7.2758522,3.52901337 Z" id="Fill-3" fill="#DB4534"></path>
                <path d="M4.61821831,6.24031279 C4.61821831,4.7718186 5.80808949,3.58141163 7.27583186,3.58141163 L7.27583186,1.62790698e-05 C3.83109966,1.62790698e-05 1.03855729,2.79387093 1.03855729,6.24031279 L4.61821831,6.24031279 Z" id="Fill-5" fill="#4580F6"></path>
                <g id="Group-9" transform="translate(0.000000, 6.234802)">
                    <mask id="mask-2" fill="white">
                        <use xlink:href="#path-1"></use>
                    </mask>
                    <g id="Clip-8"></g>
                    <path d="M4.59110644,0.00551046512 L-1.22033898e-05,0.00551046512 C-1.22033898e-05,4.27302791 3.45785898,7.73253372 7.72330983,7.73253372 L7.72330983,3.1392314 C5.99343864,3.1392314 4.59110644,1.73621977 4.59110644,0.00551046512" id="Fill-7" fill="#F3B503" mask="url(#mask-2)"></path>
                </g>
            </g>
        </g>
    </g>
</svg>